{"asset":{"version":"2.0","generator":"Blockbench 4.12.5 glTF exporter"},"scenes":[{"nodes":[30],"name":"blockbench_export"}],"scene":0,"nodes":[{"rotation":[-0.18223552549214747,0,0,0.9832549075639546],"translation":[0.23281250000000006,0.375,0],"name":"cylinder4"},{"rotation":[-0.18223552549214747,0,0,0.9832549075639546],"translation":[0.23281250000000006,0.375,0],"name":"cylinder4"},{"rotation":[-0.18223552549214747,0,0,0.9832549075639546],"translation":[0.23281250000000006,0.375,0],"name":"cylinder4"},{"translation":[0.23281250000000006,-0.0625,0],"name":"cube","mesh":0},{"translation":[0.2375,-0.1875,0],"name":"sphere","mesh":1},{"rotation":[-0.7223639620597555,0,0,0.6915130557822694],"translation":[-0.0031250000000000618,0.16562500000000047,0.007812499999999903],"name":"cuboid","mesh":2},{"name":"UpperHead","mesh":3},{"rotation":[-0.026344926111025273,0.027963084401851728,0.7157892219222647,0.6972587758923214],"translation":[-0.15000000000000036,0.06718750000000095,-0.0203125],"name":"cylinder","mesh":4},{"translation":[0.04531249999999992,0,0],"name":"sphere","mesh":5},{"rotation":[0.46177319756232493,-0.2453335836242222,0.134594612966693,0.8417013941532405],"name":"cylinder","mesh":6},{"rotation":[0.4800249271929643,-0.24233903486679123,0.13991450701549593,0.8314275627977655],"translation":[-0.10937499999999956,0.12968750000000007,0.17500000000000004],"name":"cone","mesh":7},{"rotation":[0,-0.10886687485196457,0,0.9940563382223196],"translation":[-0.5468750000000003,-0.2906249999999989,0.001562500000000001],"name":"EarMuff","children":[8,9,10]},{"translation":[-0.045312500000000366,-0.3531249999999989,0.001562500000000001],"name":"cylinder","mesh":8},{"rotation":[-0.04067077315872672,-0.023102733370734575,0.2545573609802962,0.9659258262890683],"translation":[0.02656250000000021,-0.17968749999999994,0.0140625],"name":"cylinder","mesh":9},{"rotation":[-0.0465611726505234,-0.004461533361532231,0.6271249102541792,0.7775130216659782],"name":"cylinder","mesh":10},{"name":"cylinder3","children":[12,13,14]},{"rotation":[-0.04067077315872672,-0.023102733370734575,0.2545573609802962,0.9659258262890683],"translation":[0.026562500000000155,-0.17968750000000006,0.0140625],"name":"cylinder","mesh":11},{"translation":[-0.04531250000000042,-0.3531249999999991,0.001562500000000001],"name":"cylinder","mesh":12},{"rotation":[-0.04645276451494519,-0.005476198265855627,0.6100143143275063,0.7910086524413081],"translation":[0.03750000000000042,-0.015625000000000222,0],"name":"cylinder","mesh":13},{"rotation":[0,-0.9960990332516871,0,0.08824237052036962],"translation":[-0.5890624999999996,0.012500000000000178,0],"name":"cylinder4","children":[16,17,18]},{"rotation":[0.4800249271929643,-0.24233903486679123,0.13991450701549593,0.8314275627977655],"translation":[-0.10937499999999956,0.12968750000000007,0.17500000000000002],"name":"cone","mesh":14},{"rotation":[0.46177319756232493,-0.2453335836242222,0.134594612966693,0.8417013941532405],"name":"cylinder","mesh":15},{"translation":[0.045312499999999895,0,0],"name":"sphere","mesh":16},{"rotation":[0,0.7798844830928817,0,0.6259234721840591],"translation":[-0.07968750000000033,-0.2906249999999989,0.037500000000000006],"name":"EarMuff2","children":[20,21,22]},{"translation":[0.29531250000000037,0.3531249999999989,-0.001562500000000001],"name":"Headset","children":[7,11,15,19,23]},{"translation":[0.23281250000000006,-0.0625,0],"name":"bone","children":[5,6,24]},{"name":"beveled_cuboid","mesh":17},{"translation":[0.16249999999999995,0,0],"name":"beveled_cuboid","mesh":18},{"translation":[0.1359374999999999,-0.24687499999999996,0.26093749999999966],"name":"JetPack","children":[26,27]},{"rotation":[-0.11753739745783764,0,0,0.9930684569549263],"translation":[-0.23281250000000006,0.375,0],"name":"RobotSeller","children":[3,4,25,28]},{"children":[0,1,2,29]}],"bufferViews":[{"buffer":0,"byteOffset":0,"byteLength":288,"target":34962,"byteStride":12},{"buffer":0,"byteOffset":288,"byteLength":288,"target":34962,"byteStride":12},{"buffer":0,"byteOffset":576,"byteLength":192,"target":34962,"byteStride":8},{"buffer":0,"byteOffset":768,"byteLength":72,"target":34963},{"buffer":0,"byteOffset":840,"byteLength":5760,"target":34962,"byteStride":12},{"buffer":0,"byteOffset":6600,"byteLength":5760,"target":34962,"byteStride":12},{"buffer":0,"byteOffset":12360,"byteLength":3840,"target":34962,"byteStride":8},{"buffer":0,"byteOffset":16200,"byteLength":1344,"target":34963},{"buffer":0,"byteOffset":17544,"byteLength":288,"target":34962,"byteStride":12},{"buffer":0,"byteOffset":17832,"byteLength":288,"target":34962,"byteStride":12},{"buffer":0,"byteOffset":18120,"byteLength":192,"target":34962,"byteStride":8},{"buffer":0,"byteOffset":18312,"byteLength":72,"target":34963},{"buffer":0,"byteOffset":18384,"byteLength":288,"target":34962,"byteStride":12},{"buffer":0,"byteOffset":18672,"byteLength":288,"target":34962,"byteStride":12},{"buffer":0,"byteOffset":18960,"byteLength":192,"target":34962,"byteStride":8},{"buffer":0,"byteOffset":19152,"byteLength":72,"target":34963},{"buffer":0,"byteOffset":19224,"byteLength":1920,"target":34962,"byteStride":12},{"buffer":0,"byteOffset":21144,"byteLength":1920,"target":34962,"byteStride":12},{"buffer":0,"byteOffset":23064,"byteLength":1280,"target":34962,"byteStride":8},{"buffer":0,"byteOffset":24344,"byteLength":384,"target":34963},{"buffer":0,"byteOffset":24728,"byteLength":5760,"target":34962,"byteStride":12},{"buffer":0,"byteOffset":30488,"byteLength":5760,"target":34962,"byteStride":12},{"buffer":0,"byteOffset":36248,"byteLength":3840,"target":34962,"byteStride":8},{"buffer":0,"byteOffset":40088,"byteLength":1344,"target":34963},{"buffer":0,"byteOffset":41432,"byteLength":1920,"target":34962,"byteStride":12},{"buffer":0,"byteOffset":43352,"byteLength":1920,"target":34962,"byteStride":12},{"buffer":0,"byteOffset":45272,"byteLength":1280,"target":34962,"byteStride":8},{"buffer":0,"byteOffset":46552,"byteLength":384,"target":34963},{"buffer":0,"byteOffset":46936,"byteLength":1152,"target":34962,"byteStride":12},{"buffer":0,"byteOffset":48088,"byteLength":1152,"target":34962,"byteStride":12},{"buffer":0,"byteOffset":49240,"byteLength":768,"target":34962,"byteStride":8},{"buffer":0,"byteOffset":50008,"byteLength":192,"target":34963},{"buffer":0,"byteOffset":50200,"byteLength":1920,"target":34962,"byteStride":12},{"buffer":0,"byteOffset":52120,"byteLength":1920,"target":34962,"byteStride":12},{"buffer":0,"byteOffset":54040,"byteLength":1280,"target":34962,"byteStride":8},{"buffer":0,"byteOffset":55320,"byteLength":384,"target":34963},{"buffer":0,"byteOffset":55704,"byteLength":1920,"target":34962,"byteStride":12},{"buffer":0,"byteOffset":57624,"byteLength":1920,"target":34962,"byteStride":12},{"buffer":0,"byteOffset":59544,"byteLength":1280,"target":34962,"byteStride":8},{"buffer":0,"byteOffset":60824,"byteLength":384,"target":34963},{"buffer":0,"byteOffset":61208,"byteLength":1920,"target":34962,"byteStride":12},{"buffer":0,"byteOffset":63128,"byteLength":1920,"target":34962,"byteStride":12},{"buffer":0,"byteOffset":65048,"byteLength":1280,"target":34962,"byteStride":8},{"buffer":0,"byteOffset":66328,"byteLength":384,"target":34963},{"buffer":0,"byteOffset":66712,"byteLength":1920,"target":34962,"byteStride":12},{"buffer":0,"byteOffset":68632,"byteLength":1920,"target":34962,"byteStride":12},{"buffer":0,"byteOffset":70552,"byteLength":1280,"target":34962,"byteStride":8},{"buffer":0,"byteOffset":71832,"byteLength":384,"target":34963},{"buffer":0,"byteOffset":72216,"byteLength":1920,"target":34962,"byteStride":12},{"buffer":0,"byteOffset":74136,"byteLength":1920,"target":34962,"byteStride":12},{"buffer":0,"byteOffset":76056,"byteLength":1280,"target":34962,"byteStride":8},{"buffer":0,"byteOffset":77336,"byteLength":384,"target":34963},{"buffer":0,"byteOffset":77720,"byteLength":1920,"target":34962,"byteStride":12},{"buffer":0,"byteOffset":79640,"byteLength":1920,"target":34962,"byteStride":12},{"buffer":0,"byteOffset":81560,"byteLength":1280,"target":34962,"byteStride":8},{"buffer":0,"byteOffset":82840,"byteLength":384,"target":34963},{"buffer":0,"byteOffset":83224,"byteLength":1152,"target":34962,"byteStride":12},{"buffer":0,"byteOffset":84376,"byteLength":1152,"target":34962,"byteStride":12},{"buffer":0,"byteOffset":85528,"byteLength":768,"target":34962,"byteStride":8},{"buffer":0,"byteOffset":86296,"byteLength":192,"target":34963},{"buffer":0,"byteOffset":86488,"byteLength":1920,"target":34962,"byteStride":12},{"buffer":0,"byteOffset":88408,"byteLength":1920,"target":34962,"byteStride":12},{"buffer":0,"byteOffset":90328,"byteLength":1280,"target":34962,"byteStride":8},{"buffer":0,"byteOffset":91608,"byteLength":384,"target":34963},{"buffer":0,"byteOffset":91992,"byteLength":5760,"target":34962,"byteStride":12},{"buffer":0,"byteOffset":97752,"byteLength":5760,"target":34962,"byteStride":12},{"buffer":0,"byteOffset":103512,"byteLength":3840,"target":34962,"byteStride":8},{"buffer":0,"byteOffset":107352,"byteLength":1344,"target":34963},{"buffer":0,"byteOffset":108696,"byteLength":864,"target":34962,"byteStride":12},{"buffer":0,"byteOffset":109560,"byteLength":864,"target":34962,"byteStride":12},{"buffer":0,"byteOffset":110424,"byteLength":576,"target":34962,"byteStride":8},{"buffer":0,"byteOffset":111000,"byteLength":180,"target":34963},{"buffer":0,"byteOffset":111180,"byteLength":864,"target":34962,"byteStride":12},{"buffer":0,"byteOffset":112044,"byteLength":864,"target":34962,"byteStride":12},{"buffer":0,"byteOffset":112908,"byteLength":576,"target":34962,"byteStride":8},{"buffer":0,"byteOffset":113484,"byteLength":180,"target":34963}],"buffers":[{"byteLength":113664,"uri":"data:application/octet-stream;base64,"}],"accessors":[{"bufferView":0,"componentType":5126,"count":24,"max":[0.1875,0,0.1875],"min":[-0.1875,-0.125,-0.20937499403953552],"type":"VEC3"},{"bufferView":1,"componentType":5126,"count":24,"max":[1,1,1],"min":[-1,-1,-1],"type":"VEC3"},{"bufferView":2,"componentType":5126,"count":24,"max":[0.56640625,0.5625],"min":[0.140625,0],"type":"VEC2"},{"bufferView":3,"componentType":5123,"count":36,"max":[23],"min":[0],"type":"SCALAR"},{"bufferView":4,"componentType":5126,"count":480,"max":[0.17343750596046448,0.125,0.1875],"min":[-0.17343750596046448,-0.125,-0.1875],"type":"VEC3"},{"bufferView":5,"componentType":5126,"count":480,"max":[0.9639607667922974,0.9913218021392822,0.9582554697990417],"min":[-0.9639607667922974,-0.9913218021392822,-0.9582554697990417],"type":"VEC3"},{"bufferView":6,"componentType":5126,"count":480,"max":[0.7367125153541565,0.6484375],"min":[0.048038918524980545,0.234375],"type":"VEC2"},{"bufferView":7,"componentType":5123,"count":672,"max":[479],"min":[0],"type":"SCALAR"},{"bufferView":8,"componentType":5126,"count":24,"max":[0.18125000596046448,0.30781251192092896,0.015625],"min":[-0.18125000596046448,0.19218750298023224,-0.015625],"type":"VEC3"},{"bufferView":9,"componentType":5126,"count":24,"max":[1,1,1],"min":[-1,-1,-1],"type":"VEC3"},{"bufferView":10,"componentType":5126,"count":24,"max":[0.6875,0.703125],"min":[0.25,0.265625],"type":"VEC2"},{"bufferView":11,"componentType":5123,"count":36,"max":[23],"min":[0],"type":"SCALAR"},{"bufferView":12,"componentType":5126,"count":24,"max":[0.1875,0.25,0.1875],"min":[-0.1875,0,-0.1875],"type":"VEC3"},{"bufferView":13,"componentType":5126,"count":24,"max":[1,1,1],"min":[-1,-1,-1],"type":"VEC3"},{"bufferView":14,"componentType":5126,"count":24,"max":[0.5625,0.453125],"min":[0.359375,0],"type":"VEC2"},{"bufferView":15,"componentType":5123,"count":36,"max":[23],"min":[0],"type":"SCALAR"},{"bufferView":16,"componentType":5126,"count":160,"max":[0.03125,0.23906250298023224,0.03125],"min":[-0.03125,0.13593749701976776,-0.03125],"type":"VEC3"},{"bufferView":17,"componentType":5126,"count":160,"max":[1,1,1],"min":[-1,-1,-1],"type":"VEC3"},{"bufferView":18,"componentType":5126,"count":160,"max":[0.7448984384536743,0.7445312738418579],"min":[0,0.390625],"type":"VEC2"},{"bufferView":19,"componentType":5123,"count":192,"max":[159],"min":[0],"type":"SCALAR"},{"bufferView":20,"componentType":5126,"count":480,"max":[0.125,0.125,0.125],"min":[-0.125,-0.125,-0.125],"type":"VEC3"},{"bufferView":21,"componentType":5126,"count":480,"max":[0.9807852506637573,0.9807853102684021,0.9807852506637573],"min":[-0.9807852506637573,-0.9807853102684021,-0.9807852506637573],"type":"VEC3"},{"bufferView":22,"componentType":5126,"count":480,"max":[0.762431263923645,0.765625],"min":[0.0016856153961271048,0.0024943947792053223],"type":"VEC2"},{"bufferView":23,"componentType":5123,"count":672,"max":[479],"min":[0],"type":"SCALAR"},{"bufferView":24,"componentType":5126,"count":160,"max":[0.03125,0.1875,0.03125],"min":[-0.03125,0.0625,-0.03125],"type":"VEC3"},{"bufferView":25,"componentType":5126,"count":160,"max":[1,1,1],"min":[-1,-1,-1],"type":"VEC3"},{"bufferView":26,"componentType":5126,"count":160,"max":[0.75,0.75],"min":[0.0625,0],"type":"VEC2"},{"bufferView":27,"componentType":5123,"count":192,"max":[159],"min":[0],"type":"SCALAR"},{"bufferView":28,"componentType":5126,"count":96,"max":[0.0625,0.1875,0.0625],"min":[-0.0625,-0.0625,-0.0625],"type":"VEC3"},{"bufferView":29,"componentType":5126,"count":96,"max":[0.9701424837112427,0.24253563582897186,0.9701424837112427],"min":[-0.9701424837112427,-1,-0.9701424837112427],"type":"VEC3"},{"bufferView":30,"componentType":5126,"count":96,"max":[0.6128101944923401,0.6737984418869019],"min":[0,0],"type":"VEC2"},{"bufferView":31,"componentType":5123,"count":96,"max":[95],"min":[0],"type":"SCALAR"},{"bufferView":32,"componentType":5126,"count":160,"max":[0.03125,0.3125,0.03125],"min":[-0.03125,0.0625,-0.03125],"type":"VEC3"},{"bufferView":33,"componentType":5126,"count":160,"max":[1,1,1],"min":[-1,-1,-1],"type":"VEC3"},{"bufferView":34,"componentType":5126,"count":160,"max":[0.734375,0.734375],"min":[0.07816406339406967,0.234375],"type":"VEC2"},{"bufferView":35,"componentType":5123,"count":192,"max":[159],"min":[0],"type":"SCALAR"},{"bufferView":36,"componentType":5126,"count":160,"max":[0.03125,0.23906250298023224,0.03125],"min":[-0.03125,0.13593749701976776,-0.03125],"type":"VEC3"},{"bufferView":37,"componentType":5126,"count":160,"max":[1,1,1],"min":[-1,-1,-1],"type":"VEC3"},{"bufferView":38,"componentType":5126,"count":160,"max":[0.7448984384536743,0.7445312738418579],"min":[0.11096875369548798,0.03125],"type":"VEC2"},{"bufferView":39,"componentType":5123,"count":192,"max":[159],"min":[0],"type":"SCALAR"},{"bufferView":40,"componentType":5126,"count":160,"max":[0.03125,0.30156248807907104,0.03125],"min":[-0.03125,0.07343749701976776,-0.03125],"type":"VEC3"},{"bufferView":41,"componentType":5126,"count":160,"max":[1,1,1],"min":[-1,-1,-1],"type":"VEC3"},{"bufferView":42,"componentType":5126,"count":160,"max":[0.734375,0.734375],"min":[0.04691406339406967,0.34375],"type":"VEC2"},{"bufferView":43,"componentType":5123,"count":192,"max":[159],"min":[0],"type":"SCALAR"},{"bufferView":44,"componentType":5126,"count":160,"max":[0.03125,0.23906250298023224,0.03125],"min":[-0.03125,0.13593749701976776,-0.03125],"type":"VEC3"},{"bufferView":45,"componentType":5126,"count":160,"max":[1,1,1],"min":[-1,-1,-1],"type":"VEC3"},{"bufferView":46,"componentType":5126,"count":160,"max":[0.734375,0.7601562738418579],"min":[0.14221875369548798,0.125],"type":"VEC2"},{"bufferView":47,"componentType":5123,"count":192,"max":[159],"min":[0],"type":"SCALAR"},{"bufferView":48,"componentType":5126,"count":160,"max":[0.03125,0.3125,0.03125],"min":[-0.03125,0.0625,-0.03125],"type":"VEC3"},{"bufferView":49,"componentType":5126,"count":160,"max":[1,1,1],"min":[-1,-1,-1],"type":"VEC3"},{"bufferView":50,"componentType":5126,"count":160,"max":[0.734375,0.734375],"min":[0.07816406339406967,0.3125],"type":"VEC2"},{"bufferView":51,"componentType":5123,"count":192,"max":[159],"min":[0],"type":"SCALAR"},{"bufferView":52,"componentType":5126,"count":160,"max":[0.03125,0.265625,0.03125],"min":[-0.03125,0.109375,-0.03125],"type":"VEC3"},{"bufferView":53,"componentType":5126,"count":160,"max":[1,1,1],"min":[-1,-1,-1],"type":"VEC3"},{"bufferView":54,"componentType":5126,"count":160,"max":[0.734375,0.75],"min":[0,0.390625],"type":"VEC2"},{"bufferView":55,"componentType":5123,"count":192,"max":[159],"min":[0],"type":"SCALAR"},{"bufferView":56,"componentType":5126,"count":96,"max":[0.0625,0.1875,0.0625],"min":[-0.0625,-0.0625,-0.0625],"type":"VEC3"},{"bufferView":57,"componentType":5126,"count":96,"max":[0.9701424837112427,0.24253563582897186,0.9701424837112427],"min":[-0.9701424837112427,-1,-0.9701424837112427],"type":"VEC3"},{"bufferView":58,"componentType":5126,"count":96,"max":[0.6128101944923401,0.6737984418869019],"min":[0,0],"type":"VEC2"},{"bufferView":59,"componentType":5123,"count":96,"max":[95],"min":[0],"type":"SCALAR"},{"bufferView":60,"componentType":5126,"count":160,"max":[0.03125,0.1875,0.03125],"min":[-0.03125,0.0625,-0.03125],"type":"VEC3"},{"bufferView":61,"componentType":5126,"count":160,"max":[1,1,1],"min":[-1,-1,-1],"type":"VEC3"},{"bufferView":62,"componentType":5126,"count":160,"max":[0.75,0.75],"min":[0.0625,0],"type":"VEC2"},{"bufferView":63,"componentType":5123,"count":192,"max":[159],"min":[0],"type":"SCALAR"},{"bufferView":64,"componentType":5126,"count":480,"max":[0.125,0.125,0.125],"min":[-0.125,-0.125,-0.125],"type":"VEC3"},{"bufferView":65,"componentType":5126,"count":480,"max":[0.9807852506637573,0.9807853102684021,0.9807852506637573],"min":[-0.9807852506637573,-0.9807853102684021,-0.9807852506637573],"type":"VEC3"},{"bufferView":66,"componentType":5126,"count":480,"max":[0.762431263923645,0.765625],"min":[0.0016856153961271048,0.0024943947792053223],"type":"VEC2"},{"bufferView":67,"componentType":5123,"count":672,"max":[479],"min":[0],"type":"SCALAR"},{"bufferView":68,"componentType":5126,"count":72,"max":[0.1875,0.609375,0.125],"min":[-0.1875,-0.1875,-0.125],"type":"VEC3"},{"bufferView":69,"componentType":5126,"count":72,"max":[1,0.4293937683105469,0.8320503234863281],"min":[-0.5547001957893372,-0.4293937683105469,-0.8320503234863281],"type":"VEC3"},{"bufferView":70,"componentType":5126,"count":72,"max":[0.33984375,0.44532811641693115],"min":[0,0],"type":"VEC2"},{"bufferView":71,"componentType":5123,"count":90,"max":[71],"min":[0],"type":"SCALAR"},{"bufferView":72,"componentType":5126,"count":72,"max":[0.1875,0.609375,0.125],"min":[-0.1875,-0.1875,-0.125],"type":"VEC3"},{"bufferView":73,"componentType":5126,"count":72,"max":[1,0.4293937683105469,0.8320503234863281],"min":[-0.5547001957893372,-0.4293937683105469,-0.8320503234863281],"type":"VEC3"},{"bufferView":74,"componentType":5126,"count":72,"max":[0.25946250557899475,0.39845311641693115],"min":[0,0],"type":"VEC2"},{"bufferView":75,"componentType":5123,"count":90,"max":[71],"min":[0],"type":"SCALAR"}],"materials":[{"pbrMetallicRoughness":{"metallicFactor":0,"roughnessFactor":1,"baseColorTexture":{"index":0}},"alphaMode":"MASK","alphaCutoff":0.05,"doubleSided":true}],"textures":[{"sampler":0,"source":0,"name":"texture"}],"samplers":[{"magFilter":9728,"minFilter":9728,"wrapS":33071,"wrapT":33071}],"images":[{"mimeType":"image/png","uri":"data:image/png;base64,"}],"meshes":[{"primitives":[{"mode":4,"attributes":{"POSITION":0,"NORMAL":1,"TEXCOORD_0":2},"indices":3,"material":0}]},{"primitives":[{"mode":4,"attributes":{"POSITION":4,"NORMAL":5,"TEXCOORD_0":6},"indices":7,"material":0}]},{"primitives":[{"mode":4,"attributes":{"POSITION":8,"NORMAL":9,"TEXCOORD_0":10},"indices":11,"material":0}]},{"primitives":[{"mode":4,"attributes":{"POSITION":12,"NORMAL":13,"TEXCOORD_0":14},"indices":15,"material":0}]},{"primitives":[{"mode":4,"attributes":{"POSITION":16,"NORMAL":17,"TEXCOORD_0":18},"indices":19,"material":0}]},{"primitives":[{"mode":4,"attributes":{"POSITION":20,"NORMAL":21,"TEXCOORD_0":22},"indices":23,"material":0}]},{"primitives":[{"mode":4,"attributes":{"POSITION":24,"NORMAL":25,"TEXCOORD_0":26},"indices":27,"material":0}]},{"primitives":[{"mode":4,"attributes":{"POSITION":28,"NORMAL":29,"TEXCOORD_0":30},"indices":31,"material":0}]},{"primitives":[{"mode":4,"attributes":{"POSITION":32,"NORMAL":33,"TEXCOORD_0":34},"indices":35,"material":0}]},{"primitives":[{"mode":4,"attributes":{"POSITION":36,"NORMAL":37,"TEXCOORD_0":38},"indices":39,"material":0}]},{"primitives":[{"mode":4,"attributes":{"POSITION":40,"NORMAL":41,"TEXCOORD_0":42},"indices":43,"material":0}]},{"primitives":[{"mode":4,"attributes":{"POSITION":44,"NORMAL":45,"TEXCOORD_0":46},"indices":47,"material":0}]},{"primitives":[{"mode":4,"attributes":{"POSITION":48,"NORMAL":49,"TEXCOORD_0":50},"indices":51,"material":0}]},{"primitives":[{"mode":4,"attributes":{"POSITION":52,"NORMAL":53,"TEXCOORD_0":54},"indices":55,"material":0}]},{"primitives":[{"mode":4,"attributes":{"POSITION":56,"NORMAL":57,"TEXCOORD_0":58},"indices":59,"material":0}]},{"primitives":[{"mode":4,"attributes":{"POSITION":60,"NORMAL":61,"TEXCOORD_0":62},"indices":63,"material":0}]},{"primitives":[{"mode":4,"attributes":{"POSITION":64,"NORMAL":65,"TEXCOORD_0":66},"indices":67,"material":0}]},{"primitives":[{"mode":4,"attributes":{"POSITION":68,"NORMAL":69,"TEXCOORD_0":70},"indices":71,"material":0}]},{"primitives":[{"mode":4,"attributes":{"POSITION":72,"NORMAL":73,"TEXCOORD_0":74},"indices":75,"material":0}]}]}