{"asset":{"version":"2.0","generator":"Blockbench 4.12.6 glTF exporter"},"scenes":[{"nodes":[1],"name":"blockbench_export"}],"scene":0,"nodes":[{"name":"sphere","mesh":0},{"children":[0]}],"bufferViews":[{"buffer":0,"byteOffset":0,"byteLength":3192,"target":34962,"byteStride":12},{"buffer":0,"byteOffset":3192,"byteLength":3192,"target":34962,"byteStride":12},{"buffer":0,"byteOffset":6384,"byteLength":2128,"target":34962,"byteStride":8},{"buffer":0,"byteOffset":8512,"byteLength":720,"target":34963}],"buffers":[{"byteLength":9232,"uri":"data:application/octet-stream;base64,"}],"accessors":[{"bufferView":0,"componentType":5126,"count":266,"max":[51.0625,42.5,53],"min":[-37.53883743286133,-43.890625,-38.43917465209961],"type":"VEC3"},{"bufferView":1,"componentType":5126,"count":266,"max":[0.9375368356704712,0.979149580001831,0.9858301281929016],"min":[-0.9736518263816833,-0.967655599117279,-0.9999147057533264],"type":"VEC3"},{"bufferView":2,"componentType":5126,"count":266,"max":[0.8770793676376343,0.8125],"min":[0,0],"type":"VEC2"},{"bufferView":3,"componentType":5123,"count":360,"max":[265],"min":[0],"type":"SCALAR"}],"materials":[{"pbrMetallicRoughness":{"metallicFactor":0,"roughnessFactor":1},"alphaMode":"MASK","alphaCutoff":0.05,"doubleSided":true}],"meshes":[{"primitives":[{"mode":4,"attributes":{"POSITION":0,"NORMAL":1,"TEXCOORD_0":2},"indices":3,"material":0}]}]}