{
	"asset":{
		"generator":"Khronos glTF Blender I/O v4.4.56",
		"version":"2.0"
	},
	"scene":0,
	"scenes":[
		{
			"name":"Scene",
			"nodes":[
				14
			]
		}
	],
	"nodes":[
		{
			"name":"pyramid",
			"rotation":[
				0.043309345841407776,
				-0.013342667371034622,
				-0.9989725351333618,
				0.0003561737248674035
			],
			"scale":[
				1,
				0.9999998807907104,
				1.0000003576278687
			],
			"translation":[
				0.05099336430430412,
				-0.2611931562423706,
				0.05442045256495476
			]
		},
		{
			"name":"EYEZ",
			"rotation":[
				-0.0036991320084780455,
				-6.989697709514076e-08,
				0.6264327168464661,
				0.7794667482376099
			],
			"scale":[
				0.9999999403953552,
				0.9999999403953552,
				1
			],
			"translation":[
				-0.22760139405727386,
				0.34207120537757874,
				0.005391152575612068
			]
		},
		{
			"name":"antena.r",
			"rotation":[
				0.6886076927185059,
				0.07239802181720734,
				0.12816767394542694,
				0.7100359797477722
			],
			"translation":[
				-0.0796838030219078,
				0.4528355300426483,
				0.2945232093334198
			]
		},
		{
			"name":"antena.l",
			"rotation":[
				-0.16252946853637695,
				-0.6711368560791016,
				0.6859050989151001,
				0.22955112159252167
			],
			"scale":[
				1,
				0.9999996423721313,
				0.9999999403953552
			],
			"translation":[
				-0.006553368177264929,
				0.4202592968940735,
				-0.23010411858558655
			]
		},
		{
			"name":"antenabackpack.r",
			"rotation":[
				-3.213062527152033e-08,
				-1.2514645320038653e-08,
				-2.2540913136026575e-08,
				1
			],
			"scale":[
				1.0000001192092896,
				1.0000001192092896,
				1.0000001192092896
			],
			"translation":[
				0.00879875011742115,
				1.8699660301208496,
				0.6281153559684753
			]
		},
		{
			"name":"antenabackpack.l",
			"rotation":[
				-1.1641530794914701e-10,
				-1.257285298095212e-08,
				-2.2271702704301788e-08,
				1
			],
			"scale":[
				1.0000001192092896,
				1.0000001192092896,
				1.0000001192092896
			],
			"translation":[
				0.02966100163757801,
				1.8534456491470337,
				-0.6093403100967407
			]
		},
		{
			"children":[
				4,
				5
			],
			"name":"backpack",
			"rotation":[
				5.7061188272200525e-05,
				6.653500167885795e-05,
				-0.0034070834517478943,
				0.9999942183494568
			],
			"scale":[
				0.9999999403953552,
				1,
				1
			],
			"translation":[
				1.1659655570983887,
				-0.22938959300518036,
				0.08410999178886414
			]
		},
		{
			"children":[
				0,
				1,
				2,
				3,
				6
			],
			"name":"body",
			"rotation":[
				2.3283062977608182e-10,
				-5.238689482212067e-10,
				-7.4469421740275266e-09,
				1
			],
			"scale":[
				1,
				1.0000001192092896,
				1
			],
			"translation":[
				0.000571710173971951,
				-0.0004588265437632799,
				-0.03436944633722305
			]
		},
		{
			"mesh":0,
			"name":"Antenna.001",
			"skin":0
		},
		{
			"mesh":1,
			"name":"Antenna.002",
			"skin":0
		},
		{
			"mesh":2,
			"name":"Glasses1.001",
			"skin":0
		},
		{
			"mesh":3,
			"name":"Glasses2",
			"skin":0
		},
		{
			"mesh":4,
			"name":"Pack.001",
			"skin":0
		},
		{
			"mesh":5,
			"name":"Radio1",
			"skin":0
		},
		{
			"children":[
				8,
				9,
				10,
				11,
				12,
				13,
				7
			],
			"name":"hilbot",
			"rotation":[
				0.005416532047092915,
				0.00918482057750225,
				0.14296798408031464,
				0.9896699786186218
			],
			"translation":[
				0.15665538609027863,
				1.7774510383605957,
				-0.021648311987519264
			]
		}
	],
	"animations":[
		{
			"channels":[
				{
					"sampler":0,
					"target":{
						"node":7,
						"path":"translation"
					}
				},
				{
					"sampler":1,
					"target":{
						"node":7,
						"path":"rotation"
					}
				},
				{
					"sampler":2,
					"target":{
						"node":7,
						"path":"scale"
					}
				},
				{
					"sampler":3,
					"target":{
						"node":0,
						"path":"translation"
					}
				},
				{
					"sampler":4,
					"target":{
						"node":0,
						"path":"rotation"
					}
				},
				{
					"sampler":5,
					"target":{
						"node":0,
						"path":"scale"
					}
				},
				{
					"sampler":6,
					"target":{
						"node":1,
						"path":"translation"
					}
				},
				{
					"sampler":7,
					"target":{
						"node":1,
						"path":"rotation"
					}
				},
				{
					"sampler":8,
					"target":{
						"node":1,
						"path":"scale"
					}
				},
				{
					"sampler":9,
					"target":{
						"node":2,
						"path":"translation"
					}
				},
				{
					"sampler":10,
					"target":{
						"node":2,
						"path":"rotation"
					}
				},
				{
					"sampler":11,
					"target":{
						"node":2,
						"path":"scale"
					}
				},
				{
					"sampler":12,
					"target":{
						"node":3,
						"path":"translation"
					}
				},
				{
					"sampler":13,
					"target":{
						"node":3,
						"path":"rotation"
					}
				},
				{
					"sampler":14,
					"target":{
						"node":3,
						"path":"scale"
					}
				},
				{
					"sampler":15,
					"target":{
						"node":6,
						"path":"translation"
					}
				},
				{
					"sampler":16,
					"target":{
						"node":6,
						"path":"rotation"
					}
				},
				{
					"sampler":17,
					"target":{
						"node":6,
						"path":"scale"
					}
				},
				{
					"sampler":18,
					"target":{
						"node":4,
						"path":"translation"
					}
				},
				{
					"sampler":19,
					"target":{
						"node":4,
						"path":"rotation"
					}
				},
				{
					"sampler":20,
					"target":{
						"node":4,
						"path":"scale"
					}
				},
				{
					"sampler":21,
					"target":{
						"node":5,
						"path":"translation"
					}
				},
				{
					"sampler":22,
					"target":{
						"node":5,
						"path":"rotation"
					}
				},
				{
					"sampler":23,
					"target":{
						"node":5,
						"path":"scale"
					}
				}
			],
			"name":"die",
			"samplers":[
				{
					"input":35,
					"interpolation":"LINEAR",
					"output":36
				},
				{
					"input":35,
					"interpolation":"LINEAR",
					"output":37
				},
				{
					"input":38,
					"interpolation":"STEP",
					"output":39
				},
				{
					"input":35,
					"interpolation":"LINEAR",
					"output":40
				},
				{
					"input":35,
					"interpolation":"LINEAR",
					"output":41
				},
				{
					"input":38,
					"interpolation":"LINEAR",
					"output":42
				},
				{
					"input":35,
					"interpolation":"LINEAR",
					"output":43
				},
				{
					"input":35,
					"interpolation":"LINEAR",
					"output":44
				},
				{
					"input":38,
					"interpolation":"STEP",
					"output":45
				},
				{
					"input":35,
					"interpolation":"LINEAR",
					"output":46
				},
				{
					"input":38,
					"interpolation":"LINEAR",
					"output":47
				},
				{
					"input":38,
					"interpolation":"STEP",
					"output":48
				},
				{
					"input":35,
					"interpolation":"LINEAR",
					"output":49
				},
				{
					"input":38,
					"interpolation":"LINEAR",
					"output":50
				},
				{
					"input":38,
					"interpolation":"STEP",
					"output":51
				},
				{
					"input":35,
					"interpolation":"LINEAR",
					"output":52
				},
				{
					"input":35,
					"interpolation":"LINEAR",
					"output":53
				},
				{
					"input":38,
					"interpolation":"STEP",
					"output":54
				},
				{
					"input":35,
					"interpolation":"LINEAR",
					"output":55
				},
				{
					"input":35,
					"interpolation":"LINEAR",
					"output":56
				},
				{
					"input":38,
					"interpolation":"LINEAR",
					"output":57
				},
				{
					"input":35,
					"interpolation":"LINEAR",
					"output":58
				},
				{
					"input":35,
					"interpolation":"LINEAR",
					"output":59
				},
				{
					"input":38,
					"interpolation":"STEP",
					"output":60
				}
			]
		},
		{
			"channels":[
				{
					"sampler":0,
					"target":{
						"node":7,
						"path":"translation"
					}
				},
				{
					"sampler":1,
					"target":{
						"node":7,
						"path":"rotation"
					}
				},
				{
					"sampler":2,
					"target":{
						"node":7,
						"path":"scale"
					}
				},
				{
					"sampler":3,
					"target":{
						"node":0,
						"path":"translation"
					}
				},
				{
					"sampler":4,
					"target":{
						"node":0,
						"path":"rotation"
					}
				},
				{
					"sampler":5,
					"target":{
						"node":0,
						"path":"scale"
					}
				},
				{
					"sampler":6,
					"target":{
						"node":1,
						"path":"translation"
					}
				},
				{
					"sampler":7,
					"target":{
						"node":1,
						"path":"rotation"
					}
				},
				{
					"sampler":8,
					"target":{
						"node":1,
						"path":"scale"
					}
				},
				{
					"sampler":9,
					"target":{
						"node":2,
						"path":"translation"
					}
				},
				{
					"sampler":10,
					"target":{
						"node":2,
						"path":"rotation"
					}
				},
				{
					"sampler":11,
					"target":{
						"node":2,
						"path":"scale"
					}
				},
				{
					"sampler":12,
					"target":{
						"node":3,
						"path":"translation"
					}
				},
				{
					"sampler":13,
					"target":{
						"node":3,
						"path":"rotation"
					}
				},
				{
					"sampler":14,
					"target":{
						"node":3,
						"path":"scale"
					}
				},
				{
					"sampler":15,
					"target":{
						"node":6,
						"path":"translation"
					}
				},
				{
					"sampler":16,
					"target":{
						"node":6,
						"path":"rotation"
					}
				},
				{
					"sampler":17,
					"target":{
						"node":6,
						"path":"scale"
					}
				},
				{
					"sampler":18,
					"target":{
						"node":4,
						"path":"translation"
					}
				},
				{
					"sampler":19,
					"target":{
						"node":4,
						"path":"rotation"
					}
				},
				{
					"sampler":20,
					"target":{
						"node":4,
						"path":"scale"
					}
				},
				{
					"sampler":21,
					"target":{
						"node":5,
						"path":"translation"
					}
				},
				{
					"sampler":22,
					"target":{
						"node":5,
						"path":"rotation"
					}
				},
				{
					"sampler":23,
					"target":{
						"node":5,
						"path":"scale"
					}
				}
			],
			"name":"heal",
			"samplers":[
				{
					"input":61,
					"interpolation":"LINEAR",
					"output":62
				},
				{
					"input":61,
					"interpolation":"LINEAR",
					"output":63
				},
				{
					"input":64,
					"interpolation":"STEP",
					"output":65
				},
				{
					"input":61,
					"interpolation":"LINEAR",
					"output":66
				},
				{
					"input":61,
					"interpolation":"LINEAR",
					"output":67
				},
				{
					"input":64,
					"interpolation":"STEP",
					"output":68
				},
				{
					"input":64,
					"interpolation":"STEP",
					"output":69
				},
				{
					"input":61,
					"interpolation":"LINEAR",
					"output":70
				},
				{
					"input":61,
					"interpolation":"LINEAR",
					"output":71
				},
				{
					"input":61,
					"interpolation":"LINEAR",
					"output":72
				},
				{
					"input":61,
					"interpolation":"LINEAR",
					"output":73
				},
				{
					"input":64,
					"interpolation":"STEP",
					"output":74
				},
				{
					"input":61,
					"interpolation":"LINEAR",
					"output":75
				},
				{
					"input":61,
					"interpolation":"LINEAR",
					"output":76
				},
				{
					"input":64,
					"interpolation":"STEP",
					"output":77
				},
				{
					"input":61,
					"interpolation":"LINEAR",
					"output":78
				},
				{
					"input":61,
					"interpolation":"LINEAR",
					"output":79
				},
				{
					"input":61,
					"interpolation":"LINEAR",
					"output":80
				},
				{
					"input":61,
					"interpolation":"LINEAR",
					"output":81
				},
				{
					"input":61,
					"interpolation":"LINEAR",
					"output":82
				},
				{
					"input":64,
					"interpolation":"STEP",
					"output":83
				},
				{
					"input":61,
					"interpolation":"LINEAR",
					"output":84
				},
				{
					"input":61,
					"interpolation":"LINEAR",
					"output":85
				},
				{
					"input":64,
					"interpolation":"STEP",
					"output":86
				}
			]
		},
		{
			"channels":[
				{
					"sampler":0,
					"target":{
						"node":7,
						"path":"translation"
					}
				},
				{
					"sampler":1,
					"target":{
						"node":7,
						"path":"rotation"
					}
				},
				{
					"sampler":2,
					"target":{
						"node":7,
						"path":"scale"
					}
				},
				{
					"sampler":3,
					"target":{
						"node":0,
						"path":"translation"
					}
				},
				{
					"sampler":4,
					"target":{
						"node":0,
						"path":"rotation"
					}
				},
				{
					"sampler":5,
					"target":{
						"node":0,
						"path":"scale"
					}
				},
				{
					"sampler":6,
					"target":{
						"node":1,
						"path":"translation"
					}
				},
				{
					"sampler":7,
					"target":{
						"node":1,
						"path":"rotation"
					}
				},
				{
					"sampler":8,
					"target":{
						"node":1,
						"path":"scale"
					}
				},
				{
					"sampler":9,
					"target":{
						"node":2,
						"path":"translation"
					}
				},
				{
					"sampler":10,
					"target":{
						"node":2,
						"path":"rotation"
					}
				},
				{
					"sampler":11,
					"target":{
						"node":2,
						"path":"scale"
					}
				},
				{
					"sampler":12,
					"target":{
						"node":3,
						"path":"translation"
					}
				},
				{
					"sampler":13,
					"target":{
						"node":3,
						"path":"rotation"
					}
				},
				{
					"sampler":14,
					"target":{
						"node":3,
						"path":"scale"
					}
				},
				{
					"sampler":15,
					"target":{
						"node":6,
						"path":"translation"
					}
				},
				{
					"sampler":16,
					"target":{
						"node":6,
						"path":"rotation"
					}
				},
				{
					"sampler":17,
					"target":{
						"node":6,
						"path":"scale"
					}
				},
				{
					"sampler":18,
					"target":{
						"node":4,
						"path":"translation"
					}
				},
				{
					"sampler":19,
					"target":{
						"node":4,
						"path":"rotation"
					}
				},
				{
					"sampler":20,
					"target":{
						"node":4,
						"path":"scale"
					}
				},
				{
					"sampler":21,
					"target":{
						"node":5,
						"path":"translation"
					}
				},
				{
					"sampler":22,
					"target":{
						"node":5,
						"path":"rotation"
					}
				},
				{
					"sampler":23,
					"target":{
						"node":5,
						"path":"scale"
					}
				}
			],
			"name":"hurt",
			"samplers":[
				{
					"input":87,
					"interpolation":"LINEAR",
					"output":88
				},
				{
					"input":87,
					"interpolation":"LINEAR",
					"output":89
				},
				{
					"input":90,
					"interpolation":"STEP",
					"output":91
				},
				{
					"input":87,
					"interpolation":"LINEAR",
					"output":92
				},
				{
					"input":87,
					"interpolation":"LINEAR",
					"output":93
				},
				{
					"input":90,
					"interpolation":"STEP",
					"output":94
				},
				{
					"input":90,
					"interpolation":"STEP",
					"output":95
				},
				{
					"input":87,
					"interpolation":"LINEAR",
					"output":96
				},
				{
					"input":90,
					"interpolation":"STEP",
					"output":97
				},
				{
					"input":87,
					"interpolation":"LINEAR",
					"output":98
				},
				{
					"input":90,
					"interpolation":"STEP",
					"output":99
				},
				{
					"input":90,
					"interpolation":"STEP",
					"output":100
				},
				{
					"input":87,
					"interpolation":"LINEAR",
					"output":101
				},
				{
					"input":87,
					"interpolation":"LINEAR",
					"output":102
				},
				{
					"input":90,
					"interpolation":"STEP",
					"output":103
				},
				{
					"input":87,
					"interpolation":"LINEAR",
					"output":104
				},
				{
					"input":87,
					"interpolation":"LINEAR",
					"output":105
				},
				{
					"input":90,
					"interpolation":"STEP",
					"output":106
				},
				{
					"input":90,
					"interpolation":"LINEAR",
					"output":107
				},
				{
					"input":87,
					"interpolation":"LINEAR",
					"output":108
				},
				{
					"input":90,
					"interpolation":"STEP",
					"output":109
				},
				{
					"input":90,
					"interpolation":"LINEAR",
					"output":110
				},
				{
					"input":87,
					"interpolation":"LINEAR",
					"output":111
				},
				{
					"input":90,
					"interpolation":"STEP",
					"output":112
				}
			]
		},
		{
			"channels":[
				{
					"sampler":0,
					"target":{
						"node":7,
						"path":"translation"
					}
				},
				{
					"sampler":1,
					"target":{
						"node":7,
						"path":"rotation"
					}
				},
				{
					"sampler":2,
					"target":{
						"node":7,
						"path":"scale"
					}
				},
				{
					"sampler":3,
					"target":{
						"node":0,
						"path":"translation"
					}
				},
				{
					"sampler":4,
					"target":{
						"node":0,
						"path":"rotation"
					}
				},
				{
					"sampler":5,
					"target":{
						"node":0,
						"path":"scale"
					}
				},
				{
					"sampler":6,
					"target":{
						"node":1,
						"path":"translation"
					}
				},
				{
					"sampler":7,
					"target":{
						"node":1,
						"path":"rotation"
					}
				},
				{
					"sampler":8,
					"target":{
						"node":1,
						"path":"scale"
					}
				},
				{
					"sampler":9,
					"target":{
						"node":2,
						"path":"translation"
					}
				},
				{
					"sampler":10,
					"target":{
						"node":2,
						"path":"rotation"
					}
				},
				{
					"sampler":11,
					"target":{
						"node":2,
						"path":"scale"
					}
				},
				{
					"sampler":12,
					"target":{
						"node":3,
						"path":"translation"
					}
				},
				{
					"sampler":13,
					"target":{
						"node":3,
						"path":"rotation"
					}
				},
				{
					"sampler":14,
					"target":{
						"node":3,
						"path":"scale"
					}
				},
				{
					"sampler":15,
					"target":{
						"node":6,
						"path":"translation"
					}
				},
				{
					"sampler":16,
					"target":{
						"node":6,
						"path":"rotation"
					}
				},
				{
					"sampler":17,
					"target":{
						"node":6,
						"path":"scale"
					}
				},
				{
					"sampler":18,
					"target":{
						"node":4,
						"path":"translation"
					}
				},
				{
					"sampler":19,
					"target":{
						"node":4,
						"path":"rotation"
					}
				},
				{
					"sampler":20,
					"target":{
						"node":4,
						"path":"scale"
					}
				},
				{
					"sampler":21,
					"target":{
						"node":5,
						"path":"translation"
					}
				},
				{
					"sampler":22,
					"target":{
						"node":5,
						"path":"rotation"
					}
				},
				{
					"sampler":23,
					"target":{
						"node":5,
						"path":"scale"
					}
				}
			],
			"name":"idle",
			"samplers":[
				{
					"input":113,
					"interpolation":"LINEAR",
					"output":114
				},
				{
					"input":113,
					"interpolation":"LINEAR",
					"output":115
				},
				{
					"input":116,
					"interpolation":"STEP",
					"output":117
				},
				{
					"input":113,
					"interpolation":"LINEAR",
					"output":118
				},
				{
					"input":113,
					"interpolation":"LINEAR",
					"output":119
				},
				{
					"input":116,
					"interpolation":"STEP",
					"output":120
				},
				{
					"input":113,
					"interpolation":"LINEAR",
					"output":121
				},
				{
					"input":113,
					"interpolation":"LINEAR",
					"output":122
				},
				{
					"input":116,
					"interpolation":"STEP",
					"output":123
				},
				{
					"input":113,
					"interpolation":"LINEAR",
					"output":124
				},
				{
					"input":113,
					"interpolation":"LINEAR",
					"output":125
				},
				{
					"input":116,
					"interpolation":"STEP",
					"output":126
				},
				{
					"input":113,
					"interpolation":"LINEAR",
					"output":127
				},
				{
					"input":113,
					"interpolation":"LINEAR",
					"output":128
				},
				{
					"input":116,
					"interpolation":"LINEAR",
					"output":129
				},
				{
					"input":113,
					"interpolation":"LINEAR",
					"output":130
				},
				{
					"input":113,
					"interpolation":"LINEAR",
					"output":131
				},
				{
					"input":116,
					"interpolation":"STEP",
					"output":132
				},
				{
					"input":116,
					"interpolation":"LINEAR",
					"output":133
				},
				{
					"input":113,
					"interpolation":"LINEAR",
					"output":134
				},
				{
					"input":116,
					"interpolation":"STEP",
					"output":135
				},
				{
					"input":116,
					"interpolation":"LINEAR",
					"output":136
				},
				{
					"input":113,
					"interpolation":"LINEAR",
					"output":137
				},
				{
					"input":116,
					"interpolation":"STEP",
					"output":138
				}
			]
		}
	],
	"materials":[
		{
			"alphaCutoff":0.05000000074505806,
			"alphaMode":"MASK",
			"doubleSided":true,
			"name":"Material_0",
			"pbrMetallicRoughness":{
				"baseColorTexture":{
					"index":0
				},
				"metallicFactor":0
			}
		}
	],
	"meshes":[
		{
			"name":"Mesh_6",
			"primitives":[
				{
					"attributes":{
						"POSITION":0,
						"NORMAL":1,
						"TEXCOORD_0":2,
						"JOINTS_0":3,
						"WEIGHTS_0":4
					},
					"indices":5,
					"material":0
				}
			]
		},
		{
			"name":"Mesh_7",
			"primitives":[
				{
					"attributes":{
						"POSITION":7,
						"NORMAL":8,
						"TEXCOORD_0":9,
						"JOINTS_0":10,
						"WEIGHTS_0":11
					},
					"indices":5,
					"material":0
				}
			]
		},
		{
			"name":"Mesh_3",
			"primitives":[
				{
					"attributes":{
						"POSITION":12,
						"NORMAL":13,
						"TEXCOORD_0":14,
						"JOINTS_0":15,
						"WEIGHTS_0":16
					},
					"indices":17,
					"material":0
				}
			]
		},
		{
			"name":"Mesh_2",
			"primitives":[
				{
					"attributes":{
						"POSITION":18,
						"NORMAL":19,
						"TEXCOORD_0":20,
						"JOINTS_0":21,
						"WEIGHTS_0":22
					},
					"indices":17,
					"material":0
				}
			]
		},
		{
			"name":"Mesh_4",
			"primitives":[
				{
					"attributes":{
						"POSITION":23,
						"NORMAL":24,
						"TEXCOORD_0":25,
						"JOINTS_0":26,
						"WEIGHTS_0":27
					},
					"indices":28,
					"material":0
				}
			]
		},
		{
			"name":"Mesh_9",
			"primitives":[
				{
					"attributes":{
						"POSITION":29,
						"NORMAL":30,
						"TEXCOORD_0":31,
						"JOINTS_0":32,
						"WEIGHTS_0":33
					},
					"indices":34,
					"material":0
				}
			]
		}
	],
	"textures":[
		{
			"sampler":0,
			"source":0
		}
	],
	"images":[
		{
			"mimeType":"image/png",
			"name":"Image_0",
			"uri":"Image_0.png"
		}
	],
	"skins":[
		{
			"inverseBindMatrices":6,
			"joints":[
				7,
				0,
				1,
				2,
				3,
				6,
				4,
				5
			],
			"name":"hilbot"
		}
	],
	"accessors":[
		{
			"bufferView":0,
			"componentType":5126,
			"count":192,
			"max":[
				0.9392454624176025,
				4.854537010192871,
				-0.4312498867511749
			],
			"min":[
				0.44529950618743896,
				3.6590888500213623,
				-0.693749725818634
			],
			"type":"VEC3"
		},
		{
			"bufferView":1,
			"componentType":5126,
			"count":192,
			"type":"VEC3"
		},
		{
			"bufferView":2,
			"componentType":5126,
			"count":192,
			"type":"VEC2"
		},
		{
			"bufferView":3,
			"componentType":5121,
			"count":192,
			"type":"VEC4"
		},
		{
			"bufferView":4,
			"componentType":5126,
			"count":192,
			"type":"VEC4"
		},
		{
			"bufferView":5,
			"componentType":5123,
			"count":240,
			"type":"SCALAR"
		},
		{
			"bufferView":6,
			"componentType":5126,
			"count":8,
			"type":"MAT4"
		},
		{
			"bufferView":7,
			"componentType":5126,
			"count":192,
			"max":[
				0.9392454624176025,
				4.854537010192871,
				0.7937496900558472
			],
			"min":[
				0.44529950618743896,
				3.6590888500213623,
				0.5312498807907104
			],
			"type":"VEC3"
		},
		{
			"bufferView":8,
			"componentType":5126,
			"count":192,
			"type":"VEC3"
		},
		{
			"bufferView":9,
			"componentType":5126,
			"count":192,
			"type":"VEC2"
		},
		{
			"bufferView":10,
			"componentType":5121,
			"count":192,
			"type":"VEC4"
		},
		{
			"bufferView":11,
			"componentType":5126,
			"count":192,
			"type":"VEC4"
		},
		{
			"bufferView":12,
			"componentType":5126,
			"count":80,
			"max":[
				-0.5361954569816589,
				2.2446279525756836,
				-0.06562501192092896
			],
			"min":[
				-0.745326578617096,
				1.7369253635406494,
				-0.5656248331069946
			],
			"type":"VEC3"
		},
		{
			"bufferView":13,
			"componentType":5126,
			"count":80,
			"type":"VEC3"
		},
		{
			"bufferView":14,
			"componentType":5126,
			"count":80,
			"type":"VEC2"
		},
		{
			"bufferView":15,
			"componentType":5121,
			"count":80,
			"type":"VEC4"
		},
		{
			"bufferView":16,
			"componentType":5126,
			"count":80,
			"type":"VEC4"
		},
		{
			"bufferView":17,
			"componentType":5123,
			"count":96,
			"type":"SCALAR"
		},
		{
			"bufferView":18,
			"componentType":5126,
			"count":80,
			"max":[
				-0.5424216389656067,
				2.2440831661224365,
				0.48749983310699463
			],
			"min":[
				-0.7515527606010437,
				1.7363805770874023,
				-0.01249998901039362
			],
			"type":"VEC3"
		},
		{
			"bufferView":19,
			"componentType":5126,
			"count":80,
			"type":"VEC3"
		},
		{
			"bufferView":20,
			"componentType":5126,
			"count":80,
			"type":"VEC2"
		},
		{
			"bufferView":21,
			"componentType":5121,
			"count":80,
			"type":"VEC4"
		},
		{
			"bufferView":22,
			"componentType":5126,
			"count":80,
			"type":"VEC4"
		},
		{
			"bufferView":23,
			"componentType":5126,
			"count":48,
			"max":[
				1.7428208589553833,
				3.7592244148254395,
				0.8906247019767761
			],
			"min":[
				0.6444904208183289,
				1.848889946937561,
				-0.8906247019767761
			],
			"type":"VEC3"
		},
		{
			"bufferView":24,
			"componentType":5126,
			"count":48,
			"type":"VEC3"
		},
		{
			"bufferView":25,
			"componentType":5126,
			"count":48,
			"type":"VEC2"
		},
		{
			"bufferView":26,
			"componentType":5121,
			"count":48,
			"type":"VEC4"
		},
		{
			"bufferView":27,
			"componentType":5126,
			"count":48,
			"type":"VEC4"
		},
		{
			"bufferView":28,
			"componentType":5123,
			"count":72,
			"type":"SCALAR"
		},
		{
			"bufferView":29,
			"componentType":5126,
			"count":1094,
			"max":[
				0.7408155202865601,
				3.1712734699249268,
				0.9102556109428406
			],
			"min":[
				-0.749532163143158,
				1.0520771741867065,
				-1.0077835321426392
			],
			"type":"VEC3"
		},
		{
			"bufferView":30,
			"componentType":5126,
			"count":1094,
			"type":"VEC3"
		},
		{
			"bufferView":31,
			"componentType":5126,
			"count":1094,
			"type":"VEC2"
		},
		{
			"bufferView":32,
			"componentType":5121,
			"count":1094,
			"type":"VEC4"
		},
		{
			"bufferView":33,
			"componentType":5126,
			"count":1094,
			"type":"VEC4"
		},
		{
			"bufferView":34,
			"componentType":5123,
			"count":1392,
			"type":"SCALAR"
		},
		{
			"bufferView":35,
			"componentType":5126,
			"count":35,
			"max":[
				1.4583333333333333
			],
			"min":[
				0.041666666666666664
			],
			"type":"SCALAR"
		},
		{
			"bufferView":36,
			"componentType":5126,
			"count":35,
			"type":"VEC3"
		},
		{
			"bufferView":37,
			"componentType":5126,
			"count":35,
			"type":"VEC4"
		},
		{
			"bufferView":38,
			"componentType":5126,
			"count":2,
			"max":[
				1.4583333333333333
			],
			"min":[
				0.041666666666666664
			],
			"type":"SCALAR"
		},
		{
			"bufferView":39,
			"componentType":5126,
			"count":2,
			"type":"VEC3"
		},
		{
			"bufferView":40,
			"componentType":5126,
			"count":35,
			"type":"VEC3"
		},
		{
			"bufferView":41,
			"componentType":5126,
			"count":35,
			"type":"VEC4"
		},
		{
			"bufferView":42,
			"componentType":5126,
			"count":2,
			"type":"VEC3"
		},
		{
			"bufferView":43,
			"componentType":5126,
			"count":35,
			"type":"VEC3"
		},
		{
			"bufferView":44,
			"componentType":5126,
			"count":35,
			"type":"VEC4"
		},
		{
			"bufferView":45,
			"componentType":5126,
			"count":2,
			"type":"VEC3"
		},
		{
			"bufferView":46,
			"componentType":5126,
			"count":35,
			"type":"VEC3"
		},
		{
			"bufferView":47,
			"componentType":5126,
			"count":2,
			"type":"VEC4"
		},
		{
			"bufferView":48,
			"componentType":5126,
			"count":2,
			"type":"VEC3"
		},
		{
			"bufferView":49,
			"componentType":5126,
			"count":35,
			"type":"VEC3"
		},
		{
			"bufferView":50,
			"componentType":5126,
			"count":2,
			"type":"VEC4"
		},
		{
			"bufferView":51,
			"componentType":5126,
			"count":2,
			"type":"VEC3"
		},
		{
			"bufferView":52,
			"componentType":5126,
			"count":35,
			"type":"VEC3"
		},
		{
			"bufferView":53,
			"componentType":5126,
			"count":35,
			"type":"VEC4"
		},
		{
			"bufferView":54,
			"componentType":5126,
			"count":2,
			"type":"VEC3"
		},
		{
			"bufferView":55,
			"componentType":5126,
			"count":35,
			"type":"VEC3"
		},
		{
			"bufferView":56,
			"componentType":5126,
			"count":35,
			"type":"VEC4"
		},
		{
			"bufferView":57,
			"componentType":5126,
			"count":2,
			"type":"VEC3"
		},
		{
			"bufferView":58,
			"componentType":5126,
			"count":35,
			"type":"VEC3"
		},
		{
			"bufferView":59,
			"componentType":5126,
			"count":35,
			"type":"VEC4"
		},
		{
			"bufferView":60,
			"componentType":5126,
			"count":2,
			"type":"VEC3"
		},
		{
			"bufferView":61,
			"componentType":5126,
			"count":60,
			"max":[
				2.5
			],
			"min":[
				0.041666666666666664
			],
			"type":"SCALAR"
		},
		{
			"bufferView":62,
			"componentType":5126,
			"count":60,
			"type":"VEC3"
		},
		{
			"bufferView":63,
			"componentType":5126,
			"count":60,
			"type":"VEC4"
		},
		{
			"bufferView":64,
			"componentType":5126,
			"count":2,
			"max":[
				2.5
			],
			"min":[
				0.041666666666666664
			],
			"type":"SCALAR"
		},
		{
			"bufferView":65,
			"componentType":5126,
			"count":2,
			"type":"VEC3"
		},
		{
			"bufferView":66,
			"componentType":5126,
			"count":60,
			"type":"VEC3"
		},
		{
			"bufferView":67,
			"componentType":5126,
			"count":60,
			"type":"VEC4"
		},
		{
			"bufferView":68,
			"componentType":5126,
			"count":2,
			"type":"VEC3"
		},
		{
			"bufferView":69,
			"componentType":5126,
			"count":2,
			"type":"VEC3"
		},
		{
			"bufferView":70,
			"componentType":5126,
			"count":60,
			"type":"VEC4"
		},
		{
			"bufferView":71,
			"componentType":5126,
			"count":60,
			"type":"VEC3"
		},
		{
			"bufferView":72,
			"componentType":5126,
			"count":60,
			"type":"VEC3"
		},
		{
			"bufferView":73,
			"componentType":5126,
			"count":60,
			"type":"VEC4"
		},
		{
			"bufferView":74,
			"componentType":5126,
			"count":2,
			"type":"VEC3"
		},
		{
			"bufferView":75,
			"componentType":5126,
			"count":60,
			"type":"VEC3"
		},
		{
			"bufferView":76,
			"componentType":5126,
			"count":60,
			"type":"VEC4"
		},
		{
			"bufferView":77,
			"componentType":5126,
			"count":2,
			"type":"VEC3"
		},
		{
			"bufferView":78,
			"componentType":5126,
			"count":60,
			"type":"VEC3"
		},
		{
			"bufferView":79,
			"componentType":5126,
			"count":60,
			"type":"VEC4"
		},
		{
			"bufferView":80,
			"componentType":5126,
			"count":60,
			"type":"VEC3"
		},
		{
			"bufferView":81,
			"componentType":5126,
			"count":60,
			"type":"VEC3"
		},
		{
			"bufferView":82,
			"componentType":5126,
			"count":60,
			"type":"VEC4"
		},
		{
			"bufferView":83,
			"componentType":5126,
			"count":2,
			"type":"VEC3"
		},
		{
			"bufferView":84,
			"componentType":5126,
			"count":60,
			"type":"VEC3"
		},
		{
			"bufferView":85,
			"componentType":5126,
			"count":60,
			"type":"VEC4"
		},
		{
			"bufferView":86,
			"componentType":5126,
			"count":2,
			"type":"VEC3"
		},
		{
			"bufferView":87,
			"componentType":5126,
			"count":15,
			"max":[
				0.625
			],
			"min":[
				0.041666666666666664
			],
			"type":"SCALAR"
		},
		{
			"bufferView":88,
			"componentType":5126,
			"count":15,
			"type":"VEC3"
		},
		{
			"bufferView":89,
			"componentType":5126,
			"count":15,
			"type":"VEC4"
		},
		{
			"bufferView":90,
			"componentType":5126,
			"count":2,
			"max":[
				0.625
			],
			"min":[
				0.041666666666666664
			],
			"type":"SCALAR"
		},
		{
			"bufferView":91,
			"componentType":5126,
			"count":2,
			"type":"VEC3"
		},
		{
			"bufferView":92,
			"componentType":5126,
			"count":15,
			"type":"VEC3"
		},
		{
			"bufferView":93,
			"componentType":5126,
			"count":15,
			"type":"VEC4"
		},
		{
			"bufferView":94,
			"componentType":5126,
			"count":2,
			"type":"VEC3"
		},
		{
			"bufferView":95,
			"componentType":5126,
			"count":2,
			"type":"VEC3"
		},
		{
			"bufferView":96,
			"componentType":5126,
			"count":15,
			"type":"VEC4"
		},
		{
			"bufferView":97,
			"componentType":5126,
			"count":2,
			"type":"VEC3"
		},
		{
			"bufferView":98,
			"componentType":5126,
			"count":15,
			"type":"VEC3"
		},
		{
			"bufferView":99,
			"componentType":5126,
			"count":2,
			"type":"VEC4"
		},
		{
			"bufferView":100,
			"componentType":5126,
			"count":2,
			"type":"VEC3"
		},
		{
			"bufferView":101,
			"componentType":5126,
			"count":15,
			"type":"VEC3"
		},
		{
			"bufferView":102,
			"componentType":5126,
			"count":15,
			"type":"VEC4"
		},
		{
			"bufferView":103,
			"componentType":5126,
			"count":2,
			"type":"VEC3"
		},
		{
			"bufferView":104,
			"componentType":5126,
			"count":15,
			"type":"VEC3"
		},
		{
			"bufferView":105,
			"componentType":5126,
			"count":15,
			"type":"VEC4"
		},
		{
			"bufferView":106,
			"componentType":5126,
			"count":2,
			"type":"VEC3"
		},
		{
			"bufferView":107,
			"componentType":5126,
			"count":2,
			"type":"VEC3"
		},
		{
			"bufferView":108,
			"componentType":5126,
			"count":15,
			"type":"VEC4"
		},
		{
			"bufferView":109,
			"componentType":5126,
			"count":2,
			"type":"VEC3"
		},
		{
			"bufferView":110,
			"componentType":5126,
			"count":2,
			"type":"VEC3"
		},
		{
			"bufferView":111,
			"componentType":5126,
			"count":15,
			"type":"VEC4"
		},
		{
			"bufferView":112,
			"componentType":5126,
			"count":2,
			"type":"VEC3"
		},
		{
			"bufferView":113,
			"componentType":5126,
			"count":39,
			"max":[
				1.625
			],
			"min":[
				0.041666666666666664
			],
			"type":"SCALAR"
		},
		{
			"bufferView":114,
			"componentType":5126,
			"count":39,
			"type":"VEC3"
		},
		{
			"bufferView":115,
			"componentType":5126,
			"count":39,
			"type":"VEC4"
		},
		{
			"bufferView":116,
			"componentType":5126,
			"count":2,
			"max":[
				1.625
			],
			"min":[
				0.041666666666666664
			],
			"type":"SCALAR"
		},
		{
			"bufferView":117,
			"componentType":5126,
			"count":2,
			"type":"VEC3"
		},
		{
			"bufferView":118,
			"componentType":5126,
			"count":39,
			"type":"VEC3"
		},
		{
			"bufferView":119,
			"componentType":5126,
			"count":39,
			"type":"VEC4"
		},
		{
			"bufferView":120,
			"componentType":5126,
			"count":2,
			"type":"VEC3"
		},
		{
			"bufferView":121,
			"componentType":5126,
			"count":39,
			"type":"VEC3"
		},
		{
			"bufferView":122,
			"componentType":5126,
			"count":39,
			"type":"VEC4"
		},
		{
			"bufferView":123,
			"componentType":5126,
			"count":2,
			"type":"VEC3"
		},
		{
			"bufferView":124,
			"componentType":5126,
			"count":39,
			"type":"VEC3"
		},
		{
			"bufferView":125,
			"componentType":5126,
			"count":39,
			"type":"VEC4"
		},
		{
			"bufferView":126,
			"componentType":5126,
			"count":2,
			"type":"VEC3"
		},
		{
			"bufferView":127,
			"componentType":5126,
			"count":39,
			"type":"VEC3"
		},
		{
			"bufferView":128,
			"componentType":5126,
			"count":39,
			"type":"VEC4"
		},
		{
			"bufferView":129,
			"componentType":5126,
			"count":2,
			"type":"VEC3"
		},
		{
			"bufferView":130,
			"componentType":5126,
			"count":39,
			"type":"VEC3"
		},
		{
			"bufferView":131,
			"componentType":5126,
			"count":39,
			"type":"VEC4"
		},
		{
			"bufferView":132,
			"componentType":5126,
			"count":2,
			"type":"VEC3"
		},
		{
			"bufferView":133,
			"componentType":5126,
			"count":2,
			"type":"VEC3"
		},
		{
			"bufferView":134,
			"componentType":5126,
			"count":39,
			"type":"VEC4"
		},
		{
			"bufferView":135,
			"componentType":5126,
			"count":2,
			"type":"VEC3"
		},
		{
			"bufferView":136,
			"componentType":5126,
			"count":2,
			"type":"VEC3"
		},
		{
			"bufferView":137,
			"componentType":5126,
			"count":39,
			"type":"VEC4"
		},
		{
			"bufferView":138,
			"componentType":5126,
			"count":2,
			"type":"VEC3"
		}
	],
	"bufferViews":[
		{
			"buffer":0,
			"byteLength":2304,
			"byteOffset":0,
			"target":34962
		},
		{
			"buffer":0,
			"byteLength":2304,
			"byteOffset":2304,
			"target":34962
		},
		{
			"buffer":0,
			"byteLength":1536,
			"byteOffset":4608,
			"target":34962
		},
		{
			"buffer":0,
			"byteLength":768,
			"byteOffset":6144,
			"target":34962
		},
		{
			"buffer":0,
			"byteLength":3072,
			"byteOffset":6912,
			"target":34962
		},
		{
			"buffer":0,
			"byteLength":480,
			"byteOffset":9984,
			"target":34963
		},
		{
			"buffer":0,
			"byteLength":512,
			"byteOffset":10464
		},
		{
			"buffer":0,
			"byteLength":2304,
			"byteOffset":10976,
			"target":34962
		},
		{
			"buffer":0,
			"byteLength":2304,
			"byteOffset":13280,
			"target":34962
		},
		{
			"buffer":0,
			"byteLength":1536,
			"byteOffset":15584,
			"target":34962
		},
		{
			"buffer":0,
			"byteLength":768,
			"byteOffset":17120,
			"target":34962
		},
		{
			"buffer":0,
			"byteLength":3072,
			"byteOffset":17888,
			"target":34962
		},
		{
			"buffer":0,
			"byteLength":960,
			"byteOffset":20960,
			"target":34962
		},
		{
			"buffer":0,
			"byteLength":960,
			"byteOffset":21920,
			"target":34962
		},
		{
			"buffer":0,
			"byteLength":640,
			"byteOffset":22880,
			"target":34962
		},
		{
			"buffer":0,
			"byteLength":320,
			"byteOffset":23520,
			"target":34962
		},
		{
			"buffer":0,
			"byteLength":1280,
			"byteOffset":23840,
			"target":34962
		},
		{
			"buffer":0,
			"byteLength":192,
			"byteOffset":25120,
			"target":34963
		},
		{
			"buffer":0,
			"byteLength":960,
			"byteOffset":25312,
			"target":34962
		},
		{
			"buffer":0,
			"byteLength":960,
			"byteOffset":26272,
			"target":34962
		},
		{
			"buffer":0,
			"byteLength":640,
			"byteOffset":27232,
			"target":34962
		},
		{
			"buffer":0,
			"byteLength":320,
			"byteOffset":27872,
			"target":34962
		},
		{
			"buffer":0,
			"byteLength":1280,
			"byteOffset":28192,
			"target":34962
		},
		{
			"buffer":0,
			"byteLength":576,
			"byteOffset":29472,
			"target":34962
		},
		{
			"buffer":0,
			"byteLength":576,
			"byteOffset":30048,
			"target":34962
		},
		{
			"buffer":0,
			"byteLength":384,
			"byteOffset":30624,
			"target":34962
		},
		{
			"buffer":0,
			"byteLength":192,
			"byteOffset":31008,
			"target":34962
		},
		{
			"buffer":0,
			"byteLength":768,
			"byteOffset":31200,
			"target":34962
		},
		{
			"buffer":0,
			"byteLength":144,
			"byteOffset":31968,
			"target":34963
		},
		{
			"buffer":0,
			"byteLength":13128,
			"byteOffset":32112,
			"target":34962
		},
		{
			"buffer":0,
			"byteLength":13128,
			"byteOffset":45240,
			"target":34962
		},
		{
			"buffer":0,
			"byteLength":8752,
			"byteOffset":58368,
			"target":34962
		},
		{
			"buffer":0,
			"byteLength":4376,
			"byteOffset":67120,
			"target":34962
		},
		{
			"buffer":0,
			"byteLength":17504,
			"byteOffset":71496,
			"target":34962
		},
		{
			"buffer":0,
			"byteLength":2784,
			"byteOffset":89000,
			"target":34963
		},
		{
			"buffer":0,
			"byteLength":140,
			"byteOffset":91784
		},
		{
			"buffer":0,
			"byteLength":420,
			"byteOffset":91924
		},
		{
			"buffer":0,
			"byteLength":560,
			"byteOffset":92344
		},
		{
			"buffer":0,
			"byteLength":8,
			"byteOffset":92904
		},
		{
			"buffer":0,
			"byteLength":24,
			"byteOffset":92912
		},
		{
			"buffer":0,
			"byteLength":420,
			"byteOffset":92936
		},
		{
			"buffer":0,
			"byteLength":560,
			"byteOffset":93356
		},
		{
			"buffer":0,
			"byteLength":24,
			"byteOffset":93916
		},
		{
			"buffer":0,
			"byteLength":420,
			"byteOffset":93940
		},
		{
			"buffer":0,
			"byteLength":560,
			"byteOffset":94360
		},
		{
			"buffer":0,
			"byteLength":24,
			"byteOffset":94920
		},
		{
			"buffer":0,
			"byteLength":420,
			"byteOffset":94944
		},
		{
			"buffer":0,
			"byteLength":32,
			"byteOffset":95364
		},
		{
			"buffer":0,
			"byteLength":24,
			"byteOffset":95396
		},
		{
			"buffer":0,
			"byteLength":420,
			"byteOffset":95420
		},
		{
			"buffer":0,
			"byteLength":32,
			"byteOffset":95840
		},
		{
			"buffer":0,
			"byteLength":24,
			"byteOffset":95872
		},
		{
			"buffer":0,
			"byteLength":420,
			"byteOffset":95896
		},
		{
			"buffer":0,
			"byteLength":560,
			"byteOffset":96316
		},
		{
			"buffer":0,
			"byteLength":24,
			"byteOffset":96876
		},
		{
			"buffer":0,
			"byteLength":420,
			"byteOffset":96900
		},
		{
			"buffer":0,
			"byteLength":560,
			"byteOffset":97320
		},
		{
			"buffer":0,
			"byteLength":24,
			"byteOffset":97880
		},
		{
			"buffer":0,
			"byteLength":420,
			"byteOffset":97904
		},
		{
			"buffer":0,
			"byteLength":560,
			"byteOffset":98324
		},
		{
			"buffer":0,
			"byteLength":24,
			"byteOffset":98884
		},
		{
			"buffer":0,
			"byteLength":240,
			"byteOffset":98908
		},
		{
			"buffer":0,
			"byteLength":720,
			"byteOffset":99148
		},
		{
			"buffer":0,
			"byteLength":960,
			"byteOffset":99868
		},
		{
			"buffer":0,
			"byteLength":8,
			"byteOffset":100828
		},
		{
			"buffer":0,
			"byteLength":24,
			"byteOffset":100836
		},
		{
			"buffer":0,
			"byteLength":720,
			"byteOffset":100860
		},
		{
			"buffer":0,
			"byteLength":960,
			"byteOffset":101580
		},
		{
			"buffer":0,
			"byteLength":24,
			"byteOffset":102540
		},
		{
			"buffer":0,
			"byteLength":24,
			"byteOffset":102564
		},
		{
			"buffer":0,
			"byteLength":960,
			"byteOffset":102588
		},
		{
			"buffer":0,
			"byteLength":720,
			"byteOffset":103548
		},
		{
			"buffer":0,
			"byteLength":720,
			"byteOffset":104268
		},
		{
			"buffer":0,
			"byteLength":960,
			"byteOffset":104988
		},
		{
			"buffer":0,
			"byteLength":24,
			"byteOffset":105948
		},
		{
			"buffer":0,
			"byteLength":720,
			"byteOffset":105972
		},
		{
			"buffer":0,
			"byteLength":960,
			"byteOffset":106692
		},
		{
			"buffer":0,
			"byteLength":24,
			"byteOffset":107652
		},
		{
			"buffer":0,
			"byteLength":720,
			"byteOffset":107676
		},
		{
			"buffer":0,
			"byteLength":960,
			"byteOffset":108396
		},
		{
			"buffer":0,
			"byteLength":720,
			"byteOffset":109356
		},
		{
			"buffer":0,
			"byteLength":720,
			"byteOffset":110076
		},
		{
			"buffer":0,
			"byteLength":960,
			"byteOffset":110796
		},
		{
			"buffer":0,
			"byteLength":24,
			"byteOffset":111756
		},
		{
			"buffer":0,
			"byteLength":720,
			"byteOffset":111780
		},
		{
			"buffer":0,
			"byteLength":960,
			"byteOffset":112500
		},
		{
			"buffer":0,
			"byteLength":24,
			"byteOffset":113460
		},
		{
			"buffer":0,
			"byteLength":60,
			"byteOffset":113484
		},
		{
			"buffer":0,
			"byteLength":180,
			"byteOffset":113544
		},
		{
			"buffer":0,
			"byteLength":240,
			"byteOffset":113724
		},
		{
			"buffer":0,
			"byteLength":8,
			"byteOffset":113964
		},
		{
			"buffer":0,
			"byteLength":24,
			"byteOffset":113972
		},
		{
			"buffer":0,
			"byteLength":180,
			"byteOffset":113996
		},
		{
			"buffer":0,
			"byteLength":240,
			"byteOffset":114176
		},
		{
			"buffer":0,
			"byteLength":24,
			"byteOffset":114416
		},
		{
			"buffer":0,
			"byteLength":24,
			"byteOffset":114440
		},
		{
			"buffer":0,
			"byteLength":240,
			"byteOffset":114464
		},
		{
			"buffer":0,
			"byteLength":24,
			"byteOffset":114704
		},
		{
			"buffer":0,
			"byteLength":180,
			"byteOffset":114728
		},
		{
			"buffer":0,
			"byteLength":32,
			"byteOffset":114908
		},
		{
			"buffer":0,
			"byteLength":24,
			"byteOffset":114940
		},
		{
			"buffer":0,
			"byteLength":180,
			"byteOffset":114964
		},
		{
			"buffer":0,
			"byteLength":240,
			"byteOffset":115144
		},
		{
			"buffer":0,
			"byteLength":24,
			"byteOffset":115384
		},
		{
			"buffer":0,
			"byteLength":180,
			"byteOffset":115408
		},
		{
			"buffer":0,
			"byteLength":240,
			"byteOffset":115588
		},
		{
			"buffer":0,
			"byteLength":24,
			"byteOffset":115828
		},
		{
			"buffer":0,
			"byteLength":24,
			"byteOffset":115852
		},
		{
			"buffer":0,
			"byteLength":240,
			"byteOffset":115876
		},
		{
			"buffer":0,
			"byteLength":24,
			"byteOffset":116116
		},
		{
			"buffer":0,
			"byteLength":24,
			"byteOffset":116140
		},
		{
			"buffer":0,
			"byteLength":240,
			"byteOffset":116164
		},
		{
			"buffer":0,
			"byteLength":24,
			"byteOffset":116404
		},
		{
			"buffer":0,
			"byteLength":156,
			"byteOffset":116428
		},
		{
			"buffer":0,
			"byteLength":468,
			"byteOffset":116584
		},
		{
			"buffer":0,
			"byteLength":624,
			"byteOffset":117052
		},
		{
			"buffer":0,
			"byteLength":8,
			"byteOffset":117676
		},
		{
			"buffer":0,
			"byteLength":24,
			"byteOffset":117684
		},
		{
			"buffer":0,
			"byteLength":468,
			"byteOffset":117708
		},
		{
			"buffer":0,
			"byteLength":624,
			"byteOffset":118176
		},
		{
			"buffer":0,
			"byteLength":24,
			"byteOffset":118800
		},
		{
			"buffer":0,
			"byteLength":468,
			"byteOffset":118824
		},
		{
			"buffer":0,
			"byteLength":624,
			"byteOffset":119292
		},
		{
			"buffer":0,
			"byteLength":24,
			"byteOffset":119916
		},
		{
			"buffer":0,
			"byteLength":468,
			"byteOffset":119940
		},
		{
			"buffer":0,
			"byteLength":624,
			"byteOffset":120408
		},
		{
			"buffer":0,
			"byteLength":24,
			"byteOffset":121032
		},
		{
			"buffer":0,
			"byteLength":468,
			"byteOffset":121056
		},
		{
			"buffer":0,
			"byteLength":624,
			"byteOffset":121524
		},
		{
			"buffer":0,
			"byteLength":24,
			"byteOffset":122148
		},
		{
			"buffer":0,
			"byteLength":468,
			"byteOffset":122172
		},
		{
			"buffer":0,
			"byteLength":624,
			"byteOffset":122640
		},
		{
			"buffer":0,
			"byteLength":24,
			"byteOffset":123264
		},
		{
			"buffer":0,
			"byteLength":24,
			"byteOffset":123288
		},
		{
			"buffer":0,
			"byteLength":624,
			"byteOffset":123312
		},
		{
			"buffer":0,
			"byteLength":24,
			"byteOffset":123936
		},
		{
			"buffer":0,
			"byteLength":24,
			"byteOffset":123960
		},
		{
			"buffer":0,
			"byteLength":624,
			"byteOffset":123984
		},
		{
			"buffer":0,
			"byteLength":24,
			"byteOffset":124608
		}
	],
	"samplers":[
		{
			"magFilter":9728,
			"minFilter":9984,
			"wrapS":33071,
			"wrapT":33071
		}
	],
	"buffers":[
		{
			"byteLength":124632,
			"uri":"healer.bin"
		}
	]
}
