{
	"asset":{
		"generator":"Khronos glTF Blender I/O v4.4.56",
		"version":"2.0"
	},
	"scene":0,
	"scenes":[
		{
			"name":"Scene",
			"nodes":[
				46
			]
		}
	],
	"nodes":[
		{
			"name":"arm",
			"rotation":[
				-0.004683042876422405,
				0.011646120809018612,
				0.036193158477544785,
				0.9992659687995911
			],
			"translation":[
				-0.3365110456943512,
				0.13526083528995514,
				-0.41476961970329285
			]
		},
		{
			"name":"arm2",
			"rotation":[
				-0.004683042876422405,
				0.011646120809018612,
				0.036193158477544785,
				0.9992659687995911
			],
			"translation":[
				-0.3779849410057068,
				0.16062766313552856,
				0.3986794352531433
			]
		},
		{
			"name":"cap",
			"rotation":[
				-0.004717743024230003,
				0.001368496916256845,
				0.002178622642531991,
				0.9999855756759644
			],
			"scale":[
				1,
				1,
				0.9999999403953552
			],
			"translation":[
				0.02000095322728157,
				0.5484181642532349,
				0.002700256183743477
			]
		},
		{
			"name":"eye",
			"rotation":[
				-0.7595764398574829,
				0.48390719294548035,
				0.3017362356185913,
				0.3127822279930115
			],
			"scale":[
				0.9999998807907104,
				0.9999995827674866,
				0.9999998211860657
			],
			"translation":[
				-0.2761305570602417,
				0.25792497396469116,
				-0.048156000673770905
			]
		},
		{
			"name":"palm.l",
			"rotation":[
				-0.053622640669345856,
				-9.68793614219976e-08,
				0.08463415503501892,
				0.9949681758880615
			],
			"translation":[
				-1.4901161193847656e-08,
				0.3619653582572937,
				7.450580596923828e-08
			]
		},
		{
			"children":[
				4
			],
			"name":"lowerarm.l",
			"rotation":[
				-0.15719108283519745,
				0.02094726637005806,
				0.40842315554618835,
				0.8989119529724121
			],
			"translation":[
				-4.470348358154297e-08,
				0.423561155796051,
				-1.1175870895385742e-08
			]
		},
		{
			"children":[
				5
			],
			"name":"upperarm.l",
			"rotation":[
				-0.24246995151042938,
				-0.0068902005441486835,
				0.37103497982025146,
				0.896378219127655
			],
			"scale":[
				1,
				0.9999999403953552,
				0.9999998807907104
			],
			"translation":[
				-0.33164486289024353,
				0.37488967180252075,
				-0.4578835070133209
			]
		},
		{
			"name":"palm.r",
			"rotation":[
				-0.050902463495731354,
				0.1459195613861084,
				-0.046203963458538055,
				0.9869050979614258
			],
			"scale":[
				1.0000001192092896,
				1.0000001192092896,
				0.9999998807907104
			],
			"translation":[
				-3.725290298461914e-09,
				0.3473936915397644,
				-2.2351741790771484e-08
			]
		},
		{
			"children":[
				7
			],
			"name":"lowerarm.r",
			"rotation":[
				0.15723419189453125,
				-0.7018870711326599,
				0.3699200451374054,
				0.5880401134490967
			],
			"translation":[
				8.940696716308594e-08,
				0.4360984265804291,
				1.6763806343078613e-08
			]
		},
		{
			"children":[
				8
			],
			"name":"upperarm.r",
			"rotation":[
				-0.030353564769029617,
				0.2562435269355774,
				0.47223231196403503,
				0.8428609371185303
			],
			"scale":[
				0.9999998807907104,
				0.9999999403953552,
				1
			],
			"translation":[
				-0.3729395568370819,
				0.4175768494606018,
				0.36923977732658386
			]
		},
		{
			"name":"backfloater.r",
			"rotation":[
				0.28575199842453003,
				-0.2257329672574997,
				-0.22087571024894714,
				0.9047675728797913
			],
			"scale":[
				0.9999999403953552,
				0.9999999403953552,
				1
			],
			"translation":[
				0.20333927869796753,
				0.5786101818084717,
				0.5294937491416931
			]
		},
		{
			"name":"backfloater.l",
			"rotation":[
				-0.3190810978412628,
				-0.1374357044696808,
				-0.13303503394126892,
				0.9282243251800537
			],
			"scale":[
				0.9999998807907104,
				0.9999998807907104,
				1
			],
			"translation":[
				0.2998403310775757,
				0.5153348445892334,
				-0.46982425451278687
			]
		},
		{
			"children":[
				3,
				6,
				9,
				10,
				11
			],
			"name":"body",
			"rotation":[
				-0.9976500272750854,
				-0.005985237658023834,
				-0.0682518258690834,
				0.0005614626570604742
			],
			"scale":[
				1.0000001192092896,
				0.9999999403953552,
				1
			],
			"translation":[
				0.02000095322728157,
				0.5484181642532349,
				0.002700256183743477
			]
		},
		{
			"mesh":0,
			"name":"bicep",
			"skin":0
		},
		{
			"mesh":1,
			"name":"bicep.001",
			"skin":0
		},
		{
			"name":"Body",
			"rotation":[
				-0.00616310304030776,
				0.010935226455330849,
				-0.09454689919948578,
				0.9954413175582886
			],
			"translation":[
				0.012284412980079651,
				0.5384702682495117,
				0.010750945657491684
			]
		},
		{
			"mesh":2,
			"name":"Body.001",
			"skin":0
		},
		{
			"mesh":3,
			"name":"Clops",
			"skin":0
		},
		{
			"mesh":4,
			"name":"elbow",
			"skin":0
		},
		{
			"mesh":5,
			"name":"elbow.001",
			"skin":0
		},
		{
			"mesh":6,
			"name":"forarm",
			"skin":0
		},
		{
			"mesh":7,
			"name":"forarm.001",
			"skin":0
		},
		{
			"name":"Hand",
			"rotation":[
				-0.7171739935874939,
				-0.13169598579406738,
				-0.02864713966846466,
				0.6837376356124878
			],
			"translation":[
				-1.0237492322921753,
				-0.0005558612756431103,
				-0.6524848937988281
			]
		},
		{
			"mesh":8,
			"name":"hand",
			"skin":0
		},
		{
			"mesh":9,
			"name":"hand.001",
			"skin":0
		},
		{
			"name":"Hand2",
			"rotation":[
				0.709315299987793,
				0.14704450964927673,
				-0.04643092676997185,
				0.6878182291984558
			],
			"translation":[
				-1.0280344486236572,
				0.06545180082321167,
				0.6635480523109436
			]
		},
		{
			"mesh":10,
			"name":"HardHat.001",
			"skin":0
		},
		{
			"name":"LowerArm",
			"rotation":[
				-0.7171739339828491,
				-0.13169600069522858,
				-0.028647184371948242,
				0.6837376952171326
			],
			"translation":[
				-0.6513673067092896,
				-0.1320483535528183,
				-0.5611171126365662
			]
		},
		{
			"name":"LowerArm2",
			"rotation":[
				0.7093152403831482,
				0.14704452455043793,
				-0.04643096402287483,
				0.6878183484077454
			],
			"translation":[
				-0.685673713684082,
				-0.103493332862854,
				0.564733624458313
			]
		},
		{
			"name":"Mob",
			"rotation":[
				-0.006634225137531757,
				0.010655988939106464,
				-0.1378774642944336,
				0.9903697967529297
			],
			"translation":[
				0.012284412980079651,
				0.5384702682495117,
				0.010750945657491684
			]
		},
		{
			"name":"Prong",
			"rotation":[
				-0.7171739935874939,
				-0.13169601559638977,
				-0.028647124767303467,
				0.6837376356124878
			],
			"translation":[
				-1.0861732959747314,
				-0.029115870594978333,
				-0.7143921256065369
			]
		},
		{
			"mesh":11,
			"name":"Prong.003",
			"skin":0
		},
		{
			"mesh":12,
			"name":"Prong.005",
			"skin":0
		},
		{
			"name":"Prong2",
			"rotation":[
				-0.7171739935874939,
				-0.13169601559638977,
				-0.028647124767303467,
				0.6837376356124878
			],
			"translation":[
				-1.1075551509857178,
				-0.0262734554708004,
				-0.6231572031974792
			]
		},
		{
			"name":"Prong3",
			"rotation":[
				-0.7171739935874939,
				-0.13169601559638977,
				-0.028647124767303467,
				0.6837376356124878
			],
			"translation":[
				-1.0776089429855347,
				0.054192252457141876,
				-0.6668131351470947
			]
		},
		{
			"name":"Prong4",
			"rotation":[
				0.709315299987793,
				0.14704452455043793,
				-0.04643090069293976,
				0.6878182291984558
			],
			"translation":[
				-1.113041639328003,
				0.002747749909758568,
				0.7356552481651306
			]
		},
		{
			"name":"Prong5",
			"rotation":[
				0.709315299987793,
				0.14704452455043793,
				-0.04643090069293976,
				0.6878182291984558
			],
			"translation":[
				-1.1385860443115234,
				0.0037385071627795696,
				0.6454578042030334
			]
		},
		{
			"name":"Prong6",
			"rotation":[
				0.709315299987793,
				0.14704452455043793,
				-0.04643090069293976,
				0.6878182291984558
			],
			"translation":[
				-1.1067070960998535,
				0.08506391197443008,
				0.6860440373420715
			]
		},
		{
			"mesh":13,
			"name":"shoulder",
			"skin":0
		},
		{
			"mesh":14,
			"name":"shoulder.001",
			"skin":0
		},
		{
			"name":"SpikeL",
			"rotation":[
				-0.9221367239952087,
				-0.15175572037696838,
				-0.11514695733785629,
				0.33671271800994873
			],
			"translation":[
				0.3417913019657135,
				-0.0895189717411995,
				-0.5374477505683899
			]
		},
		{
			"mesh":15,
			"name":"SpikeL.001",
			"skin":0
		},
		{
			"name":"SpikeR",
			"rotation":[
				-0.006163102574646473,
				0.010935226455330849,
				-0.09454689919948578,
				0.9954413175582886
			],
			"translation":[
				0.24419057369232178,
				0.0002847481518983841,
				0.4669215679168701
			]
		},
		{
			"mesh":16,
			"name":"SpikeR.001",
			"skin":0
		},
		{
			"name":"UpperArm",
			"rotation":[
				-0.004683041945099831,
				0.011646120809018612,
				0.036193158477544785,
				0.9992659687995911
			],
			"translation":[
				-0.3036719858646393,
				0.1201917752623558,
				0.3348674476146698
			]
		},
		{
			"name":"UpperArm2",
			"rotation":[
				-0.004683041945099831,
				0.011646120809018612,
				0.036193158477544785,
				0.9992659687995911
			],
			"translation":[
				-0.37955018877983093,
				0.13025523722171783,
				-0.3512113690376282
			]
		},
		{
			"children":[
				0,
				1,
				13,
				14,
				15,
				16,
				17,
				18,
				19,
				20,
				21,
				22,
				23,
				24,
				25,
				26,
				27,
				28,
				29,
				30,
				31,
				32,
				33,
				34,
				35,
				36,
				37,
				38,
				39,
				40,
				41,
				42,
				43,
				44,
				45,
				2,
				12
			],
			"name":"zaper",
			"rotation":[
				0.007316955830901861,
				-0.01019927579909563,
				0.2023555487394333,
				0.9792317748069763
			],
			"translation":[
				0.15551134943962097,
				0.9385175704956055,
				0.04597710072994232
			]
		}
	],
	"animations":[
		{
			"channels":[
				{
					"sampler":0,
					"target":{
						"node":2,
						"path":"translation"
					}
				},
				{
					"sampler":1,
					"target":{
						"node":2,
						"path":"rotation"
					}
				},
				{
					"sampler":2,
					"target":{
						"node":2,
						"path":"scale"
					}
				},
				{
					"sampler":3,
					"target":{
						"node":12,
						"path":"translation"
					}
				},
				{
					"sampler":4,
					"target":{
						"node":12,
						"path":"rotation"
					}
				},
				{
					"sampler":5,
					"target":{
						"node":12,
						"path":"scale"
					}
				},
				{
					"sampler":6,
					"target":{
						"node":3,
						"path":"translation"
					}
				},
				{
					"sampler":7,
					"target":{
						"node":3,
						"path":"rotation"
					}
				},
				{
					"sampler":8,
					"target":{
						"node":3,
						"path":"scale"
					}
				},
				{
					"sampler":9,
					"target":{
						"node":6,
						"path":"translation"
					}
				},
				{
					"sampler":10,
					"target":{
						"node":6,
						"path":"rotation"
					}
				},
				{
					"sampler":11,
					"target":{
						"node":6,
						"path":"scale"
					}
				},
				{
					"sampler":12,
					"target":{
						"node":5,
						"path":"translation"
					}
				},
				{
					"sampler":13,
					"target":{
						"node":5,
						"path":"rotation"
					}
				},
				{
					"sampler":14,
					"target":{
						"node":5,
						"path":"scale"
					}
				},
				{
					"sampler":15,
					"target":{
						"node":4,
						"path":"translation"
					}
				},
				{
					"sampler":16,
					"target":{
						"node":4,
						"path":"rotation"
					}
				},
				{
					"sampler":17,
					"target":{
						"node":4,
						"path":"scale"
					}
				},
				{
					"sampler":18,
					"target":{
						"node":9,
						"path":"translation"
					}
				},
				{
					"sampler":19,
					"target":{
						"node":9,
						"path":"rotation"
					}
				},
				{
					"sampler":20,
					"target":{
						"node":9,
						"path":"scale"
					}
				},
				{
					"sampler":21,
					"target":{
						"node":8,
						"path":"translation"
					}
				},
				{
					"sampler":22,
					"target":{
						"node":8,
						"path":"rotation"
					}
				},
				{
					"sampler":23,
					"target":{
						"node":8,
						"path":"scale"
					}
				},
				{
					"sampler":24,
					"target":{
						"node":7,
						"path":"translation"
					}
				},
				{
					"sampler":25,
					"target":{
						"node":7,
						"path":"rotation"
					}
				},
				{
					"sampler":26,
					"target":{
						"node":7,
						"path":"scale"
					}
				},
				{
					"sampler":27,
					"target":{
						"node":10,
						"path":"translation"
					}
				},
				{
					"sampler":28,
					"target":{
						"node":10,
						"path":"rotation"
					}
				},
				{
					"sampler":29,
					"target":{
						"node":10,
						"path":"scale"
					}
				},
				{
					"sampler":30,
					"target":{
						"node":11,
						"path":"translation"
					}
				},
				{
					"sampler":31,
					"target":{
						"node":11,
						"path":"rotation"
					}
				},
				{
					"sampler":32,
					"target":{
						"node":11,
						"path":"scale"
					}
				}
			],
			"name":"die",
			"samplers":[
				{
					"input":92,
					"interpolation":"LINEAR",
					"output":93
				},
				{
					"input":92,
					"interpolation":"LINEAR",
					"output":94
				},
				{
					"input":95,
					"interpolation":"STEP",
					"output":96
				},
				{
					"input":92,
					"interpolation":"LINEAR",
					"output":97
				},
				{
					"input":92,
					"interpolation":"LINEAR",
					"output":98
				},
				{
					"input":95,
					"interpolation":"LINEAR",
					"output":99
				},
				{
					"input":95,
					"interpolation":"LINEAR",
					"output":100
				},
				{
					"input":92,
					"interpolation":"LINEAR",
					"output":101
				},
				{
					"input":95,
					"interpolation":"STEP",
					"output":102
				},
				{
					"input":92,
					"interpolation":"LINEAR",
					"output":103
				},
				{
					"input":92,
					"interpolation":"LINEAR",
					"output":104
				},
				{
					"input":95,
					"interpolation":"LINEAR",
					"output":105
				},
				{
					"input":95,
					"interpolation":"LINEAR",
					"output":106
				},
				{
					"input":92,
					"interpolation":"LINEAR",
					"output":107
				},
				{
					"input":95,
					"interpolation":"LINEAR",
					"output":108
				},
				{
					"input":95,
					"interpolation":"LINEAR",
					"output":109
				},
				{
					"input":95,
					"interpolation":"LINEAR",
					"output":110
				},
				{
					"input":95,
					"interpolation":"STEP",
					"output":111
				},
				{
					"input":92,
					"interpolation":"LINEAR",
					"output":112
				},
				{
					"input":92,
					"interpolation":"LINEAR",
					"output":113
				},
				{
					"input":95,
					"interpolation":"STEP",
					"output":114
				},
				{
					"input":95,
					"interpolation":"LINEAR",
					"output":115
				},
				{
					"input":92,
					"interpolation":"LINEAR",
					"output":116
				},
				{
					"input":95,
					"interpolation":"STEP",
					"output":117
				},
				{
					"input":95,
					"interpolation":"LINEAR",
					"output":118
				},
				{
					"input":95,
					"interpolation":"LINEAR",
					"output":119
				},
				{
					"input":95,
					"interpolation":"STEP",
					"output":120
				},
				{
					"input":92,
					"interpolation":"LINEAR",
					"output":121
				},
				{
					"input":92,
					"interpolation":"LINEAR",
					"output":122
				},
				{
					"input":95,
					"interpolation":"STEP",
					"output":123
				},
				{
					"input":92,
					"interpolation":"LINEAR",
					"output":124
				},
				{
					"input":92,
					"interpolation":"LINEAR",
					"output":125
				},
				{
					"input":95,
					"interpolation":"STEP",
					"output":126
				}
			]
		},
		{
			"channels":[
				{
					"sampler":0,
					"target":{
						"node":2,
						"path":"translation"
					}
				},
				{
					"sampler":1,
					"target":{
						"node":2,
						"path":"rotation"
					}
				},
				{
					"sampler":2,
					"target":{
						"node":2,
						"path":"scale"
					}
				},
				{
					"sampler":3,
					"target":{
						"node":12,
						"path":"translation"
					}
				},
				{
					"sampler":4,
					"target":{
						"node":12,
						"path":"rotation"
					}
				},
				{
					"sampler":5,
					"target":{
						"node":12,
						"path":"scale"
					}
				},
				{
					"sampler":6,
					"target":{
						"node":3,
						"path":"translation"
					}
				},
				{
					"sampler":7,
					"target":{
						"node":3,
						"path":"rotation"
					}
				},
				{
					"sampler":8,
					"target":{
						"node":3,
						"path":"scale"
					}
				},
				{
					"sampler":9,
					"target":{
						"node":6,
						"path":"translation"
					}
				},
				{
					"sampler":10,
					"target":{
						"node":6,
						"path":"rotation"
					}
				},
				{
					"sampler":11,
					"target":{
						"node":6,
						"path":"scale"
					}
				},
				{
					"sampler":12,
					"target":{
						"node":5,
						"path":"translation"
					}
				},
				{
					"sampler":13,
					"target":{
						"node":5,
						"path":"rotation"
					}
				},
				{
					"sampler":14,
					"target":{
						"node":5,
						"path":"scale"
					}
				},
				{
					"sampler":15,
					"target":{
						"node":4,
						"path":"translation"
					}
				},
				{
					"sampler":16,
					"target":{
						"node":4,
						"path":"rotation"
					}
				},
				{
					"sampler":17,
					"target":{
						"node":4,
						"path":"scale"
					}
				},
				{
					"sampler":18,
					"target":{
						"node":9,
						"path":"translation"
					}
				},
				{
					"sampler":19,
					"target":{
						"node":9,
						"path":"rotation"
					}
				},
				{
					"sampler":20,
					"target":{
						"node":9,
						"path":"scale"
					}
				},
				{
					"sampler":21,
					"target":{
						"node":8,
						"path":"translation"
					}
				},
				{
					"sampler":22,
					"target":{
						"node":8,
						"path":"rotation"
					}
				},
				{
					"sampler":23,
					"target":{
						"node":8,
						"path":"scale"
					}
				},
				{
					"sampler":24,
					"target":{
						"node":7,
						"path":"translation"
					}
				},
				{
					"sampler":25,
					"target":{
						"node":7,
						"path":"rotation"
					}
				},
				{
					"sampler":26,
					"target":{
						"node":7,
						"path":"scale"
					}
				},
				{
					"sampler":27,
					"target":{
						"node":10,
						"path":"translation"
					}
				},
				{
					"sampler":28,
					"target":{
						"node":10,
						"path":"rotation"
					}
				},
				{
					"sampler":29,
					"target":{
						"node":10,
						"path":"scale"
					}
				},
				{
					"sampler":30,
					"target":{
						"node":11,
						"path":"translation"
					}
				},
				{
					"sampler":31,
					"target":{
						"node":11,
						"path":"rotation"
					}
				},
				{
					"sampler":32,
					"target":{
						"node":11,
						"path":"scale"
					}
				}
			],
			"name":"hurt",
			"samplers":[
				{
					"input":127,
					"interpolation":"LINEAR",
					"output":128
				},
				{
					"input":127,
					"interpolation":"LINEAR",
					"output":129
				},
				{
					"input":130,
					"interpolation":"STEP",
					"output":131
				},
				{
					"input":127,
					"interpolation":"LINEAR",
					"output":132
				},
				{
					"input":127,
					"interpolation":"LINEAR",
					"output":133
				},
				{
					"input":130,
					"interpolation":"STEP",
					"output":134
				},
				{
					"input":127,
					"interpolation":"LINEAR",
					"output":135
				},
				{
					"input":127,
					"interpolation":"LINEAR",
					"output":136
				},
				{
					"input":130,
					"interpolation":"STEP",
					"output":137
				},
				{
					"input":127,
					"interpolation":"LINEAR",
					"output":138
				},
				{
					"input":127,
					"interpolation":"LINEAR",
					"output":139
				},
				{
					"input":130,
					"interpolation":"STEP",
					"output":140
				},
				{
					"input":130,
					"interpolation":"STEP",
					"output":141
				},
				{
					"input":130,
					"interpolation":"STEP",
					"output":142
				},
				{
					"input":130,
					"interpolation":"STEP",
					"output":143
				},
				{
					"input":130,
					"interpolation":"STEP",
					"output":144
				},
				{
					"input":130,
					"interpolation":"STEP",
					"output":145
				},
				{
					"input":130,
					"interpolation":"STEP",
					"output":146
				},
				{
					"input":127,
					"interpolation":"LINEAR",
					"output":147
				},
				{
					"input":127,
					"interpolation":"LINEAR",
					"output":148
				},
				{
					"input":130,
					"interpolation":"STEP",
					"output":149
				},
				{
					"input":130,
					"interpolation":"STEP",
					"output":150
				},
				{
					"input":127,
					"interpolation":"LINEAR",
					"output":151
				},
				{
					"input":130,
					"interpolation":"STEP",
					"output":152
				},
				{
					"input":130,
					"interpolation":"STEP",
					"output":153
				},
				{
					"input":130,
					"interpolation":"STEP",
					"output":154
				},
				{
					"input":130,
					"interpolation":"STEP",
					"output":155
				},
				{
					"input":127,
					"interpolation":"LINEAR",
					"output":156
				},
				{
					"input":130,
					"interpolation":"STEP",
					"output":157
				},
				{
					"input":130,
					"interpolation":"STEP",
					"output":158
				},
				{
					"input":127,
					"interpolation":"LINEAR",
					"output":159
				},
				{
					"input":127,
					"interpolation":"LINEAR",
					"output":160
				},
				{
					"input":130,
					"interpolation":"STEP",
					"output":161
				}
			]
		},
		{
			"channels":[
				{
					"sampler":0,
					"target":{
						"node":2,
						"path":"translation"
					}
				},
				{
					"sampler":1,
					"target":{
						"node":2,
						"path":"rotation"
					}
				},
				{
					"sampler":2,
					"target":{
						"node":2,
						"path":"scale"
					}
				},
				{
					"sampler":3,
					"target":{
						"node":12,
						"path":"translation"
					}
				},
				{
					"sampler":4,
					"target":{
						"node":12,
						"path":"rotation"
					}
				},
				{
					"sampler":5,
					"target":{
						"node":12,
						"path":"scale"
					}
				},
				{
					"sampler":6,
					"target":{
						"node":3,
						"path":"translation"
					}
				},
				{
					"sampler":7,
					"target":{
						"node":3,
						"path":"rotation"
					}
				},
				{
					"sampler":8,
					"target":{
						"node":3,
						"path":"scale"
					}
				},
				{
					"sampler":9,
					"target":{
						"node":6,
						"path":"translation"
					}
				},
				{
					"sampler":10,
					"target":{
						"node":6,
						"path":"rotation"
					}
				},
				{
					"sampler":11,
					"target":{
						"node":6,
						"path":"scale"
					}
				},
				{
					"sampler":12,
					"target":{
						"node":5,
						"path":"translation"
					}
				},
				{
					"sampler":13,
					"target":{
						"node":5,
						"path":"rotation"
					}
				},
				{
					"sampler":14,
					"target":{
						"node":5,
						"path":"scale"
					}
				},
				{
					"sampler":15,
					"target":{
						"node":4,
						"path":"translation"
					}
				},
				{
					"sampler":16,
					"target":{
						"node":4,
						"path":"rotation"
					}
				},
				{
					"sampler":17,
					"target":{
						"node":4,
						"path":"scale"
					}
				},
				{
					"sampler":18,
					"target":{
						"node":9,
						"path":"translation"
					}
				},
				{
					"sampler":19,
					"target":{
						"node":9,
						"path":"rotation"
					}
				},
				{
					"sampler":20,
					"target":{
						"node":9,
						"path":"scale"
					}
				},
				{
					"sampler":21,
					"target":{
						"node":8,
						"path":"translation"
					}
				},
				{
					"sampler":22,
					"target":{
						"node":8,
						"path":"rotation"
					}
				},
				{
					"sampler":23,
					"target":{
						"node":8,
						"path":"scale"
					}
				},
				{
					"sampler":24,
					"target":{
						"node":7,
						"path":"translation"
					}
				},
				{
					"sampler":25,
					"target":{
						"node":7,
						"path":"rotation"
					}
				},
				{
					"sampler":26,
					"target":{
						"node":7,
						"path":"scale"
					}
				},
				{
					"sampler":27,
					"target":{
						"node":10,
						"path":"translation"
					}
				},
				{
					"sampler":28,
					"target":{
						"node":10,
						"path":"rotation"
					}
				},
				{
					"sampler":29,
					"target":{
						"node":10,
						"path":"scale"
					}
				},
				{
					"sampler":30,
					"target":{
						"node":11,
						"path":"translation"
					}
				},
				{
					"sampler":31,
					"target":{
						"node":11,
						"path":"rotation"
					}
				},
				{
					"sampler":32,
					"target":{
						"node":11,
						"path":"scale"
					}
				}
			],
			"name":"idle",
			"samplers":[
				{
					"input":162,
					"interpolation":"LINEAR",
					"output":163
				},
				{
					"input":162,
					"interpolation":"LINEAR",
					"output":164
				},
				{
					"input":165,
					"interpolation":"STEP",
					"output":166
				},
				{
					"input":162,
					"interpolation":"LINEAR",
					"output":167
				},
				{
					"input":162,
					"interpolation":"LINEAR",
					"output":168
				},
				{
					"input":165,
					"interpolation":"STEP",
					"output":169
				},
				{
					"input":162,
					"interpolation":"LINEAR",
					"output":170
				},
				{
					"input":162,
					"interpolation":"LINEAR",
					"output":171
				},
				{
					"input":165,
					"interpolation":"LINEAR",
					"output":172
				},
				{
					"input":162,
					"interpolation":"LINEAR",
					"output":173
				},
				{
					"input":162,
					"interpolation":"LINEAR",
					"output":174
				},
				{
					"input":165,
					"interpolation":"LINEAR",
					"output":175
				},
				{
					"input":165,
					"interpolation":"LINEAR",
					"output":176
				},
				{
					"input":162,
					"interpolation":"LINEAR",
					"output":177
				},
				{
					"input":165,
					"interpolation":"LINEAR",
					"output":178
				},
				{
					"input":165,
					"interpolation":"LINEAR",
					"output":179
				},
				{
					"input":162,
					"interpolation":"LINEAR",
					"output":180
				},
				{
					"input":165,
					"interpolation":"LINEAR",
					"output":181
				},
				{
					"input":162,
					"interpolation":"LINEAR",
					"output":182
				},
				{
					"input":162,
					"interpolation":"LINEAR",
					"output":183
				},
				{
					"input":165,
					"interpolation":"LINEAR",
					"output":184
				},
				{
					"input":165,
					"interpolation":"LINEAR",
					"output":185
				},
				{
					"input":162,
					"interpolation":"LINEAR",
					"output":186
				},
				{
					"input":165,
					"interpolation":"STEP",
					"output":187
				},
				{
					"input":165,
					"interpolation":"LINEAR",
					"output":188
				},
				{
					"input":162,
					"interpolation":"LINEAR",
					"output":189
				},
				{
					"input":165,
					"interpolation":"LINEAR",
					"output":190
				},
				{
					"input":162,
					"interpolation":"LINEAR",
					"output":191
				},
				{
					"input":162,
					"interpolation":"LINEAR",
					"output":192
				},
				{
					"input":165,
					"interpolation":"LINEAR",
					"output":193
				},
				{
					"input":162,
					"interpolation":"LINEAR",
					"output":194
				},
				{
					"input":162,
					"interpolation":"LINEAR",
					"output":195
				},
				{
					"input":165,
					"interpolation":"LINEAR",
					"output":196
				}
			]
		},
		{
			"channels":[
				{
					"sampler":0,
					"target":{
						"node":2,
						"path":"translation"
					}
				},
				{
					"sampler":1,
					"target":{
						"node":2,
						"path":"rotation"
					}
				},
				{
					"sampler":2,
					"target":{
						"node":2,
						"path":"scale"
					}
				},
				{
					"sampler":3,
					"target":{
						"node":12,
						"path":"translation"
					}
				},
				{
					"sampler":4,
					"target":{
						"node":12,
						"path":"rotation"
					}
				},
				{
					"sampler":5,
					"target":{
						"node":12,
						"path":"scale"
					}
				},
				{
					"sampler":6,
					"target":{
						"node":3,
						"path":"translation"
					}
				},
				{
					"sampler":7,
					"target":{
						"node":3,
						"path":"rotation"
					}
				},
				{
					"sampler":8,
					"target":{
						"node":3,
						"path":"scale"
					}
				},
				{
					"sampler":9,
					"target":{
						"node":6,
						"path":"translation"
					}
				},
				{
					"sampler":10,
					"target":{
						"node":6,
						"path":"rotation"
					}
				},
				{
					"sampler":11,
					"target":{
						"node":6,
						"path":"scale"
					}
				},
				{
					"sampler":12,
					"target":{
						"node":5,
						"path":"translation"
					}
				},
				{
					"sampler":13,
					"target":{
						"node":5,
						"path":"rotation"
					}
				},
				{
					"sampler":14,
					"target":{
						"node":5,
						"path":"scale"
					}
				},
				{
					"sampler":15,
					"target":{
						"node":4,
						"path":"translation"
					}
				},
				{
					"sampler":16,
					"target":{
						"node":4,
						"path":"rotation"
					}
				},
				{
					"sampler":17,
					"target":{
						"node":4,
						"path":"scale"
					}
				},
				{
					"sampler":18,
					"target":{
						"node":9,
						"path":"translation"
					}
				},
				{
					"sampler":19,
					"target":{
						"node":9,
						"path":"rotation"
					}
				},
				{
					"sampler":20,
					"target":{
						"node":9,
						"path":"scale"
					}
				},
				{
					"sampler":21,
					"target":{
						"node":8,
						"path":"translation"
					}
				},
				{
					"sampler":22,
					"target":{
						"node":8,
						"path":"rotation"
					}
				},
				{
					"sampler":23,
					"target":{
						"node":8,
						"path":"scale"
					}
				},
				{
					"sampler":24,
					"target":{
						"node":7,
						"path":"translation"
					}
				},
				{
					"sampler":25,
					"target":{
						"node":7,
						"path":"rotation"
					}
				},
				{
					"sampler":26,
					"target":{
						"node":7,
						"path":"scale"
					}
				},
				{
					"sampler":27,
					"target":{
						"node":10,
						"path":"translation"
					}
				},
				{
					"sampler":28,
					"target":{
						"node":10,
						"path":"rotation"
					}
				},
				{
					"sampler":29,
					"target":{
						"node":10,
						"path":"scale"
					}
				},
				{
					"sampler":30,
					"target":{
						"node":11,
						"path":"translation"
					}
				},
				{
					"sampler":31,
					"target":{
						"node":11,
						"path":"rotation"
					}
				},
				{
					"sampler":32,
					"target":{
						"node":11,
						"path":"scale"
					}
				}
			],
			"name":"shoot",
			"samplers":[
				{
					"input":197,
					"interpolation":"LINEAR",
					"output":198
				},
				{
					"input":197,
					"interpolation":"LINEAR",
					"output":199
				},
				{
					"input":200,
					"interpolation":"STEP",
					"output":201
				},
				{
					"input":197,
					"interpolation":"LINEAR",
					"output":202
				},
				{
					"input":197,
					"interpolation":"LINEAR",
					"output":203
				},
				{
					"input":200,
					"interpolation":"STEP",
					"output":204
				},
				{
					"input":197,
					"interpolation":"LINEAR",
					"output":205
				},
				{
					"input":197,
					"interpolation":"LINEAR",
					"output":206
				},
				{
					"input":200,
					"interpolation":"STEP",
					"output":207
				},
				{
					"input":197,
					"interpolation":"LINEAR",
					"output":208
				},
				{
					"input":197,
					"interpolation":"LINEAR",
					"output":209
				},
				{
					"input":200,
					"interpolation":"STEP",
					"output":210
				},
				{
					"input":200,
					"interpolation":"STEP",
					"output":211
				},
				{
					"input":197,
					"interpolation":"LINEAR",
					"output":212
				},
				{
					"input":200,
					"interpolation":"STEP",
					"output":213
				},
				{
					"input":200,
					"interpolation":"STEP",
					"output":214
				},
				{
					"input":197,
					"interpolation":"LINEAR",
					"output":215
				},
				{
					"input":200,
					"interpolation":"STEP",
					"output":216
				},
				{
					"input":197,
					"interpolation":"LINEAR",
					"output":217
				},
				{
					"input":197,
					"interpolation":"LINEAR",
					"output":218
				},
				{
					"input":200,
					"interpolation":"STEP",
					"output":219
				},
				{
					"input":200,
					"interpolation":"STEP",
					"output":220
				},
				{
					"input":197,
					"interpolation":"LINEAR",
					"output":221
				},
				{
					"input":200,
					"interpolation":"STEP",
					"output":222
				},
				{
					"input":200,
					"interpolation":"STEP",
					"output":223
				},
				{
					"input":197,
					"interpolation":"LINEAR",
					"output":224
				},
				{
					"input":200,
					"interpolation":"STEP",
					"output":225
				},
				{
					"input":197,
					"interpolation":"LINEAR",
					"output":226
				},
				{
					"input":197,
					"interpolation":"LINEAR",
					"output":227
				},
				{
					"input":200,
					"interpolation":"STEP",
					"output":228
				},
				{
					"input":197,
					"interpolation":"LINEAR",
					"output":229
				},
				{
					"input":197,
					"interpolation":"LINEAR",
					"output":230
				},
				{
					"input":200,
					"interpolation":"STEP",
					"output":231
				}
			]
		}
	],
	"materials":[
		{
			"alphaCutoff":0.05000000074505806,
			"alphaMode":"MASK",
			"doubleSided":true,
			"name":"Material_0",
			"pbrMetallicRoughness":{
				"baseColorTexture":{
					"index":0
				},
				"metallicFactor":0
			}
		}
	],
	"meshes":[
		{
			"name":"Mesh_6",
			"primitives":[
				{
					"attributes":{
						"POSITION":0,
						"NORMAL":1,
						"TEXCOORD_0":2,
						"JOINTS_0":3,
						"WEIGHTS_0":4
					},
					"indices":5,
					"material":0
				}
			]
		},
		{
			"name":"Mesh_8",
			"primitives":[
				{
					"attributes":{
						"POSITION":7,
						"NORMAL":8,
						"TEXCOORD_0":9,
						"JOINTS_0":10,
						"WEIGHTS_0":11
					},
					"indices":5,
					"material":0
				}
			]
		},
		{
			"name":"Mesh_19",
			"primitives":[
				{
					"attributes":{
						"POSITION":12,
						"NORMAL":13,
						"TEXCOORD_0":14,
						"JOINTS_0":15,
						"WEIGHTS_0":16
					},
					"indices":17,
					"material":0
				}
			]
		},
		{
			"name":"Mesh_20",
			"primitives":[
				{
					"attributes":{
						"POSITION":18,
						"NORMAL":19,
						"TEXCOORD_0":20,
						"JOINTS_0":21,
						"WEIGHTS_0":22
					},
					"indices":5,
					"material":0
				}
			]
		},
		{
			"name":"Mesh_4",
			"primitives":[
				{
					"attributes":{
						"POSITION":23,
						"NORMAL":24,
						"TEXCOORD_0":25,
						"JOINTS_0":26,
						"WEIGHTS_0":27
					},
					"indices":28,
					"material":0
				}
			]
		},
		{
			"name":"Mesh_15",
			"primitives":[
				{
					"attributes":{
						"POSITION":29,
						"NORMAL":30,
						"TEXCOORD_0":31,
						"JOINTS_0":32,
						"WEIGHTS_0":33
					},
					"indices":28,
					"material":0
				}
			]
		},
		{
			"name":"Mesh_5",
			"primitives":[
				{
					"attributes":{
						"POSITION":34,
						"NORMAL":35,
						"TEXCOORD_0":36,
						"JOINTS_0":37,
						"WEIGHTS_0":38
					},
					"indices":5,
					"material":0
				}
			]
		},
		{
			"name":"Mesh_14",
			"primitives":[
				{
					"attributes":{
						"POSITION":39,
						"NORMAL":40,
						"TEXCOORD_0":41,
						"JOINTS_0":42,
						"WEIGHTS_0":43
					},
					"indices":5,
					"material":0
				}
			]
		},
		{
			"name":"Mesh_3",
			"primitives":[
				{
					"attributes":{
						"POSITION":44,
						"NORMAL":45,
						"TEXCOORD_0":46,
						"JOINTS_0":47,
						"WEIGHTS_0":48
					},
					"indices":28,
					"material":0
				}
			]
		},
		{
			"name":"Mesh_13",
			"primitives":[
				{
					"attributes":{
						"POSITION":49,
						"NORMAL":50,
						"TEXCOORD_0":51,
						"JOINTS_0":52,
						"WEIGHTS_0":53
					},
					"indices":28,
					"material":0
				}
			]
		},
		{
			"name":"Mesh_18",
			"primitives":[
				{
					"attributes":{
						"POSITION":54,
						"NORMAL":55,
						"TEXCOORD_0":56,
						"JOINTS_0":57,
						"WEIGHTS_0":58
					},
					"indices":59,
					"material":0
				}
			]
		},
		{
			"name":"Mesh_2",
			"primitives":[
				{
					"attributes":{
						"POSITION":60,
						"NORMAL":61,
						"TEXCOORD_0":62,
						"JOINTS_0":63,
						"WEIGHTS_0":64
					},
					"indices":65,
					"material":0
				}
			]
		},
		{
			"name":"Mesh_11",
			"primitives":[
				{
					"attributes":{
						"POSITION":66,
						"NORMAL":67,
						"TEXCOORD_0":68,
						"JOINTS_0":69,
						"WEIGHTS_0":70
					},
					"indices":65,
					"material":0
				}
			]
		},
		{
			"name":"Mesh_7",
			"primitives":[
				{
					"attributes":{
						"POSITION":71,
						"NORMAL":72,
						"TEXCOORD_0":73,
						"JOINTS_0":74,
						"WEIGHTS_0":75
					},
					"indices":28,
					"material":0
				}
			]
		},
		{
			"name":"Mesh_9",
			"primitives":[
				{
					"attributes":{
						"POSITION":76,
						"NORMAL":77,
						"TEXCOORD_0":78,
						"JOINTS_0":79,
						"WEIGHTS_0":80
					},
					"indices":28,
					"material":0
				}
			]
		},
		{
			"name":"Mesh_16",
			"primitives":[
				{
					"attributes":{
						"POSITION":81,
						"NORMAL":82,
						"TEXCOORD_0":83,
						"JOINTS_0":84,
						"WEIGHTS_0":85
					},
					"indices":86,
					"material":0
				}
			]
		},
		{
			"name":"Mesh_17",
			"primitives":[
				{
					"attributes":{
						"POSITION":87,
						"NORMAL":88,
						"TEXCOORD_0":89,
						"JOINTS_0":90,
						"WEIGHTS_0":91
					},
					"indices":86,
					"material":0
				}
			]
		}
	],
	"textures":[
		{
			"sampler":0,
			"source":0
		}
	],
	"images":[
		{
			"mimeType":"image/png",
			"name":"Image_0",
			"uri":"Image_0.png"
		}
	],
	"skins":[
		{
			"inverseBindMatrices":6,
			"joints":[
				2,
				12,
				3,
				6,
				5,
				4,
				9,
				8,
				7,
				10,
				11
			],
			"name":"zaper"
		}
	],
	"accessors":[
		{
			"bufferView":0,
			"componentType":5126,
			"count":80,
			"max":[
				-0.20310212671756744,
				0.8888168334960938,
				-0.37235018610954285
			],
			"min":[
				-0.3875919580459595,
				0.588237464427948,
				-0.5379623174667358
			],
			"type":"VEC3"
		},
		{
			"bufferView":1,
			"componentType":5126,
			"count":80,
			"type":"VEC3"
		},
		{
			"bufferView":2,
			"componentType":5126,
			"count":80,
			"type":"VEC2"
		},
		{
			"bufferView":3,
			"componentType":5121,
			"count":80,
			"type":"VEC4"
		},
		{
			"bufferView":4,
			"componentType":5126,
			"count":80,
			"type":"VEC4"
		},
		{
			"bufferView":5,
			"componentType":5123,
			"count":96,
			"type":"SCALAR"
		},
		{
			"bufferView":6,
			"componentType":5126,
			"count":11,
			"type":"MAT4"
		},
		{
			"bufferView":7,
			"componentType":5126,
			"count":80,
			"max":[
				-0.265067458152771,
				0.8806588649749756,
				0.6004623174667358
			],
			"min":[
				-0.44955727458000183,
				0.5800794959068298,
				0.43485021591186523
			],
			"type":"VEC3"
		},
		{
			"bufferView":8,
			"componentType":5126,
			"count":80,
			"type":"VEC3"
		},
		{
			"bufferView":9,
			"componentType":5126,
			"count":80,
			"type":"VEC2"
		},
		{
			"bufferView":10,
			"componentType":5121,
			"count":80,
			"type":"VEC4"
		},
		{
			"bufferView":11,
			"componentType":5126,
			"count":80,
			"type":"VEC4"
		},
		{
			"bufferView":12,
			"componentType":5126,
			"count":114,
			"max":[
				0.580112874507904,
				1.6372870206832886,
				0.588039219379425
			],
			"min":[
				-0.47406890988349915,
				0.8066117763519287,
				-0.4677508473396301
			],
			"type":"VEC3"
		},
		{
			"bufferView":13,
			"componentType":5126,
			"count":114,
			"type":"VEC3"
		},
		{
			"bufferView":14,
			"componentType":5126,
			"count":114,
			"type":"VEC2"
		},
		{
			"bufferView":15,
			"componentType":5121,
			"count":114,
			"type":"VEC4"
		},
		{
			"bufferView":16,
			"componentType":5126,
			"count":114,
			"type":"VEC4"
		},
		{
			"bufferView":17,
			"componentType":5123,
			"count":156,
			"type":"SCALAR"
		},
		{
			"bufferView":18,
			"componentType":5126,
			"count":80,
			"max":[
				-0.33911430835723877,
				1.2768269777297974,
				0.25000008940696716
			],
			"min":[
				-0.5897153615951538,
				0.8841886520385742,
				-0.12500004470348358
			],
			"type":"VEC3"
		},
		{
			"bufferView":19,
			"componentType":5126,
			"count":80,
			"type":"VEC3"
		},
		{
			"bufferView":20,
			"componentType":5126,
			"count":80,
			"type":"VEC2"
		},
		{
			"bufferView":21,
			"componentType":5121,
			"count":80,
			"type":"VEC4"
		},
		{
			"bufferView":22,
			"componentType":5126,
			"count":80,
			"type":"VEC4"
		},
		{
			"bufferView":23,
			"componentType":5126,
			"count":112,
			"max":[
				-0.2995315194129944,
				0.6529470086097717,
				-0.4556295871734619
			],
			"min":[
				-0.4614255428314209,
				0.4862750172615051,
				-0.6068708896636963
			],
			"type":"VEC3"
		},
		{
			"bufferView":24,
			"componentType":5126,
			"count":112,
			"type":"VEC3"
		},
		{
			"bufferView":25,
			"componentType":5126,
			"count":112,
			"type":"VEC2"
		},
		{
			"bufferView":26,
			"componentType":5121,
			"count":112,
			"type":"VEC4"
		},
		{
			"bufferView":27,
			"componentType":5126,
			"count":112,
			"type":"VEC4"
		},
		{
			"bufferView":28,
			"componentType":5123,
			"count":144,
			"type":"SCALAR"
		},
		{
			"bufferView":29,
			"componentType":5126,
			"count":112,
			"max":[
				-0.36149683594703674,
				0.6447890400886536,
				0.6693708896636963
			],
			"min":[
				-0.5233908891677856,
				0.47811704874038696,
				0.5181295871734619
			],
			"type":"VEC3"
		},
		{
			"bufferView":30,
			"componentType":5126,
			"count":112,
			"type":"VEC3"
		},
		{
			"bufferView":31,
			"componentType":5126,
			"count":112,
			"type":"VEC2"
		},
		{
			"bufferView":32,
			"componentType":5121,
			"count":112,
			"type":"VEC4"
		},
		{
			"bufferView":33,
			"componentType":5126,
			"count":112,
			"type":"VEC4"
		},
		{
			"bufferView":34,
			"componentType":5126,
			"count":80,
			"max":[
				-0.4190671741962433,
				0.6094443202018738,
				-0.5075038075447083
			],
			"min":[
				-0.7358269095420837,
				0.49867039918899536,
				-0.6589672565460205
			],
			"type":"VEC3"
		},
		{
			"bufferView":35,
			"componentType":5126,
			"count":80,
			"type":"VEC3"
		},
		{
			"bufferView":36,
			"componentType":5126,
			"count":80,
			"type":"VEC2"
		},
		{
			"bufferView":37,
			"componentType":5121,
			"count":80,
			"type":"VEC4"
		},
		{
			"bufferView":38,
			"componentType":5126,
			"count":80,
			"type":"VEC4"
		},
		{
			"bufferView":39,
			"componentType":5126,
			"count":80,
			"max":[
				-0.48103249073028564,
				0.6012863516807556,
				0.7214672565460205
			],
			"min":[
				-0.7977922558784485,
				0.4905124306678772,
				0.5700038075447083
			],
			"type":"VEC3"
		},
		{
			"bufferView":40,
			"componentType":5126,
			"count":80,
			"type":"VEC3"
		},
		{
			"bufferView":41,
			"componentType":5126,
			"count":80,
			"type":"VEC2"
		},
		{
			"bufferView":42,
			"componentType":5121,
			"count":80,
			"type":"VEC4"
		},
		{
			"bufferView":43,
			"componentType":5126,
			"count":80,
			"type":"VEC4"
		},
		{
			"bufferView":44,
			"componentType":5126,
			"count":112,
			"max":[
				-0.6885615587234497,
				0.6364398002624512,
				-0.5428680777549744
			],
			"min":[
				-0.8828340768814087,
				0.43643367290496826,
				-0.7243576645851135
			],
			"type":"VEC3"
		},
		{
			"bufferView":45,
			"componentType":5126,
			"count":112,
			"type":"VEC3"
		},
		{
			"bufferView":46,
			"componentType":5126,
			"count":112,
			"type":"VEC2"
		},
		{
			"bufferView":47,
			"componentType":5121,
			"count":112,
			"type":"VEC4"
		},
		{
			"bufferView":48,
			"componentType":5126,
			"count":112,
			"type":"VEC4"
		},
		{
			"bufferView":49,
			"componentType":5126,
			"count":112,
			"max":[
				-0.7505269050598145,
				0.628281831741333,
				0.7868576645851135
			],
			"min":[
				-0.9447994232177734,
				0.4282757043838501,
				0.6053680777549744
			],
			"type":"VEC3"
		},
		{
			"bufferView":50,
			"componentType":5126,
			"count":112,
			"type":"VEC3"
		},
		{
			"bufferView":51,
			"componentType":5126,
			"count":112,
			"type":"VEC2"
		},
		{
			"bufferView":52,
			"componentType":5121,
			"count":112,
			"type":"VEC4"
		},
		{
			"bufferView":53,
			"componentType":5126,
			"count":112,
			"type":"VEC4"
		},
		{
			"bufferView":54,
			"componentType":5126,
			"count":68,
			"max":[
				0.6641668677330017,
				2.1441874504089355,
				0.8145459890365601
			],
			"min":[
				-0.7282315492630005,
				1.1674686670303345,
				-0.6873874068260193
			],
			"type":"VEC3"
		},
		{
			"bufferView":55,
			"componentType":5126,
			"count":68,
			"type":"VEC3"
		},
		{
			"bufferView":56,
			"componentType":5126,
			"count":68,
			"type":"VEC2"
		},
		{
			"bufferView":57,
			"componentType":5121,
			"count":68,
			"type":"VEC4"
		},
		{
			"bufferView":58,
			"componentType":5126,
			"count":68,
			"type":"VEC4"
		},
		{
			"bufferView":59,
			"componentType":5123,
			"count":90,
			"type":"SCALAR"
		},
		{
			"bufferView":60,
			"componentType":5126,
			"count":48,
			"max":[
				-0.7858220934867859,
				0.6028534173965454,
				-0.5698509216308594
			],
			"min":[
				-1.0000782012939453,
				0.391212522983551,
				-0.7985943555831909
			],
			"type":"VEC3"
		},
		{
			"bufferView":61,
			"componentType":5126,
			"count":48,
			"type":"VEC3"
		},
		{
			"bufferView":62,
			"componentType":5126,
			"count":48,
			"type":"VEC2"
		},
		{
			"bufferView":63,
			"componentType":5121,
			"count":48,
			"type":"VEC4"
		},
		{
			"bufferView":64,
			"componentType":5126,
			"count":48,
			"type":"VEC4"
		},
		{
			"bufferView":65,
			"componentType":5123,
			"count":54,
			"type":"SCALAR"
		},
		{
			"bufferView":66,
			"componentType":5126,
			"count":48,
			"max":[
				-0.8477874994277954,
				0.5946953296661377,
				0.8610944747924805
			],
			"min":[
				-1.0620436668395996,
				0.3830545246601105,
				0.6323508620262146
			],
			"type":"VEC3"
		},
		{
			"bufferView":67,
			"componentType":5126,
			"count":48,
			"type":"VEC3"
		},
		{
			"bufferView":68,
			"componentType":5126,
			"count":48,
			"type":"VEC2"
		},
		{
			"bufferView":69,
			"componentType":5121,
			"count":48,
			"type":"VEC4"
		},
		{
			"bufferView":70,
			"componentType":5126,
			"count":48,
			"type":"VEC4"
		},
		{
			"bufferView":71,
			"componentType":5126,
			"count":112,
			"max":[
				-0.05736178904771805,
				1.041585087776184,
				-0.25000011920928955
			],
			"min":[
				-0.295790433883667,
				0.8031564354896545,
				-0.5000002384185791
			],
			"type":"VEC3"
		},
		{
			"bufferView":72,
			"componentType":5126,
			"count":112,
			"type":"VEC3"
		},
		{
			"bufferView":73,
			"componentType":5126,
			"count":112,
			"type":"VEC2"
		},
		{
			"bufferView":74,
			"componentType":5121,
			"count":112,
			"type":"VEC4"
		},
		{
			"bufferView":75,
			"componentType":5126,
			"count":112,
			"type":"VEC4"
		},
		{
			"bufferView":76,
			"componentType":5126,
			"count":112,
			"max":[
				-0.11932709068059921,
				1.033427119255066,
				0.5625002980232239
			],
			"min":[
				-0.35775572061538696,
				0.7949984669685364,
				0.31250014901161194
			],
			"type":"VEC3"
		},
		{
			"bufferView":77,
			"componentType":5126,
			"count":112,
			"type":"VEC3"
		},
		{
			"bufferView":78,
			"componentType":5126,
			"count":112,
			"type":"VEC2"
		},
		{
			"bufferView":79,
			"componentType":5121,
			"count":112,
			"type":"VEC4"
		},
		{
			"bufferView":80,
			"componentType":5126,
			"count":112,
			"type":"VEC4"
		},
		{
			"bufferView":81,
			"componentType":5126,
			"count":16,
			"max":[
				0.6704607605934143,
				1.1470075845718384,
				-0.3470197916030884
			],
			"min":[
				0.38923412561416626,
				0.8728757500648499,
				-0.6306449174880981
			],
			"type":"VEC3"
		},
		{
			"bufferView":82,
			"componentType":5126,
			"count":16,
			"type":"VEC3"
		},
		{
			"bufferView":83,
			"componentType":5126,
			"count":16,
			"type":"VEC2"
		},
		{
			"bufferView":84,
			"componentType":5121,
			"count":16,
			"type":"VEC4"
		},
		{
			"bufferView":85,
			"componentType":5126,
			"count":16,
			"type":"VEC4"
		},
		{
			"bufferView":86,
			"componentType":5123,
			"count":18,
			"type":"SCALAR"
		},
		{
			"bufferView":87,
			"componentType":5126,
			"count":16,
			"max":[
				0.5396904945373535,
				1.162360668182373,
				0.7456862926483154
			],
			"min":[
				0.2935308516025543,
				0.8749446868896484,
				0.4533703327178955
			],
			"type":"VEC3"
		},
		{
			"bufferView":88,
			"componentType":5126,
			"count":16,
			"type":"VEC3"
		},
		{
			"bufferView":89,
			"componentType":5126,
			"count":16,
			"type":"VEC2"
		},
		{
			"bufferView":90,
			"componentType":5121,
			"count":16,
			"type":"VEC4"
		},
		{
			"bufferView":91,
			"componentType":5126,
			"count":16,
			"type":"VEC4"
		},
		{
			"bufferView":92,
			"componentType":5126,
			"count":29,
			"max":[
				1.2083333333333333
			],
			"min":[
				0.041666666666666664
			],
			"type":"SCALAR"
		},
		{
			"bufferView":93,
			"componentType":5126,
			"count":29,
			"type":"VEC3"
		},
		{
			"bufferView":94,
			"componentType":5126,
			"count":29,
			"type":"VEC4"
		},
		{
			"bufferView":95,
			"componentType":5126,
			"count":2,
			"max":[
				1.2083333333333333
			],
			"min":[
				0.041666666666666664
			],
			"type":"SCALAR"
		},
		{
			"bufferView":96,
			"componentType":5126,
			"count":2,
			"type":"VEC3"
		},
		{
			"bufferView":97,
			"componentType":5126,
			"count":29,
			"type":"VEC3"
		},
		{
			"bufferView":98,
			"componentType":5126,
			"count":29,
			"type":"VEC4"
		},
		{
			"bufferView":99,
			"componentType":5126,
			"count":2,
			"type":"VEC3"
		},
		{
			"bufferView":100,
			"componentType":5126,
			"count":2,
			"type":"VEC3"
		},
		{
			"bufferView":101,
			"componentType":5126,
			"count":29,
			"type":"VEC4"
		},
		{
			"bufferView":102,
			"componentType":5126,
			"count":2,
			"type":"VEC3"
		},
		{
			"bufferView":103,
			"componentType":5126,
			"count":29,
			"type":"VEC3"
		},
		{
			"bufferView":104,
			"componentType":5126,
			"count":29,
			"type":"VEC4"
		},
		{
			"bufferView":105,
			"componentType":5126,
			"count":2,
			"type":"VEC3"
		},
		{
			"bufferView":106,
			"componentType":5126,
			"count":2,
			"type":"VEC3"
		},
		{
			"bufferView":107,
			"componentType":5126,
			"count":29,
			"type":"VEC4"
		},
		{
			"bufferView":108,
			"componentType":5126,
			"count":2,
			"type":"VEC3"
		},
		{
			"bufferView":109,
			"componentType":5126,
			"count":2,
			"type":"VEC3"
		},
		{
			"bufferView":110,
			"componentType":5126,
			"count":2,
			"type":"VEC4"
		},
		{
			"bufferView":111,
			"componentType":5126,
			"count":2,
			"type":"VEC3"
		},
		{
			"bufferView":112,
			"componentType":5126,
			"count":29,
			"type":"VEC3"
		},
		{
			"bufferView":113,
			"componentType":5126,
			"count":29,
			"type":"VEC4"
		},
		{
			"bufferView":114,
			"componentType":5126,
			"count":2,
			"type":"VEC3"
		},
		{
			"bufferView":115,
			"componentType":5126,
			"count":2,
			"type":"VEC3"
		},
		{
			"bufferView":116,
			"componentType":5126,
			"count":29,
			"type":"VEC4"
		},
		{
			"bufferView":117,
			"componentType":5126,
			"count":2,
			"type":"VEC3"
		},
		{
			"bufferView":118,
			"componentType":5126,
			"count":2,
			"type":"VEC3"
		},
		{
			"bufferView":119,
			"componentType":5126,
			"count":2,
			"type":"VEC4"
		},
		{
			"bufferView":120,
			"componentType":5126,
			"count":2,
			"type":"VEC3"
		},
		{
			"bufferView":121,
			"componentType":5126,
			"count":29,
			"type":"VEC3"
		},
		{
			"bufferView":122,
			"componentType":5126,
			"count":29,
			"type":"VEC4"
		},
		{
			"bufferView":123,
			"componentType":5126,
			"count":2,
			"type":"VEC3"
		},
		{
			"bufferView":124,
			"componentType":5126,
			"count":29,
			"type":"VEC3"
		},
		{
			"bufferView":125,
			"componentType":5126,
			"count":29,
			"type":"VEC4"
		},
		{
			"bufferView":126,
			"componentType":5126,
			"count":2,
			"type":"VEC3"
		},
		{
			"bufferView":127,
			"componentType":5126,
			"count":18,
			"max":[
				0.75
			],
			"min":[
				0.041666666666666664
			],
			"type":"SCALAR"
		},
		{
			"bufferView":128,
			"componentType":5126,
			"count":18,
			"type":"VEC3"
		},
		{
			"bufferView":129,
			"componentType":5126,
			"count":18,
			"type":"VEC4"
		},
		{
			"bufferView":130,
			"componentType":5126,
			"count":2,
			"max":[
				0.75
			],
			"min":[
				0.041666666666666664
			],
			"type":"SCALAR"
		},
		{
			"bufferView":131,
			"componentType":5126,
			"count":2,
			"type":"VEC3"
		},
		{
			"bufferView":132,
			"componentType":5126,
			"count":18,
			"type":"VEC3"
		},
		{
			"bufferView":133,
			"componentType":5126,
			"count":18,
			"type":"VEC4"
		},
		{
			"bufferView":134,
			"componentType":5126,
			"count":2,
			"type":"VEC3"
		},
		{
			"bufferView":135,
			"componentType":5126,
			"count":18,
			"type":"VEC3"
		},
		{
			"bufferView":136,
			"componentType":5126,
			"count":18,
			"type":"VEC4"
		},
		{
			"bufferView":137,
			"componentType":5126,
			"count":2,
			"type":"VEC3"
		},
		{
			"bufferView":138,
			"componentType":5126,
			"count":18,
			"type":"VEC3"
		},
		{
			"bufferView":139,
			"componentType":5126,
			"count":18,
			"type":"VEC4"
		},
		{
			"bufferView":140,
			"componentType":5126,
			"count":2,
			"type":"VEC3"
		},
		{
			"bufferView":141,
			"componentType":5126,
			"count":2,
			"type":"VEC3"
		},
		{
			"bufferView":142,
			"componentType":5126,
			"count":2,
			"type":"VEC4"
		},
		{
			"bufferView":143,
			"componentType":5126,
			"count":2,
			"type":"VEC3"
		},
		{
			"bufferView":144,
			"componentType":5126,
			"count":2,
			"type":"VEC3"
		},
		{
			"bufferView":145,
			"componentType":5126,
			"count":2,
			"type":"VEC4"
		},
		{
			"bufferView":146,
			"componentType":5126,
			"count":2,
			"type":"VEC3"
		},
		{
			"bufferView":147,
			"componentType":5126,
			"count":18,
			"type":"VEC3"
		},
		{
			"bufferView":148,
			"componentType":5126,
			"count":18,
			"type":"VEC4"
		},
		{
			"bufferView":149,
			"componentType":5126,
			"count":2,
			"type":"VEC3"
		},
		{
			"bufferView":150,
			"componentType":5126,
			"count":2,
			"type":"VEC3"
		},
		{
			"bufferView":151,
			"componentType":5126,
			"count":18,
			"type":"VEC4"
		},
		{
			"bufferView":152,
			"componentType":5126,
			"count":2,
			"type":"VEC3"
		},
		{
			"bufferView":153,
			"componentType":5126,
			"count":2,
			"type":"VEC3"
		},
		{
			"bufferView":154,
			"componentType":5126,
			"count":2,
			"type":"VEC4"
		},
		{
			"bufferView":155,
			"componentType":5126,
			"count":2,
			"type":"VEC3"
		},
		{
			"bufferView":156,
			"componentType":5126,
			"count":18,
			"type":"VEC3"
		},
		{
			"bufferView":157,
			"componentType":5126,
			"count":2,
			"type":"VEC4"
		},
		{
			"bufferView":158,
			"componentType":5126,
			"count":2,
			"type":"VEC3"
		},
		{
			"bufferView":159,
			"componentType":5126,
			"count":18,
			"type":"VEC3"
		},
		{
			"bufferView":160,
			"componentType":5126,
			"count":18,
			"type":"VEC4"
		},
		{
			"bufferView":161,
			"componentType":5126,
			"count":2,
			"type":"VEC3"
		},
		{
			"bufferView":162,
			"componentType":5126,
			"count":33,
			"max":[
				1.375
			],
			"min":[
				0.041666666666666664
			],
			"type":"SCALAR"
		},
		{
			"bufferView":163,
			"componentType":5126,
			"count":33,
			"type":"VEC3"
		},
		{
			"bufferView":164,
			"componentType":5126,
			"count":33,
			"type":"VEC4"
		},
		{
			"bufferView":165,
			"componentType":5126,
			"count":2,
			"max":[
				1.375
			],
			"min":[
				0.041666666666666664
			],
			"type":"SCALAR"
		},
		{
			"bufferView":166,
			"componentType":5126,
			"count":2,
			"type":"VEC3"
		},
		{
			"bufferView":167,
			"componentType":5126,
			"count":33,
			"type":"VEC3"
		},
		{
			"bufferView":168,
			"componentType":5126,
			"count":33,
			"type":"VEC4"
		},
		{
			"bufferView":169,
			"componentType":5126,
			"count":2,
			"type":"VEC3"
		},
		{
			"bufferView":170,
			"componentType":5126,
			"count":33,
			"type":"VEC3"
		},
		{
			"bufferView":171,
			"componentType":5126,
			"count":33,
			"type":"VEC4"
		},
		{
			"bufferView":172,
			"componentType":5126,
			"count":2,
			"type":"VEC3"
		},
		{
			"bufferView":173,
			"componentType":5126,
			"count":33,
			"type":"VEC3"
		},
		{
			"bufferView":174,
			"componentType":5126,
			"count":33,
			"type":"VEC4"
		},
		{
			"bufferView":175,
			"componentType":5126,
			"count":2,
			"type":"VEC3"
		},
		{
			"bufferView":176,
			"componentType":5126,
			"count":2,
			"type":"VEC3"
		},
		{
			"bufferView":177,
			"componentType":5126,
			"count":33,
			"type":"VEC4"
		},
		{
			"bufferView":178,
			"componentType":5126,
			"count":2,
			"type":"VEC3"
		},
		{
			"bufferView":179,
			"componentType":5126,
			"count":2,
			"type":"VEC3"
		},
		{
			"bufferView":180,
			"componentType":5126,
			"count":33,
			"type":"VEC4"
		},
		{
			"bufferView":181,
			"componentType":5126,
			"count":2,
			"type":"VEC3"
		},
		{
			"bufferView":182,
			"componentType":5126,
			"count":33,
			"type":"VEC3"
		},
		{
			"bufferView":183,
			"componentType":5126,
			"count":33,
			"type":"VEC4"
		},
		{
			"bufferView":184,
			"componentType":5126,
			"count":2,
			"type":"VEC3"
		},
		{
			"bufferView":185,
			"componentType":5126,
			"count":2,
			"type":"VEC3"
		},
		{
			"bufferView":186,
			"componentType":5126,
			"count":33,
			"type":"VEC4"
		},
		{
			"bufferView":187,
			"componentType":5126,
			"count":2,
			"type":"VEC3"
		},
		{
			"bufferView":188,
			"componentType":5126,
			"count":2,
			"type":"VEC3"
		},
		{
			"bufferView":189,
			"componentType":5126,
			"count":33,
			"type":"VEC4"
		},
		{
			"bufferView":190,
			"componentType":5126,
			"count":2,
			"type":"VEC3"
		},
		{
			"bufferView":191,
			"componentType":5126,
			"count":33,
			"type":"VEC3"
		},
		{
			"bufferView":192,
			"componentType":5126,
			"count":33,
			"type":"VEC4"
		},
		{
			"bufferView":193,
			"componentType":5126,
			"count":2,
			"type":"VEC3"
		},
		{
			"bufferView":194,
			"componentType":5126,
			"count":33,
			"type":"VEC3"
		},
		{
			"bufferView":195,
			"componentType":5126,
			"count":33,
			"type":"VEC4"
		},
		{
			"bufferView":196,
			"componentType":5126,
			"count":2,
			"type":"VEC3"
		},
		{
			"bufferView":197,
			"componentType":5126,
			"count":47,
			"max":[
				1.9583333333333333
			],
			"min":[
				0.041666666666666664
			],
			"type":"SCALAR"
		},
		{
			"bufferView":198,
			"componentType":5126,
			"count":47,
			"type":"VEC3"
		},
		{
			"bufferView":199,
			"componentType":5126,
			"count":47,
			"type":"VEC4"
		},
		{
			"bufferView":200,
			"componentType":5126,
			"count":2,
			"max":[
				1.9583333333333333
			],
			"min":[
				0.041666666666666664
			],
			"type":"SCALAR"
		},
		{
			"bufferView":201,
			"componentType":5126,
			"count":2,
			"type":"VEC3"
		},
		{
			"bufferView":202,
			"componentType":5126,
			"count":47,
			"type":"VEC3"
		},
		{
			"bufferView":203,
			"componentType":5126,
			"count":47,
			"type":"VEC4"
		},
		{
			"bufferView":204,
			"componentType":5126,
			"count":2,
			"type":"VEC3"
		},
		{
			"bufferView":205,
			"componentType":5126,
			"count":47,
			"type":"VEC3"
		},
		{
			"bufferView":206,
			"componentType":5126,
			"count":47,
			"type":"VEC4"
		},
		{
			"bufferView":207,
			"componentType":5126,
			"count":2,
			"type":"VEC3"
		},
		{
			"bufferView":208,
			"componentType":5126,
			"count":47,
			"type":"VEC3"
		},
		{
			"bufferView":209,
			"componentType":5126,
			"count":47,
			"type":"VEC4"
		},
		{
			"bufferView":210,
			"componentType":5126,
			"count":2,
			"type":"VEC3"
		},
		{
			"bufferView":211,
			"componentType":5126,
			"count":2,
			"type":"VEC3"
		},
		{
			"bufferView":212,
			"componentType":5126,
			"count":47,
			"type":"VEC4"
		},
		{
			"bufferView":213,
			"componentType":5126,
			"count":2,
			"type":"VEC3"
		},
		{
			"bufferView":214,
			"componentType":5126,
			"count":2,
			"type":"VEC3"
		},
		{
			"bufferView":215,
			"componentType":5126,
			"count":47,
			"type":"VEC4"
		},
		{
			"bufferView":216,
			"componentType":5126,
			"count":2,
			"type":"VEC3"
		},
		{
			"bufferView":217,
			"componentType":5126,
			"count":47,
			"type":"VEC3"
		},
		{
			"bufferView":218,
			"componentType":5126,
			"count":47,
			"type":"VEC4"
		},
		{
			"bufferView":219,
			"componentType":5126,
			"count":2,
			"type":"VEC3"
		},
		{
			"bufferView":220,
			"componentType":5126,
			"count":2,
			"type":"VEC3"
		},
		{
			"bufferView":221,
			"componentType":5126,
			"count":47,
			"type":"VEC4"
		},
		{
			"bufferView":222,
			"componentType":5126,
			"count":2,
			"type":"VEC3"
		},
		{
			"bufferView":223,
			"componentType":5126,
			"count":2,
			"type":"VEC3"
		},
		{
			"bufferView":224,
			"componentType":5126,
			"count":47,
			"type":"VEC4"
		},
		{
			"bufferView":225,
			"componentType":5126,
			"count":2,
			"type":"VEC3"
		},
		{
			"bufferView":226,
			"componentType":5126,
			"count":47,
			"type":"VEC3"
		},
		{
			"bufferView":227,
			"componentType":5126,
			"count":47,
			"type":"VEC4"
		},
		{
			"bufferView":228,
			"componentType":5126,
			"count":2,
			"type":"VEC3"
		},
		{
			"bufferView":229,
			"componentType":5126,
			"count":47,
			"type":"VEC3"
		},
		{
			"bufferView":230,
			"componentType":5126,
			"count":47,
			"type":"VEC4"
		},
		{
			"bufferView":231,
			"componentType":5126,
			"count":2,
			"type":"VEC3"
		}
	],
	"bufferViews":[
		{
			"buffer":0,
			"byteLength":960,
			"byteOffset":0,
			"target":34962
		},
		{
			"buffer":0,
			"byteLength":960,
			"byteOffset":960,
			"target":34962
		},
		{
			"buffer":0,
			"byteLength":640,
			"byteOffset":1920,
			"target":34962
		},
		{
			"buffer":0,
			"byteLength":320,
			"byteOffset":2560,
			"target":34962
		},
		{
			"buffer":0,
			"byteLength":1280,
			"byteOffset":2880,
			"target":34962
		},
		{
			"buffer":0,
			"byteLength":192,
			"byteOffset":4160,
			"target":34963
		},
		{
			"buffer":0,
			"byteLength":704,
			"byteOffset":4352
		},
		{
			"buffer":0,
			"byteLength":960,
			"byteOffset":5056,
			"target":34962
		},
		{
			"buffer":0,
			"byteLength":960,
			"byteOffset":6016,
			"target":34962
		},
		{
			"buffer":0,
			"byteLength":640,
			"byteOffset":6976,
			"target":34962
		},
		{
			"buffer":0,
			"byteLength":320,
			"byteOffset":7616,
			"target":34962
		},
		{
			"buffer":0,
			"byteLength":1280,
			"byteOffset":7936,
			"target":34962
		},
		{
			"buffer":0,
			"byteLength":1368,
			"byteOffset":9216,
			"target":34962
		},
		{
			"buffer":0,
			"byteLength":1368,
			"byteOffset":10584,
			"target":34962
		},
		{
			"buffer":0,
			"byteLength":912,
			"byteOffset":11952,
			"target":34962
		},
		{
			"buffer":0,
			"byteLength":456,
			"byteOffset":12864,
			"target":34962
		},
		{
			"buffer":0,
			"byteLength":1824,
			"byteOffset":13320,
			"target":34962
		},
		{
			"buffer":0,
			"byteLength":312,
			"byteOffset":15144,
			"target":34963
		},
		{
			"buffer":0,
			"byteLength":960,
			"byteOffset":15456,
			"target":34962
		},
		{
			"buffer":0,
			"byteLength":960,
			"byteOffset":16416,
			"target":34962
		},
		{
			"buffer":0,
			"byteLength":640,
			"byteOffset":17376,
			"target":34962
		},
		{
			"buffer":0,
			"byteLength":320,
			"byteOffset":18016,
			"target":34962
		},
		{
			"buffer":0,
			"byteLength":1280,
			"byteOffset":18336,
			"target":34962
		},
		{
			"buffer":0,
			"byteLength":1344,
			"byteOffset":19616,
			"target":34962
		},
		{
			"buffer":0,
			"byteLength":1344,
			"byteOffset":20960,
			"target":34962
		},
		{
			"buffer":0,
			"byteLength":896,
			"byteOffset":22304,
			"target":34962
		},
		{
			"buffer":0,
			"byteLength":448,
			"byteOffset":23200,
			"target":34962
		},
		{
			"buffer":0,
			"byteLength":1792,
			"byteOffset":23648,
			"target":34962
		},
		{
			"buffer":0,
			"byteLength":288,
			"byteOffset":25440,
			"target":34963
		},
		{
			"buffer":0,
			"byteLength":1344,
			"byteOffset":25728,
			"target":34962
		},
		{
			"buffer":0,
			"byteLength":1344,
			"byteOffset":27072,
			"target":34962
		},
		{
			"buffer":0,
			"byteLength":896,
			"byteOffset":28416,
			"target":34962
		},
		{
			"buffer":0,
			"byteLength":448,
			"byteOffset":29312,
			"target":34962
		},
		{
			"buffer":0,
			"byteLength":1792,
			"byteOffset":29760,
			"target":34962
		},
		{
			"buffer":0,
			"byteLength":960,
			"byteOffset":31552,
			"target":34962
		},
		{
			"buffer":0,
			"byteLength":960,
			"byteOffset":32512,
			"target":34962
		},
		{
			"buffer":0,
			"byteLength":640,
			"byteOffset":33472,
			"target":34962
		},
		{
			"buffer":0,
			"byteLength":320,
			"byteOffset":34112,
			"target":34962
		},
		{
			"buffer":0,
			"byteLength":1280,
			"byteOffset":34432,
			"target":34962
		},
		{
			"buffer":0,
			"byteLength":960,
			"byteOffset":35712,
			"target":34962
		},
		{
			"buffer":0,
			"byteLength":960,
			"byteOffset":36672,
			"target":34962
		},
		{
			"buffer":0,
			"byteLength":640,
			"byteOffset":37632,
			"target":34962
		},
		{
			"buffer":0,
			"byteLength":320,
			"byteOffset":38272,
			"target":34962
		},
		{
			"buffer":0,
			"byteLength":1280,
			"byteOffset":38592,
			"target":34962
		},
		{
			"buffer":0,
			"byteLength":1344,
			"byteOffset":39872,
			"target":34962
		},
		{
			"buffer":0,
			"byteLength":1344,
			"byteOffset":41216,
			"target":34962
		},
		{
			"buffer":0,
			"byteLength":896,
			"byteOffset":42560,
			"target":34962
		},
		{
			"buffer":0,
			"byteLength":448,
			"byteOffset":43456,
			"target":34962
		},
		{
			"buffer":0,
			"byteLength":1792,
			"byteOffset":43904,
			"target":34962
		},
		{
			"buffer":0,
			"byteLength":1344,
			"byteOffset":45696,
			"target":34962
		},
		{
			"buffer":0,
			"byteLength":1344,
			"byteOffset":47040,
			"target":34962
		},
		{
			"buffer":0,
			"byteLength":896,
			"byteOffset":48384,
			"target":34962
		},
		{
			"buffer":0,
			"byteLength":448,
			"byteOffset":49280,
			"target":34962
		},
		{
			"buffer":0,
			"byteLength":1792,
			"byteOffset":49728,
			"target":34962
		},
		{
			"buffer":0,
			"byteLength":816,
			"byteOffset":51520,
			"target":34962
		},
		{
			"buffer":0,
			"byteLength":816,
			"byteOffset":52336,
			"target":34962
		},
		{
			"buffer":0,
			"byteLength":544,
			"byteOffset":53152,
			"target":34962
		},
		{
			"buffer":0,
			"byteLength":272,
			"byteOffset":53696,
			"target":34962
		},
		{
			"buffer":0,
			"byteLength":1088,
			"byteOffset":53968,
			"target":34962
		},
		{
			"buffer":0,
			"byteLength":180,
			"byteOffset":55056,
			"target":34963
		},
		{
			"buffer":0,
			"byteLength":576,
			"byteOffset":55236,
			"target":34962
		},
		{
			"buffer":0,
			"byteLength":576,
			"byteOffset":55812,
			"target":34962
		},
		{
			"buffer":0,
			"byteLength":384,
			"byteOffset":56388,
			"target":34962
		},
		{
			"buffer":0,
			"byteLength":192,
			"byteOffset":56772,
			"target":34962
		},
		{
			"buffer":0,
			"byteLength":768,
			"byteOffset":56964,
			"target":34962
		},
		{
			"buffer":0,
			"byteLength":108,
			"byteOffset":57732,
			"target":34963
		},
		{
			"buffer":0,
			"byteLength":576,
			"byteOffset":57840,
			"target":34962
		},
		{
			"buffer":0,
			"byteLength":576,
			"byteOffset":58416,
			"target":34962
		},
		{
			"buffer":0,
			"byteLength":384,
			"byteOffset":58992,
			"target":34962
		},
		{
			"buffer":0,
			"byteLength":192,
			"byteOffset":59376,
			"target":34962
		},
		{
			"buffer":0,
			"byteLength":768,
			"byteOffset":59568,
			"target":34962
		},
		{
			"buffer":0,
			"byteLength":1344,
			"byteOffset":60336,
			"target":34962
		},
		{
			"buffer":0,
			"byteLength":1344,
			"byteOffset":61680,
			"target":34962
		},
		{
			"buffer":0,
			"byteLength":896,
			"byteOffset":63024,
			"target":34962
		},
		{
			"buffer":0,
			"byteLength":448,
			"byteOffset":63920,
			"target":34962
		},
		{
			"buffer":0,
			"byteLength":1792,
			"byteOffset":64368,
			"target":34962
		},
		{
			"buffer":0,
			"byteLength":1344,
			"byteOffset":66160,
			"target":34962
		},
		{
			"buffer":0,
			"byteLength":1344,
			"byteOffset":67504,
			"target":34962
		},
		{
			"buffer":0,
			"byteLength":896,
			"byteOffset":68848,
			"target":34962
		},
		{
			"buffer":0,
			"byteLength":448,
			"byteOffset":69744,
			"target":34962
		},
		{
			"buffer":0,
			"byteLength":1792,
			"byteOffset":70192,
			"target":34962
		},
		{
			"buffer":0,
			"byteLength":192,
			"byteOffset":71984,
			"target":34962
		},
		{
			"buffer":0,
			"byteLength":192,
			"byteOffset":72176,
			"target":34962
		},
		{
			"buffer":0,
			"byteLength":128,
			"byteOffset":72368,
			"target":34962
		},
		{
			"buffer":0,
			"byteLength":64,
			"byteOffset":72496,
			"target":34962
		},
		{
			"buffer":0,
			"byteLength":256,
			"byteOffset":72560,
			"target":34962
		},
		{
			"buffer":0,
			"byteLength":36,
			"byteOffset":72816,
			"target":34963
		},
		{
			"buffer":0,
			"byteLength":192,
			"byteOffset":72852,
			"target":34962
		},
		{
			"buffer":0,
			"byteLength":192,
			"byteOffset":73044,
			"target":34962
		},
		{
			"buffer":0,
			"byteLength":128,
			"byteOffset":73236,
			"target":34962
		},
		{
			"buffer":0,
			"byteLength":64,
			"byteOffset":73364,
			"target":34962
		},
		{
			"buffer":0,
			"byteLength":256,
			"byteOffset":73428,
			"target":34962
		},
		{
			"buffer":0,
			"byteLength":116,
			"byteOffset":73684
		},
		{
			"buffer":0,
			"byteLength":348,
			"byteOffset":73800
		},
		{
			"buffer":0,
			"byteLength":464,
			"byteOffset":74148
		},
		{
			"buffer":0,
			"byteLength":8,
			"byteOffset":74612
		},
		{
			"buffer":0,
			"byteLength":24,
			"byteOffset":74620
		},
		{
			"buffer":0,
			"byteLength":348,
			"byteOffset":74644
		},
		{
			"buffer":0,
			"byteLength":464,
			"byteOffset":74992
		},
		{
			"buffer":0,
			"byteLength":24,
			"byteOffset":75456
		},
		{
			"buffer":0,
			"byteLength":24,
			"byteOffset":75480
		},
		{
			"buffer":0,
			"byteLength":464,
			"byteOffset":75504
		},
		{
			"buffer":0,
			"byteLength":24,
			"byteOffset":75968
		},
		{
			"buffer":0,
			"byteLength":348,
			"byteOffset":75992
		},
		{
			"buffer":0,
			"byteLength":464,
			"byteOffset":76340
		},
		{
			"buffer":0,
			"byteLength":24,
			"byteOffset":76804
		},
		{
			"buffer":0,
			"byteLength":24,
			"byteOffset":76828
		},
		{
			"buffer":0,
			"byteLength":464,
			"byteOffset":76852
		},
		{
			"buffer":0,
			"byteLength":24,
			"byteOffset":77316
		},
		{
			"buffer":0,
			"byteLength":24,
			"byteOffset":77340
		},
		{
			"buffer":0,
			"byteLength":32,
			"byteOffset":77364
		},
		{
			"buffer":0,
			"byteLength":24,
			"byteOffset":77396
		},
		{
			"buffer":0,
			"byteLength":348,
			"byteOffset":77420
		},
		{
			"buffer":0,
			"byteLength":464,
			"byteOffset":77768
		},
		{
			"buffer":0,
			"byteLength":24,
			"byteOffset":78232
		},
		{
			"buffer":0,
			"byteLength":24,
			"byteOffset":78256
		},
		{
			"buffer":0,
			"byteLength":464,
			"byteOffset":78280
		},
		{
			"buffer":0,
			"byteLength":24,
			"byteOffset":78744
		},
		{
			"buffer":0,
			"byteLength":24,
			"byteOffset":78768
		},
		{
			"buffer":0,
			"byteLength":32,
			"byteOffset":78792
		},
		{
			"buffer":0,
			"byteLength":24,
			"byteOffset":78824
		},
		{
			"buffer":0,
			"byteLength":348,
			"byteOffset":78848
		},
		{
			"buffer":0,
			"byteLength":464,
			"byteOffset":79196
		},
		{
			"buffer":0,
			"byteLength":24,
			"byteOffset":79660
		},
		{
			"buffer":0,
			"byteLength":348,
			"byteOffset":79684
		},
		{
			"buffer":0,
			"byteLength":464,
			"byteOffset":80032
		},
		{
			"buffer":0,
			"byteLength":24,
			"byteOffset":80496
		},
		{
			"buffer":0,
			"byteLength":72,
			"byteOffset":80520
		},
		{
			"buffer":0,
			"byteLength":216,
			"byteOffset":80592
		},
		{
			"buffer":0,
			"byteLength":288,
			"byteOffset":80808
		},
		{
			"buffer":0,
			"byteLength":8,
			"byteOffset":81096
		},
		{
			"buffer":0,
			"byteLength":24,
			"byteOffset":81104
		},
		{
			"buffer":0,
			"byteLength":216,
			"byteOffset":81128
		},
		{
			"buffer":0,
			"byteLength":288,
			"byteOffset":81344
		},
		{
			"buffer":0,
			"byteLength":24,
			"byteOffset":81632
		},
		{
			"buffer":0,
			"byteLength":216,
			"byteOffset":81656
		},
		{
			"buffer":0,
			"byteLength":288,
			"byteOffset":81872
		},
		{
			"buffer":0,
			"byteLength":24,
			"byteOffset":82160
		},
		{
			"buffer":0,
			"byteLength":216,
			"byteOffset":82184
		},
		{
			"buffer":0,
			"byteLength":288,
			"byteOffset":82400
		},
		{
			"buffer":0,
			"byteLength":24,
			"byteOffset":82688
		},
		{
			"buffer":0,
			"byteLength":24,
			"byteOffset":82712
		},
		{
			"buffer":0,
			"byteLength":32,
			"byteOffset":82736
		},
		{
			"buffer":0,
			"byteLength":24,
			"byteOffset":82768
		},
		{
			"buffer":0,
			"byteLength":24,
			"byteOffset":82792
		},
		{
			"buffer":0,
			"byteLength":32,
			"byteOffset":82816
		},
		{
			"buffer":0,
			"byteLength":24,
			"byteOffset":82848
		},
		{
			"buffer":0,
			"byteLength":216,
			"byteOffset":82872
		},
		{
			"buffer":0,
			"byteLength":288,
			"byteOffset":83088
		},
		{
			"buffer":0,
			"byteLength":24,
			"byteOffset":83376
		},
		{
			"buffer":0,
			"byteLength":24,
			"byteOffset":83400
		},
		{
			"buffer":0,
			"byteLength":288,
			"byteOffset":83424
		},
		{
			"buffer":0,
			"byteLength":24,
			"byteOffset":83712
		},
		{
			"buffer":0,
			"byteLength":24,
			"byteOffset":83736
		},
		{
			"buffer":0,
			"byteLength":32,
			"byteOffset":83760
		},
		{
			"buffer":0,
			"byteLength":24,
			"byteOffset":83792
		},
		{
			"buffer":0,
			"byteLength":216,
			"byteOffset":83816
		},
		{
			"buffer":0,
			"byteLength":32,
			"byteOffset":84032
		},
		{
			"buffer":0,
			"byteLength":24,
			"byteOffset":84064
		},
		{
			"buffer":0,
			"byteLength":216,
			"byteOffset":84088
		},
		{
			"buffer":0,
			"byteLength":288,
			"byteOffset":84304
		},
		{
			"buffer":0,
			"byteLength":24,
			"byteOffset":84592
		},
		{
			"buffer":0,
			"byteLength":132,
			"byteOffset":84616
		},
		{
			"buffer":0,
			"byteLength":396,
			"byteOffset":84748
		},
		{
			"buffer":0,
			"byteLength":528,
			"byteOffset":85144
		},
		{
			"buffer":0,
			"byteLength":8,
			"byteOffset":85672
		},
		{
			"buffer":0,
			"byteLength":24,
			"byteOffset":85680
		},
		{
			"buffer":0,
			"byteLength":396,
			"byteOffset":85704
		},
		{
			"buffer":0,
			"byteLength":528,
			"byteOffset":86100
		},
		{
			"buffer":0,
			"byteLength":24,
			"byteOffset":86628
		},
		{
			"buffer":0,
			"byteLength":396,
			"byteOffset":86652
		},
		{
			"buffer":0,
			"byteLength":528,
			"byteOffset":87048
		},
		{
			"buffer":0,
			"byteLength":24,
			"byteOffset":87576
		},
		{
			"buffer":0,
			"byteLength":396,
			"byteOffset":87600
		},
		{
			"buffer":0,
			"byteLength":528,
			"byteOffset":87996
		},
		{
			"buffer":0,
			"byteLength":24,
			"byteOffset":88524
		},
		{
			"buffer":0,
			"byteLength":24,
			"byteOffset":88548
		},
		{
			"buffer":0,
			"byteLength":528,
			"byteOffset":88572
		},
		{
			"buffer":0,
			"byteLength":24,
			"byteOffset":89100
		},
		{
			"buffer":0,
			"byteLength":24,
			"byteOffset":89124
		},
		{
			"buffer":0,
			"byteLength":528,
			"byteOffset":89148
		},
		{
			"buffer":0,
			"byteLength":24,
			"byteOffset":89676
		},
		{
			"buffer":0,
			"byteLength":396,
			"byteOffset":89700
		},
		{
			"buffer":0,
			"byteLength":528,
			"byteOffset":90096
		},
		{
			"buffer":0,
			"byteLength":24,
			"byteOffset":90624
		},
		{
			"buffer":0,
			"byteLength":24,
			"byteOffset":90648
		},
		{
			"buffer":0,
			"byteLength":528,
			"byteOffset":90672
		},
		{
			"buffer":0,
			"byteLength":24,
			"byteOffset":91200
		},
		{
			"buffer":0,
			"byteLength":24,
			"byteOffset":91224
		},
		{
			"buffer":0,
			"byteLength":528,
			"byteOffset":91248
		},
		{
			"buffer":0,
			"byteLength":24,
			"byteOffset":91776
		},
		{
			"buffer":0,
			"byteLength":396,
			"byteOffset":91800
		},
		{
			"buffer":0,
			"byteLength":528,
			"byteOffset":92196
		},
		{
			"buffer":0,
			"byteLength":24,
			"byteOffset":92724
		},
		{
			"buffer":0,
			"byteLength":396,
			"byteOffset":92748
		},
		{
			"buffer":0,
			"byteLength":528,
			"byteOffset":93144
		},
		{
			"buffer":0,
			"byteLength":24,
			"byteOffset":93672
		},
		{
			"buffer":0,
			"byteLength":188,
			"byteOffset":93696
		},
		{
			"buffer":0,
			"byteLength":564,
			"byteOffset":93884
		},
		{
			"buffer":0,
			"byteLength":752,
			"byteOffset":94448
		},
		{
			"buffer":0,
			"byteLength":8,
			"byteOffset":95200
		},
		{
			"buffer":0,
			"byteLength":24,
			"byteOffset":95208
		},
		{
			"buffer":0,
			"byteLength":564,
			"byteOffset":95232
		},
		{
			"buffer":0,
			"byteLength":752,
			"byteOffset":95796
		},
		{
			"buffer":0,
			"byteLength":24,
			"byteOffset":96548
		},
		{
			"buffer":0,
			"byteLength":564,
			"byteOffset":96572
		},
		{
			"buffer":0,
			"byteLength":752,
			"byteOffset":97136
		},
		{
			"buffer":0,
			"byteLength":24,
			"byteOffset":97888
		},
		{
			"buffer":0,
			"byteLength":564,
			"byteOffset":97912
		},
		{
			"buffer":0,
			"byteLength":752,
			"byteOffset":98476
		},
		{
			"buffer":0,
			"byteLength":24,
			"byteOffset":99228
		},
		{
			"buffer":0,
			"byteLength":24,
			"byteOffset":99252
		},
		{
			"buffer":0,
			"byteLength":752,
			"byteOffset":99276
		},
		{
			"buffer":0,
			"byteLength":24,
			"byteOffset":100028
		},
		{
			"buffer":0,
			"byteLength":24,
			"byteOffset":100052
		},
		{
			"buffer":0,
			"byteLength":752,
			"byteOffset":100076
		},
		{
			"buffer":0,
			"byteLength":24,
			"byteOffset":100828
		},
		{
			"buffer":0,
			"byteLength":564,
			"byteOffset":100852
		},
		{
			"buffer":0,
			"byteLength":752,
			"byteOffset":101416
		},
		{
			"buffer":0,
			"byteLength":24,
			"byteOffset":102168
		},
		{
			"buffer":0,
			"byteLength":24,
			"byteOffset":102192
		},
		{
			"buffer":0,
			"byteLength":752,
			"byteOffset":102216
		},
		{
			"buffer":0,
			"byteLength":24,
			"byteOffset":102968
		},
		{
			"buffer":0,
			"byteLength":24,
			"byteOffset":102992
		},
		{
			"buffer":0,
			"byteLength":752,
			"byteOffset":103016
		},
		{
			"buffer":0,
			"byteLength":24,
			"byteOffset":103768
		},
		{
			"buffer":0,
			"byteLength":564,
			"byteOffset":103792
		},
		{
			"buffer":0,
			"byteLength":752,
			"byteOffset":104356
		},
		{
			"buffer":0,
			"byteLength":24,
			"byteOffset":105108
		},
		{
			"buffer":0,
			"byteLength":564,
			"byteOffset":105132
		},
		{
			"buffer":0,
			"byteLength":752,
			"byteOffset":105696
		},
		{
			"buffer":0,
			"byteLength":24,
			"byteOffset":106448
		}
	],
	"samplers":[
		{
			"magFilter":9728,
			"minFilter":9984,
			"wrapS":33071,
			"wrapT":33071
		}
	],
	"buffers":[
		{
			"byteLength":106472,
			"uri":"zaper.bin"
		}
	]
}
