{"asset":{"version":"2.0","generator":"Blockbench 4.12.5 glTF exporter"},"scenes":[{"nodes":[1],"name":"blockbench_export"}],"scene":0,"nodes":[{"translation":[0,0.5,0],"name":"sphere","mesh":0},{"children":[0]}],"bufferViews":[{"buffer":0,"byteOffset":0,"byteLength":5760,"target":34962,"byteStride":12},{"buffer":0,"byteOffset":5760,"byteLength":5760,"target":34962,"byteStride":12},{"buffer":0,"byteOffset":11520,"byteLength":3840,"target":34962,"byteStride":8},{"buffer":0,"byteOffset":15360,"byteLength":1344,"target":34963}],"buffers":[{"byteLength":16704,"uri":"data:application/octet-stream;base64,"}],"accessors":[{"bufferView":0,"componentType":5126,"count":480,"max":[0.6494397521018982,0.5244397521018982,0.6494397521018982],"min":[-0.5869397521018982,-0.5625,-0.625],"type":"VEC3"},{"bufferView":1,"componentType":5126,"count":480,"max":[0.9760337471961975,0.997521162033081,0.9936424493789673],"min":[-0.9919412136077881,-0.9885265231132507,-0.9820854067802429],"type":"VEC3"},{"bufferView":2,"componentType":5126,"count":480,"max":[0.7031180262565613,0.5870632529258728],"min":[0.00027984968619421124,0],"type":"VEC2"},{"bufferView":3,"componentType":5123,"count":672,"max":[479],"min":[0],"type":"SCALAR"}],"materials":[{"pbrMetallicRoughness":{"metallicFactor":0,"roughnessFactor":1,"baseColorTexture":{"index":0}},"alphaMode":"MASK","alphaCutoff":0.05,"doubleSided":true}],"textures":[{"sampler":0,"source":0,"name":"texture"}],"samplers":[{"magFilter":9728,"minFilter":9728,"wrapS":33071,"wrapT":33071}],"images":[{"mimeType":"image/png","uri":"data:image/png;base64,"}],"meshes":[{"primitives":[{"mode":4,"attributes":{"POSITION":0,"NORMAL":1,"TEXCOORD_0":2},"indices":3,"material":0}]}]}