{"asset":{"version":"2.0","generator":"Blockbench 4.12.5 glTF exporter"},"scenes":[{"nodes":[8],"name":"blockbench_export"}],"scene":0,"nodes":[{"translation":[0.015625,0.08750000000000013,-0.024999999999999967],"name":"RocketLauncher","mesh":0},{"name":"Base","mesh":1},{"translation":[0,0,-0.046875],"name":"RocketLauncherTop","children":[0,1]},{"rotation":[0,0,0.19509032201612825,0.9807852804032304],"translation":[-0.1484375,0.15937500000000004,-0.22968749999999993],"name":"BallJoint","mesh":2},{"rotation":[0,0,0.13052619222005157,0.9914448613738104],"translation":[-0.15468749999999998,0.13593750000000004,-0.22968749999999993],"name":"UpperAttachmentArm","mesh":3},{"rotation":[-0.42101008393662825,0.036833626052166585,0.30997554783255366,0.8516507223982321],"translation":[0.12187499999999996,-0.059374999999999956,0.0703125],"name":"UpperAttachmentArm","mesh":4},{"translation":[0.21250000000000002,-0.31562500000000004,0.17812499999999998],"name":"AttachmentArm","children":[3,4,5]},{"rotation":[0,-1,0,6.123233995736766e-17],"translation":[0.5390625,1.9734375,0.459375],"name":"RocketLauncher","children":[2,6]},{"children":[7]}],"bufferViews":[{"buffer":0,"byteOffset":0,"byteLength":1344,"target":34962,"byteStride":12},{"buffer":0,"byteOffset":1344,"byteLength":1344,"target":34962,"byteStride":12},{"buffer":0,"byteOffset":2688,"byteLength":896,"target":34962,"byteStride":8},{"buffer":0,"byteOffset":3584,"byteLength":312,"target":34963},{"buffer":0,"byteOffset":3896,"byteLength":960,"target":34962,"byteStride":12},{"buffer":0,"byteOffset":4856,"byteLength":960,"target":34962,"byteStride":12},{"buffer":0,"byteOffset":5816,"byteLength":640,"target":34962,"byteStride":8},{"buffer":0,"byteOffset":6456,"byteLength":192,"target":34963},{"buffer":0,"byteOffset":6648,"byteLength":720,"target":34962,"byteStride":12},{"buffer":0,"byteOffset":7368,"byteLength":720,"target":34962,"byteStride":12},{"buffer":0,"byteOffset":8088,"byteLength":480,"target":34962,"byteStride":8},{"buffer":0,"byteOffset":8568,"byteLength":144,"target":34963},{"buffer":0,"byteOffset":8712,"byteLength":720,"target":34962,"byteStride":12},{"buffer":0,"byteOffset":9432,"byteLength":720,"target":34962,"byteStride":12},{"buffer":0,"byteOffset":10152,"byteLength":480,"target":34962,"byteStride":8},{"buffer":0,"byteOffset":10632,"byteLength":144,"target":34963},{"buffer":0,"byteOffset":10776,"byteLength":720,"target":34962,"byteStride":12},{"buffer":0,"byteOffset":11496,"byteLength":720,"target":34962,"byteStride":12},{"buffer":0,"byteOffset":12216,"byteLength":480,"target":34962,"byteStride":8},{"buffer":0,"byteOffset":12696,"byteLength":144,"target":34963}],"buffers":[{"byteLength":12840,"uri":"data:application/octet-stream;base64,"}],"accessors":[{"bufferView":0,"componentType":5126,"count":112,"max":[0.28125,0.3125,0.234375],"min":[-0.28125,0,-0.28125],"type":"VEC3"},{"bufferView":1,"componentType":5126,"count":112,"max":[1,1,1],"min":[-1,-1,-1],"type":"VEC3"},{"bufferView":2,"componentType":5126,"count":112,"max":[0.484375,0.53125],"min":[0,0],"type":"VEC2"},{"bufferView":3,"componentType":5123,"count":156,"max":[111],"min":[0],"type":"SCALAR"},{"bufferView":4,"componentType":5126,"count":80,"max":[0.1875,0.3125,0.1875],"min":[-0.1875,0,-0.1875],"type":"VEC3"},{"bufferView":5,"componentType":5126,"count":80,"max":[1,1,1],"min":[-1,-1,-1],"type":"VEC3"},{"bufferView":6,"componentType":5126,"count":80,"max":[0.375,0.421875],"min":[0,0],"type":"VEC2"},{"bufferView":7,"componentType":5123,"count":96,"max":[79],"min":[0],"type":"SCALAR"},{"bufferView":8,"componentType":5126,"count":60,"max":[0.09062500298023224,0.07968749850988388,0.07231562584638596],"min":[-0.09062500298023224,-0.07968749850988388,-0.07231562584638596],"type":"VEC3"},{"bufferView":9,"componentType":5126,"count":60,"max":[0.84739089012146,0.8876400589942932,1],"min":[-0.84739089012146,-0.8876400589942932,-1],"type":"VEC3"},{"bufferView":10,"componentType":5126,"count":60,"max":[0.515625,0.458984375],"min":[0.0009376562666147947,0.046875],"type":"VEC2"},{"bufferView":11,"componentType":5123,"count":72,"max":[59],"min":[0],"type":"SCALAR"},{"bufferView":12,"componentType":5126,"count":60,"max":[0.0409187488257885,0.375,0.046875],"min":[-0.0409187488257885,0,-0.046875],"type":"VEC3"},{"bufferView":13,"componentType":5126,"count":60,"max":[0.9165047407150269,1,1],"min":[-0.9165047407150269,-1,-1],"type":"VEC3"},{"bufferView":14,"componentType":5126,"count":60,"max":[0.5053468942642212,0.5078125],"min":[0.0317624993622303,0],"type":"VEC2"},{"bufferView":15,"componentType":5123,"count":72,"max":[59],"min":[0],"type":"SCALAR"},{"bufferView":16,"componentType":5126,"count":60,"max":[0.03935625031590462,0.4140625,0.02656250074505806],"min":[-0.03935625031590462,-0.0390625,-0.02656250074505806],"type":"VEC3"},{"bufferView":17,"componentType":5126,"count":60,"max":[0.8035253882408142,1,1],"min":[-0.8035253882408142,-1,-1],"type":"VEC3"},{"bufferView":18,"componentType":5126,"count":60,"max":[0.5049562454223633,0.5],"min":[0.09375,0.06289064884185791],"type":"VEC2"},{"bufferView":19,"componentType":5123,"count":72,"max":[59],"min":[0],"type":"SCALAR"}],"materials":[{"pbrMetallicRoughness":{"metallicFactor":0,"roughnessFactor":1,"baseColorTexture":{"index":0}},"alphaMode":"MASK","alphaCutoff":0.05,"doubleSided":true}],"textures":[{"sampler":0,"source":0,"name":"RocketLauncher.png"}],"samplers":[{"magFilter":9728,"minFilter":9728,"wrapS":33071,"wrapT":33071}],"images":[{"mimeType":"image/png","uri":"data:image/png;base64,"}],"meshes":[{"primitives":[{"mode":4,"attributes":{"POSITION":0,"NORMAL":1,"TEXCOORD_0":2},"indices":3,"material":0}]},{"primitives":[{"mode":4,"attributes":{"POSITION":4,"NORMAL":5,"TEXCOORD_0":6},"indices":7,"material":0}]},{"primitives":[{"mode":4,"attributes":{"POSITION":8,"NORMAL":9,"TEXCOORD_0":10},"indices":11,"material":0}]},{"primitives":[{"mode":4,"attributes":{"POSITION":12,"NORMAL":13,"TEXCOORD_0":14},"indices":15,"material":0}]},{"primitives":[{"mode":4,"attributes":{"POSITION":16,"NORMAL":17,"TEXCOORD_0":18},"indices":19,"material":0}]}]}