{"asset":{"version":"2.0","generator":"Blockbench 4.12.5 glTF exporter"},"scenes":[{"nodes":[9],"name":"blockbench_export"}],"scene":0,"nodes":[{"translation":[0.171875,0.09375,0],"name":"Body","mesh":0},{"translation":[-0.0625,0,0],"name":"Grip","mesh":1},{"rotation":[-1,0,0,6.123233995736766e-17],"translation":[0.4375,0.375,0],"name":"Pad","mesh":2},{"rotation":[-0.7223639620597556,0.6915130557822694,4.234296251661806e-17,4.4232035697794e-17],"translation":[0.90625,0.3125,0],"name":"Stock","mesh":3},{"rotation":[0,0,0.7071067811865475,0.7071067811865476],"translation":[-0.265625,0.21875,0],"name":"barrel","mesh":4},{"translation":[-0.265625,0.015625,0],"name":"thing","mesh":5},{"rotation":[0,0,-1,6.123233995736766e-17],"translation":[-0.46875,0.25,0],"name":"sight","mesh":6},{"rotation":[0,0,0.7071067811865475,0.7071067811865476],"translation":[0.8125,0.1875,0],"name":"stock","mesh":7},{"rotation":[0.021023146888890766,-0.0619321936312845,0.32075123873380534,0.9449026794001775],"translation":[-0.65625,0.71875,-0.59375],"name":"Rifle","children":[0,1,2,3,4,5,6,7]},{"children":[8]}],"bufferViews":[{"buffer":0,"byteOffset":0,"byteLength":480,"target":34962,"byteStride":12},{"buffer":0,"byteOffset":480,"byteLength":480,"target":34962,"byteStride":12},{"buffer":0,"byteOffset":960,"byteLength":320,"target":34962,"byteStride":8},{"buffer":0,"byteOffset":1280,"byteLength":120,"target":34963},{"buffer":0,"byteOffset":1400,"byteLength":912,"target":34962,"byteStride":12},{"buffer":0,"byteOffset":2312,"byteLength":912,"target":34962,"byteStride":12},{"buffer":0,"byteOffset":3224,"byteLength":608,"target":34962,"byteStride":8},{"buffer":0,"byteOffset":3832,"byteLength":216,"target":34963},{"buffer":0,"byteOffset":4048,"byteLength":912,"target":34962,"byteStride":12},{"buffer":0,"byteOffset":4960,"byteLength":912,"target":34962,"byteStride":12},{"buffer":0,"byteOffset":5872,"byteLength":608,"target":34962,"byteStride":8},{"buffer":0,"byteOffset":6480,"byteLength":216,"target":34963},{"buffer":0,"byteOffset":6696,"byteLength":912,"target":34962,"byteStride":12},{"buffer":0,"byteOffset":7608,"byteLength":912,"target":34962,"byteStride":12},{"buffer":0,"byteOffset":8520,"byteLength":608,"target":34962,"byteStride":8},{"buffer":0,"byteOffset":9128,"byteLength":216,"target":34963},{"buffer":0,"byteOffset":9344,"byteLength":720,"target":34962,"byteStride":12},{"buffer":0,"byteOffset":10064,"byteLength":720,"target":34962,"byteStride":12},{"buffer":0,"byteOffset":10784,"byteLength":480,"target":34962,"byteStride":8},{"buffer":0,"byteOffset":11264,"byteLength":144,"target":34963},{"buffer":0,"byteOffset":11408,"byteLength":288,"target":34962,"byteStride":12},{"buffer":0,"byteOffset":11696,"byteLength":288,"target":34962,"byteStride":12},{"buffer":0,"byteOffset":11984,"byteLength":192,"target":34962,"byteStride":8},{"buffer":0,"byteOffset":12176,"byteLength":72,"target":34963},{"buffer":0,"byteOffset":12248,"byteLength":288,"target":34962,"byteStride":12},{"buffer":0,"byteOffset":12536,"byteLength":288,"target":34962,"byteStride":12},{"buffer":0,"byteOffset":12824,"byteLength":192,"target":34962,"byteStride":8},{"buffer":0,"byteOffset":13016,"byteLength":72,"target":34963},{"buffer":0,"byteOffset":13088,"byteLength":720,"target":34962,"byteStride":12},{"buffer":0,"byteOffset":13808,"byteLength":720,"target":34962,"byteStride":12},{"buffer":0,"byteOffset":14528,"byteLength":480,"target":34962,"byteStride":8},{"buffer":0,"byteOffset":15008,"byteLength":144,"target":34963}],"buffers":[{"byteLength":15152,"uri":"data:application/octet-stream;base64,"}],"accessors":[{"bufferView":0,"componentType":5126,"count":40,"max":[0.40625,0.1875,0.078125],"min":[-0.40625,0,-0.078125],"type":"VEC3"},{"bufferView":1,"componentType":5126,"count":40,"max":[1,1,1],"min":[-1,-1,-1],"type":"VEC3"},{"bufferView":2,"componentType":5126,"count":40,"max":[0.4609375,0.40625],"min":[0,0],"type":"VEC2"},{"bufferView":3,"componentType":5123,"count":60,"max":[39],"min":[0],"type":"SCALAR"},{"bufferView":4,"componentType":5126,"count":76,"max":[0.28125,0.171875,0.125],"min":[-0.28125,-0.046875,-0.125],"type":"VEC3"},{"bufferView":5,"componentType":5126,"count":76,"max":[1,1,0.998930037021637],"min":[-1,-0.9832820296287537,-0.998930037021637],"type":"VEC3"},{"bufferView":6,"componentType":5126,"count":76,"max":[0.46875,0.4453125],"min":[0.0002929687616415322,0],"type":"VEC2"},{"bufferView":7,"componentType":5123,"count":108,"max":[75],"min":[0],"type":"SCALAR"},{"bufferView":8,"componentType":5126,"count":76,"max":[0.28125,0.171875,0.125],"min":[-0.28125,-0.046875,-0.125],"type":"VEC3"},{"bufferView":9,"componentType":5126,"count":76,"max":[1,1,0.998930037021637],"min":[-1,-0.9832820296287537,-0.998930037021637],"type":"VEC3"},{"bufferView":10,"componentType":5126,"count":76,"max":[0.5,0.5],"min":[0.046875,0.078125],"type":"VEC2"},{"bufferView":11,"componentType":5123,"count":108,"max":[75],"min":[0],"type":"SCALAR"},{"bufferView":12,"componentType":5126,"count":76,"max":[0.15625,0.109375,0.0625],"min":[-0.15625,0.015625,-0.0625],"type":"VEC3"},{"bufferView":13,"componentType":5126,"count":76,"max":[1,1,0.9991330504417419],"min":[-1,-0.9899494647979736,-0.9991330504417419],"type":"VEC3"},{"bufferView":14,"componentType":5126,"count":76,"max":[0.53125,0.533203125],"min":[0.0003906250058207661,0.140625],"type":"VEC2"},{"bufferView":15,"componentType":5123,"count":108,"max":[75],"min":[0],"type":"SCALAR"},{"bufferView":16,"componentType":5126,"count":60,"max":[0.05170939117670059,0.34375,0.0625],"min":[-0.05170939117670059,-0.34375,-0.0625],"type":"VEC3"},{"bufferView":17,"componentType":5126,"count":60,"max":[0.9240553379058838,1,1],"min":[-0.9240553379058838,-1,-1],"type":"VEC3"},{"bufferView":18,"componentType":5126,"count":60,"max":[0.5261117219924927,0.546875],"min":[0.125,0.078125],"type":"VEC2"},{"bufferView":19,"componentType":5123,"count":72,"max":[59],"min":[0],"type":"SCALAR"},{"bufferView":20,"componentType":5126,"count":24,"max":[0.03125,0.3125,0.078125],"min":[-0.03125,0.0625,-0.078125],"type":"VEC3"},{"bufferView":21,"componentType":5126,"count":24,"max":[1,1,1],"min":[-1,-1,-1],"type":"VEC3"},{"bufferView":22,"componentType":5126,"count":24,"max":[0.515625,0.53125],"min":[0.09375,0],"type":"VEC2"},{"bufferView":23,"componentType":5123,"count":36,"max":[23],"min":[0],"type":"SCALAR"},{"bufferView":24,"componentType":5126,"count":24,"max":[0.125,-0.015625,0.046875],"min":[0,-0.109375,-0.046875],"type":"VEC3"},{"bufferView":25,"componentType":5126,"count":24,"max":[1,1,1],"min":[-0.8320503234863281,-1,-1],"type":"VEC3"},{"bufferView":26,"componentType":5126,"count":24,"max":[0.515625,0.484375],"min":[0.46875,0],"type":"VEC2"},{"bufferView":27,"componentType":5123,"count":36,"max":[23],"min":[0],"type":"SCALAR"},{"bufferView":28,"componentType":5126,"count":60,"max":[0.05542195960879326,0.3125,0.03125],"min":[-0.05542195960879326,0,-0.03125],"type":"VEC3"},{"bufferView":29,"componentType":5126,"count":60,"max":[0.748202919960022,1,1],"min":[-0.748202919960022,-1,-1],"type":"VEC3"},{"bufferView":30,"componentType":5126,"count":60,"max":[0.49676641821861267,0.515625],"min":[0.1875,0.046875],"type":"VEC2"},{"bufferView":31,"componentType":5123,"count":72,"max":[59],"min":[0],"type":"SCALAR"}],"materials":[{"pbrMetallicRoughness":{"metallicFactor":0,"roughnessFactor":1,"baseColorTexture":{"index":0}},"alphaMode":"MASK","alphaCutoff":0.05,"doubleSided":true}],"textures":[{"sampler":0,"source":0,"name":"texture"}],"samplers":[{"magFilter":9728,"minFilter":9728,"wrapS":33071,"wrapT":33071}],"images":[{"mimeType":"image/png","uri":"data:image/png;base64,"}],"meshes":[{"primitives":[{"mode":4,"attributes":{"POSITION":0,"NORMAL":1,"TEXCOORD_0":2},"indices":3,"material":0}]},{"primitives":[{"mode":4,"attributes":{"POSITION":4,"NORMAL":5,"TEXCOORD_0":6},"indices":7,"material":0}]},{"primitives":[{"mode":4,"attributes":{"POSITION":8,"NORMAL":9,"TEXCOORD_0":10},"indices":11,"material":0}]},{"primitives":[{"mode":4,"attributes":{"POSITION":12,"NORMAL":13,"TEXCOORD_0":14},"indices":15,"material":0}]},{"primitives":[{"mode":4,"attributes":{"POSITION":16,"NORMAL":17,"TEXCOORD_0":18},"indices":19,"material":0}]},{"primitives":[{"mode":4,"attributes":{"POSITION":20,"NORMAL":21,"TEXCOORD_0":22},"indices":23,"material":0}]},{"primitives":[{"mode":4,"attributes":{"POSITION":24,"NORMAL":25,"TEXCOORD_0":26},"indices":27,"material":0}]},{"primitives":[{"mode":4,"attributes":{"POSITION":28,"NORMAL":29,"TEXCOORD_0":30},"indices":31,"material":0}]}]}