{"asset":{"version":"2.0","generator":"Blockbench 4.12.5 glTF exporter"},"scenes":[{"nodes":[5],"name":"blockbench_export"}],"scene":0,"nodes":[{"translation":[0,0.046875,0],"name":"Handle","mesh":0},{"translation":[0.008854374999999998,0.953125,0],"name":"Blade","mesh":1},{"translation":[0,0.1875,0],"name":"WristGuard","mesh":2},{"name":"CounterWeight","mesh":3},{"rotation":[-0.0619321936312845,-0.021023146888890763,0.3207512387338053,0.9449026794001775],"translation":[-0.203125,0.78125,0.515625],"name":"Sword","children":[0,1,2,3]},{"children":[4]}],"bufferViews":[{"buffer":0,"byteOffset":0,"byteLength":720,"target":34962,"byteStride":12},{"buffer":0,"byteOffset":720,"byteLength":720,"target":34962,"byteStride":12},{"buffer":0,"byteOffset":1440,"byteLength":480,"target":34962,"byteStride":8},{"buffer":0,"byteOffset":1920,"byteLength":144,"target":34963},{"buffer":0,"byteOffset":2064,"byteLength":480,"target":34962,"byteStride":12},{"buffer":0,"byteOffset":2544,"byteLength":480,"target":34962,"byteStride":12},{"buffer":0,"byteOffset":3024,"byteLength":320,"target":34962,"byteStride":8},{"buffer":0,"byteOffset":3344,"byteLength":120,"target":34963},{"buffer":0,"byteOffset":3464,"byteLength":288,"target":34962,"byteStride":12},{"buffer":0,"byteOffset":3752,"byteLength":288,"target":34962,"byteStride":12},{"buffer":0,"byteOffset":4040,"byteLength":192,"target":34962,"byteStride":8},{"buffer":0,"byteOffset":4232,"byteLength":72,"target":34963},{"buffer":0,"byteOffset":4304,"byteLength":720,"target":34962,"byteStride":12},{"buffer":0,"byteOffset":5024,"byteLength":720,"target":34962,"byteStride":12},{"buffer":0,"byteOffset":5744,"byteLength":480,"target":34962,"byteStride":8},{"buffer":0,"byteOffset":6224,"byteLength":144,"target":34963}],"buffers":[{"byteLength":6368,"uri":"data:application/octet-stream;base64,"}],"accessors":[{"bufferView":0,"componentType":5126,"count":60,"max":[0.0360843762755394,0.3125,0.015625],"min":[-0.0360843762755394,0,-0.015625],"type":"VEC3"},{"bufferView":1,"componentType":5126,"count":60,"max":[0.6546603441238403,1,1],"min":[-0.6546603441238403,-1,-1],"type":"VEC3"},{"bufferView":2,"componentType":5126,"count":60,"max":[0.53125,0.71875],"min":[0,0],"type":"VEC2"},{"bufferView":3,"componentType":5123,"count":72,"max":[59],"min":[0],"type":"SCALAR"},{"bufferView":4,"componentType":5126,"count":40,"max":[0.07552062720060349,0.46875,0.03125],"min":[-0.09635437279939651,-0.59375,-0.03125],"type":"VEC3"},{"bufferView":5,"componentType":5126,"count":40,"max":[1,0.6585046052932739,1],"min":[-1,-1,-1],"type":"VEC3"},{"bufferView":6,"componentType":5126,"count":40,"max":[0.65625,0.5578156113624573],"min":[0,0],"type":"VEC2"},{"bufferView":7,"componentType":5123,"count":60,"max":[39],"min":[0],"type":"SCALAR"},{"bufferView":8,"componentType":5126,"count":24,"max":[0.09375,0.171875,0.15625],"min":[-0.09375,0.140625,-0.15625],"type":"VEC3"},{"bufferView":9,"componentType":5126,"count":24,"max":[1,1,1],"min":[-1,-1,-1],"type":"VEC3"},{"bufferView":10,"componentType":5126,"count":24,"max":[0.71875,0.59375],"min":[0.0625,0],"type":"VEC2"},{"bufferView":11,"componentType":5123,"count":36,"max":[23],"min":[0],"type":"SCALAR"},{"bufferView":12,"componentType":5126,"count":60,"max":[0.0625,0.0625,0.05412687361240387],"min":[-0.0625,-0.0625,-0.05412687361240387],"type":"VEC3"},{"bufferView":13,"componentType":5126,"count":60,"max":[0.8660265803337097,0.8660299777984619,1],"min":[-0.8660265803337097,-0.8660299777984619,-1],"type":"VEC3"},{"bufferView":14,"componentType":5126,"count":60,"max":[0.632031261920929,0.625],"min":[0.25,0.25],"type":"VEC2"},{"bufferView":15,"componentType":5123,"count":72,"max":[59],"min":[0],"type":"SCALAR"}],"materials":[{"pbrMetallicRoughness":{"metallicFactor":0,"roughnessFactor":1,"baseColorTexture":{"index":0}},"alphaMode":"MASK","alphaCutoff":0.05,"doubleSided":true}],"textures":[{"sampler":0,"source":0,"name":"StandardSword.png"}],"samplers":[{"magFilter":9728,"minFilter":9728,"wrapS":33071,"wrapT":33071}],"images":[{"mimeType":"image/png","uri":"data:image/png;base64,"}],"meshes":[{"primitives":[{"mode":4,"attributes":{"POSITION":0,"NORMAL":1,"TEXCOORD_0":2},"indices":3,"material":0}]},{"primitives":[{"mode":4,"attributes":{"POSITION":4,"NORMAL":5,"TEXCOORD_0":6},"indices":7,"material":0}]},{"primitives":[{"mode":4,"attributes":{"POSITION":8,"NORMAL":9,"TEXCOORD_0":10},"indices":11,"material":0}]},{"primitives":[{"mode":4,"attributes":{"POSITION":12,"NORMAL":13,"TEXCOORD_0":14},"indices":15,"material":0}]}]}