{"asset":{"version":"2.0","generator":"Blockbench 4.12.5 glTF exporter"},"scenes":[{"nodes":[13],"name":"blockbench_export"}],"scene":0,"nodes":[{"translation":[0.010472186250000473,-0.017872686374007074,-0.2552818290517806],"name":"Loop2","mesh":0},{"rotation":[0.7223639620597555,0,0,0.6915130557822694],"translation":[0.01984718625000048,-0.25537268637400734,-0.03184432905178071],"name":"Loop3","mesh":1},{"rotation":[0.6962260720449132,0,0,0.7178225801720864],"translation":[0.05368961124999923,0.31829876362599663,-0.031116079051780675],"name":"Loop6","mesh":2},{"rotation":[-1,0,0,6.123233995736766e-17],"translation":[0.05368961124999934,-0.03868422261670479,0.31263392094821957],"name":"Loop7","mesh":3},{"rotation":[0.0196336924606283,0,0,0.9998072404820648],"translation":[-0.1504653137500011,-0.03193518637400672,-0.030281829051780677],"name":"cube","mesh":4},{"rotation":[-0.3826834323650898,0,0,0.9238795325112867],"translation":[-0.03100741775456064,0.060381782529125516,0.00018843061807581607],"name":"core","children":[0,1,2,3,4]},{"rotation":[-0.6675077247298473,0,0,0.7446028722923262],"translation":[0.046652268495438465,0.04901064597955118,0.20531930252036623],"name":"Armor2","mesh":5},{"translation":[0.062277268495438465,-0.22286435402044869,0.0006318025203662307],"name":"LowerTorso","mesh":6},{"translation":[0.03571476849543847,-0.15880185402044877,0.0006318025203662307],"name":"Torso","mesh":7},{"rotation":[0,-0.08715574274765817,0,0.9961946980917455],"translation":[-0.2752227315045615,0.013073145979551226,0.006881802520366231],"name":"core","mesh":8},{"rotation":[0,-0.10886687485196457,0,0.9940563382223196],"translation":[0.04508976849543847,-0.02442685402044864,-0.01186819747963377],"name":"MidPart","mesh":9},{"rotation":[0.6675077247298473,0,0,0.7446028722923262],"translation":[0.03883976849543847,0.04901064597955118,-0.20249319747963376],"name":"Armor1","mesh":10},{"rotation":[0,0.08715574274765817,0,0.9961946980917455],"translation":[-0.03571476849543847,1.6009893540204487,-0.0006318025203662307],"name":"Torso","children":[5,6,7,8,9,10,11]},{"children":[12]}],"bufferViews":[{"buffer":0,"byteOffset":0,"byteLength":744,"target":34962,"byteStride":12},{"buffer":0,"byteOffset":744,"byteLength":744,"target":34962,"byteStride":12},{"buffer":0,"byteOffset":1488,"byteLength":496,"target":34962,"byteStride":8},{"buffer":0,"byteOffset":1984,"byteLength":168,"target":34963},{"buffer":0,"byteOffset":2152,"byteLength":744,"target":34962,"byteStride":12},{"buffer":0,"byteOffset":2896,"byteLength":744,"target":34962,"byteStride":12},{"buffer":0,"byteOffset":3640,"byteLength":496,"target":34962,"byteStride":8},{"buffer":0,"byteOffset":4136,"byteLength":168,"target":34963},{"buffer":0,"byteOffset":4304,"byteLength":1272,"target":34962,"byteStride":12},{"buffer":0,"byteOffset":5576,"byteLength":1272,"target":34962,"byteStride":12},{"buffer":0,"byteOffset":6848,"byteLength":848,"target":34962,"byteStride":8},{"buffer":0,"byteOffset":7696,"byteLength":300,"target":34963},{"buffer":0,"byteOffset":7996,"byteLength":1272,"target":34962,"byteStride":12},{"buffer":0,"byteOffset":9268,"byteLength":1272,"target":34962,"byteStride":12},{"buffer":0,"byteOffset":10540,"byteLength":848,"target":34962,"byteStride":8},{"buffer":0,"byteOffset":11388,"byteLength":300,"target":34963},{"buffer":0,"byteOffset":11688,"byteLength":288,"target":34962,"byteStride":12},{"buffer":0,"byteOffset":11976,"byteLength":288,"target":34962,"byteStride":12},{"buffer":0,"byteOffset":12264,"byteLength":192,"target":34962,"byteStride":8},{"buffer":0,"byteOffset":12456,"byteLength":72,"target":34963},{"buffer":0,"byteOffset":12528,"byteLength":720,"target":34962,"byteStride":12},{"buffer":0,"byteOffset":13248,"byteLength":720,"target":34962,"byteStride":12},{"buffer":0,"byteOffset":13968,"byteLength":480,"target":34962,"byteStride":8},{"buffer":0,"byteOffset":14448,"byteLength":144,"target":34963},{"buffer":0,"byteOffset":14592,"byteLength":288,"target":34962,"byteStride":12},{"buffer":0,"byteOffset":14880,"byteLength":288,"target":34962,"byteStride":12},{"buffer":0,"byteOffset":15168,"byteLength":192,"target":34962,"byteStride":8},{"buffer":0,"byteOffset":15360,"byteLength":72,"target":34963},{"buffer":0,"byteOffset":15432,"byteLength":600,"target":34962,"byteStride":12},{"buffer":0,"byteOffset":16032,"byteLength":600,"target":34962,"byteStride":12},{"buffer":0,"byteOffset":16632,"byteLength":400,"target":34962,"byteStride":8},{"buffer":0,"byteOffset":17032,"byteLength":144,"target":34963},{"buffer":0,"byteOffset":17176,"byteLength":1176,"target":34962,"byteStride":12},{"buffer":0,"byteOffset":18352,"byteLength":1176,"target":34962,"byteStride":12},{"buffer":0,"byteOffset":19528,"byteLength":784,"target":34962,"byteStride":8},{"buffer":0,"byteOffset":20312,"byteLength":252,"target":34963},{"buffer":0,"byteOffset":20564,"byteLength":840,"target":34962,"byteStride":12},{"buffer":0,"byteOffset":21404,"byteLength":840,"target":34962,"byteStride":12},{"buffer":0,"byteOffset":22244,"byteLength":560,"target":34962,"byteStride":8},{"buffer":0,"byteOffset":22804,"byteLength":168,"target":34963},{"buffer":0,"byteOffset":22972,"byteLength":720,"target":34962,"byteStride":12},{"buffer":0,"byteOffset":23692,"byteLength":720,"target":34962,"byteStride":12},{"buffer":0,"byteOffset":24412,"byteLength":480,"target":34962,"byteStride":8},{"buffer":0,"byteOffset":24892,"byteLength":144,"target":34963}],"buffers":[{"byteLength":25036,"uri":"data:application/octet-stream;base64,"}],"accessors":[{"bufferView":0,"componentType":5126,"count":62,"max":[0.3292999863624573,0.05624999850988388,0.1438818722963333],"min":[-0.2902374863624573,-0.05528687685728073,-0.07500000298023224],"type":"VEC3"},{"bufferView":1,"componentType":5126,"count":62,"max":[1,1,1],"min":[-1,-1,-1],"type":"VEC3"},{"bufferView":2,"componentType":5126,"count":62,"max":[0.8430671691894531,0.7887614965438843],"min":[0.00016328124911524355,0.046875],"type":"VEC2"},{"bufferView":3,"componentType":5123,"count":84,"max":[61],"min":[0],"type":"SCALAR"},{"bufferView":4,"componentType":5126,"count":62,"max":[0.3292999863624573,0.05624999850988388,0.07500000298023224],"min":[-0.2902374863624573,-0.05528687685728073,-0.1438818722963333],"type":"VEC3"},{"bufferView":5,"componentType":5126,"count":62,"max":[1,1,1],"min":[-1,-1,-1],"type":"VEC3"},{"bufferView":6,"componentType":5126,"count":62,"max":[0.8430671691894531,0.796875],"min":[0.359375,0.20500624179840088],"type":"VEC2"},{"bufferView":7,"componentType":5123,"count":84,"max":[61],"min":[0],"type":"SCALAR"},{"bufferView":8,"componentType":5126,"count":106,"max":[0.3856719434261322,0.05565612390637398,0.28838521242141724],"min":[-0.3804655373096466,-0.0592501237988472,-0.20010730624198914],"type":"VEC3"},{"bufferView":9,"componentType":5126,"count":106,"max":[0.9999892115592957,1,1],"min":[-0.9853306412696838,-1,-1],"type":"VEC3"},{"bufferView":10,"componentType":5126,"count":106,"max":[0.9772385358810425,0.962890625],"min":[0,0.0008195638656616211],"type":"VEC2"},{"bufferView":11,"componentType":5123,"count":150,"max":[105],"min":[0],"type":"SCALAR"},{"bufferView":12,"componentType":5126,"count":106,"max":[0.3856719434261322,0.05565612390637398,0.27983972430229187],"min":[-0.3804655373096466,-0.0592501237988472,-0.2086527794599533],"type":"VEC3"},{"bufferView":13,"componentType":5126,"count":106,"max":[0.9999892115592957,1,1],"min":[-0.9853306412696838,-1,-1],"type":"VEC3"},{"bufferView":14,"componentType":5126,"count":106,"max":[0.9928657412528992,0.994140625],"min":[0.046875,0],"type":"VEC2"},{"bufferView":15,"componentType":5123,"count":150,"max":[105],"min":[0],"type":"SCALAR"},{"bufferView":16,"componentType":5126,"count":24,"max":[0.0625,0.0625,0.0625],"min":[-0.0625,-0.0625,-0.0625],"type":"VEC3"},{"bufferView":17,"componentType":5126,"count":24,"max":[1,1,1],"min":[-1,-1,-1],"type":"VEC3"},{"bufferView":18,"componentType":5126,"count":24,"max":[0.796875,0.8125],"min":[0.09375,0.640625],"type":"VEC2"},{"bufferView":19,"componentType":5123,"count":36,"max":[23],"min":[0],"type":"SCALAR"},{"bufferView":20,"componentType":5126,"count":60,"max":[0.3057156205177307,0.0625,0.21875],"min":[-0.3057156205177307,0,-0.21875],"type":"VEC3"},{"bufferView":21,"componentType":5126,"count":60,"max":[0.8197025656700134,1,1],"min":[-0.8197025656700134,-1,-1],"type":"VEC3"},{"bufferView":22,"componentType":5126,"count":60,"max":[0.859375,0.796875],"min":[0.0007195312646217644,0.453125],"type":"VEC2"},{"bufferView":23,"componentType":5123,"count":72,"max":[59],"min":[0],"type":"SCALAR"},{"bufferView":24,"componentType":5126,"count":24,"max":[0.125,0.125,0.12343750149011612],"min":[-0.125,0,-0.125],"type":"VEC3"},{"bufferView":25,"componentType":5126,"count":24,"max":[1,1,0.997199296951294],"min":[-1,-1,-0.9961937069892883],"type":"VEC3"},{"bufferView":26,"componentType":5126,"count":24,"max":[0.796679675579071,0.765625],"min":[0.09375,0.09375],"type":"VEC2"},{"bufferView":27,"componentType":5123,"count":36,"max":[23],"min":[0],"type":"SCALAR"},{"bufferView":28,"componentType":5126,"count":50,"max":[0.28125,0.375,0.15625],"min":[-0.26875001192092896,0,-0.15625],"type":"VEC3"},{"bufferView":29,"componentType":5126,"count":50,"max":[1,1,1],"min":[-0.7310552597045898,-1,-1],"type":"VEC3"},{"bufferView":30,"componentType":5126,"count":50,"max":[0.765625,0.701171875],"min":[0,0.03125],"type":"VEC2"},{"bufferView":31,"componentType":5123,"count":72,"max":[49],"min":[0],"type":"SCALAR"},{"bufferView":32,"componentType":5126,"count":98,"max":[0.058255624026060104,0.05000000074505806,0.05156249925494194],"min":[-0.058255624026060104,-0.05000000074505806,-0.058432500809431076],"type":"VEC3"},{"bufferView":33,"componentType":5126,"count":98,"max":[0.8891713619232178,0.9331250786781311,0.9180418252944946],"min":[-0.8891711235046387,-0.9331250786781311,-0.8312501907348633],"type":"VEC3"},{"bufferView":34,"componentType":5126,"count":98,"max":[0.513671875,0.833984375],"min":[0.00035468750866129994,0.140625],"type":"VEC2"},{"bufferView":35,"componentType":5123,"count":126,"max":[97],"min":[0],"type":"SCALAR"},{"bufferView":36,"componentType":5126,"count":70,"max":[0.3927375078201294,0.05624999850988388,0.31454187631607056],"min":[-0.407991886138916,0.0062500000931322575,-0.33863937854766846],"type":"VEC3"},{"bufferView":37,"componentType":5126,"count":70,"max":[0.971755862236023,1,0.9981390237808228],"min":[-0.9717563390731812,-1,-0.9335185289382935],"type":"VEC3"},{"bufferView":38,"componentType":5126,"count":70,"max":[0.8125,0.625],"min":[0,0.0007671713829040527],"type":"VEC2"},{"bufferView":39,"componentType":5123,"count":84,"max":[69],"min":[0],"type":"SCALAR"},{"bufferView":40,"componentType":5126,"count":60,"max":[0.3057156205177307,0.0625,0.21875],"min":[-0.3057156205177307,0,-0.21875],"type":"VEC3"},{"bufferView":41,"componentType":5126,"count":60,"max":[0.8197025656700134,1,1],"min":[-0.8197025656700134,-1,-1],"type":"VEC3"},{"bufferView":42,"componentType":5126,"count":60,"max":[0.84375,0.796875],"min":[0.20384453237056732,0],"type":"VEC2"},{"bufferView":43,"componentType":5123,"count":72,"max":[59],"min":[0],"type":"SCALAR"}],"materials":[{"pbrMetallicRoughness":{"metallicFactor":0,"roughnessFactor":1,"baseColorTexture":{"index":0}},"alphaMode":"MASK","alphaCutoff":0.05,"doubleSided":true}],"textures":[{"sampler":0,"source":0,"name":"HeavyTorso"}],"samplers":[{"magFilter":9728,"minFilter":9728,"wrapS":33071,"wrapT":33071}],"images":[{"mimeType":"image/png","uri":"data:image/png;base64,"}],"meshes":[{"primitives":[{"mode":4,"attributes":{"POSITION":0,"NORMAL":1,"TEXCOORD_0":2},"indices":3,"material":0}]},{"primitives":[{"mode":4,"attributes":{"POSITION":4,"NORMAL":5,"TEXCOORD_0":6},"indices":7,"material":0}]},{"primitives":[{"mode":4,"attributes":{"POSITION":8,"NORMAL":9,"TEXCOORD_0":10},"indices":11,"material":0}]},{"primitives":[{"mode":4,"attributes":{"POSITION":12,"NORMAL":13,"TEXCOORD_0":14},"indices":15,"material":0}]},{"primitives":[{"mode":4,"attributes":{"POSITION":16,"NORMAL":17,"TEXCOORD_0":18},"indices":19,"material":0}]},{"primitives":[{"mode":4,"attributes":{"POSITION":20,"NORMAL":21,"TEXCOORD_0":22},"indices":23,"material":0}]},{"primitives":[{"mode":4,"attributes":{"POSITION":24,"NORMAL":25,"TEXCOORD_0":26},"indices":27,"material":0}]},{"primitives":[{"mode":4,"attributes":{"POSITION":28,"NORMAL":29,"TEXCOORD_0":30},"indices":31,"material":0}]},{"primitives":[{"mode":4,"attributes":{"POSITION":32,"NORMAL":33,"TEXCOORD_0":34},"indices":35,"material":0}]},{"primitives":[{"mode":4,"attributes":{"POSITION":36,"NORMAL":37,"TEXCOORD_0":38},"indices":39,"material":0}]},{"primitives":[{"mode":4,"attributes":{"POSITION":40,"NORMAL":41,"TEXCOORD_0":42},"indices":43,"material":0}]}]}