{"asset":{"version":"2.0","generator":"Blockbench 4.12.5 glTF exporter"},"scenes":[{"nodes":[5],"name":"blockbench_export"}],"scene":0,"nodes":[{"rotation":[-0.7071067811865475,0,0,0.7071067811865476],"translation":[0,-0.05416687500000017,-0.25451375000000004],"name":"LowerHipSeparator","mesh":0},{"rotation":[0,0.10886687485196457,0,0.9940563382223196],"translation":[0,0.07239562499999996,-0.25451375000000004],"name":"Base","mesh":1},{"rotation":[0.5,0.4999999999999999,-0.5,0.5000000000000001],"translation":[0.2109575,-0.22057062500000013,-0.24978000000000003],"name":"FrontGuard","mesh":2},{"rotation":[0.5,-0.4999999999999999,0.5,0.5000000000000001],"translation":[-0.2109575,-0.22057062500000013,-0.24978000000000003],"name":"BackGuard","mesh":3},{"translation":[0,1.251041875,0.25295125],"name":"HipGuard","children":[0,1,2,3]},{"children":[4]}],"bufferViews":[{"buffer":0,"byteOffset":0,"byteLength":792,"target":34962,"byteStride":12},{"buffer":0,"byteOffset":792,"byteLength":792,"target":34962,"byteStride":12},{"buffer":0,"byteOffset":1584,"byteLength":528,"target":34962,"byteStride":8},{"buffer":0,"byteOffset":2112,"byteLength":180,"target":34963},{"buffer":0,"byteOffset":2292,"byteLength":840,"target":34962,"byteStride":12},{"buffer":0,"byteOffset":3132,"byteLength":840,"target":34962,"byteStride":12},{"buffer":0,"byteOffset":3972,"byteLength":560,"target":34962,"byteStride":8},{"buffer":0,"byteOffset":4532,"byteLength":168,"target":34963},{"buffer":0,"byteOffset":4700,"byteLength":816,"target":34962,"byteStride":12},{"buffer":0,"byteOffset":5516,"byteLength":816,"target":34962,"byteStride":12},{"buffer":0,"byteOffset":6332,"byteLength":544,"target":34962,"byteStride":8},{"buffer":0,"byteOffset":6876,"byteLength":180,"target":34963},{"buffer":0,"byteOffset":7056,"byteLength":816,"target":34962,"byteStride":12},{"buffer":0,"byteOffset":7872,"byteLength":816,"target":34962,"byteStride":12},{"buffer":0,"byteOffset":8688,"byteLength":544,"target":34962,"byteStride":8},{"buffer":0,"byteOffset":9232,"byteLength":180,"target":34963}],"buffers":[{"byteLength":9412,"uri":"data:application/octet-stream;base64,"}],"accessors":[{"bufferView":0,"componentType":5126,"count":66,"max":[0.2525906264781952,0.03125,0.19062499701976776],"min":[-0.2525906264781952,-0.03125,-0.0062500000931322575],"type":"VEC3"},{"bufferView":1,"componentType":5126,"count":66,"max":[1,1,1],"min":[-1,-1,-1],"type":"VEC3"},{"bufferView":2,"componentType":5126,"count":66,"max":[0.5016242265701294,0.484375],"min":[0,0],"type":"VEC2"},{"bufferView":3,"componentType":5123,"count":90,"max":[65],"min":[0],"type":"SCALAR"},{"bufferView":4,"componentType":5126,"count":70,"max":[0.24407625198364258,0.0625,0.24375000596046448],"min":[-0.24407625198364258,0,-0.260924369096756],"type":"VEC3"},{"bufferView":5,"componentType":5126,"count":70,"max":[0.9776118993759155,1,1],"min":[-0.9776118993759155,-1,-0.8905909061431885],"type":"VEC3"},{"bufferView":6,"componentType":5126,"count":70,"max":[0.5,0.453125],"min":[0.0005046874866820872,0.0007843971252441406],"type":"VEC2"},{"bufferView":7,"componentType":5123,"count":84,"max":[69],"min":[0],"type":"SCALAR"},{"bufferView":8,"componentType":5126,"count":68,"max":[0.21862250566482544,0.20987625420093536,0.0025993750896304846],"min":[-0.21887749433517456,-0.08487624675035477,-0.37476813793182373],"type":"VEC3"},{"bufferView":9,"componentType":5126,"count":68,"max":[0.9414594769477844,0.8574051260948181,0.9931641817092896],"min":[-0.9358712434768677,-0.9866697788238525,-0.9995284080505371],"type":"VEC3"},{"bufferView":10,"componentType":5126,"count":68,"max":[0.509347677230835,0.49269652366638184],"min":[0,0],"type":"VEC2"},{"bufferView":11,"componentType":5123,"count":90,"max":[67],"min":[0],"type":"SCALAR"},{"bufferView":12,"componentType":5126,"count":68,"max":[0.21887749433517456,0.20987625420093536,0.0025993750896304846],"min":[-0.21862250566482544,-0.08487624675035477,-0.37476813793182373],"type":"VEC3"},{"bufferView":13,"componentType":5126,"count":68,"max":[0.9358712434768677,0.8574051260948181,0.9931641817092896],"min":[-0.9414594769477844,-0.9866697788238525,-0.9995284080505371],"type":"VEC3"},{"bufferView":14,"componentType":5126,"count":68,"max":[0.509347677230835,0.49269652366638184],"min":[0,0],"type":"VEC2"},{"bufferView":15,"componentType":5123,"count":90,"max":[67],"min":[0],"type":"SCALAR"}],"materials":[{"pbrMetallicRoughness":{"metallicFactor":0,"roughnessFactor":1,"baseColorTexture":{"index":0}},"alphaMode":"MASK","alphaCutoff":0.05,"doubleSided":true}],"textures":[{"sampler":0,"source":0,"name":"HipGuards"}],"samplers":[{"magFilter":9728,"minFilter":9728,"wrapS":33071,"wrapT":33071}],"images":[{"mimeType":"image/png","uri":"data:image/png;base64,"}],"meshes":[{"primitives":[{"mode":4,"attributes":{"POSITION":0,"NORMAL":1,"TEXCOORD_0":2},"indices":3,"material":0}]},{"primitives":[{"mode":4,"attributes":{"POSITION":4,"NORMAL":5,"TEXCOORD_0":6},"indices":7,"material":0}]},{"primitives":[{"mode":4,"attributes":{"POSITION":8,"NORMAL":9,"TEXCOORD_0":10},"indices":11,"material":0}]},{"primitives":[{"mode":4,"attributes":{"POSITION":12,"NORMAL":13,"TEXCOORD_0":14},"indices":15,"material":0}]}]}