{"asset":{"version":"2.0","generator":"Blockbench 4.12.5 glTF exporter"},"scenes":[{"nodes":[9],"name":"blockbench_export"}],"scene":0,"nodes":[{"rotation":[0.0196336924606283,0,0,0.9998072404820648],"translation":[-0.150465625,-0.03193500000000005,-0.030281875],"name":"cube","mesh":0},{"rotation":[-0.3826834323650898,0,0,0.9238795325112867],"translation":[-0.031006875000000003,0.06038187500000003,0.00018874999999999995],"name":"core","children":[0]},{"translation":[0.0622775,-0.2228643749999999,0.000631875],"name":"LowerTorso","mesh":1},{"translation":[0.035715,-0.15880187499999998,0.000631875],"name":"Torso","mesh":2},{"rotation":[0,-0.08715574274765817,0,0.9961946980917455],"translation":[-0.24397250000000004,0.013073125000000019,0.006881875],"name":"core","mesh":3},{"rotation":[-0.6675077247298473,0,0,0.7446028722923262],"translation":[0.048214999999999994,0.011510625000001884,0.205319375],"name":"Armor2","mesh":4},{"rotation":[0.6675077247298473,0,0,0.7446028722923262],"translation":[0.0747775,0.005260625000001573,-0.20561812499999998],"name":"Armor1","mesh":5},{"rotation":[0,-0.0762839745039523,0,0.9970861323044666],"translation":[0.016964999999999994,-0.022864374999999937,-0.011868125],"name":"MidPart","mesh":6},{"rotation":[0,0.08715574274765817,0,0.9961946980917455],"translation":[-0.035715,1.600989375,-0.000631875],"name":"Torso","children":[1,2,3,4,5,6,7]},{"children":[8]}],"bufferViews":[{"buffer":0,"byteOffset":0,"byteLength":288,"target":34962,"byteStride":12},{"buffer":0,"byteOffset":288,"byteLength":288,"target":34962,"byteStride":12},{"buffer":0,"byteOffset":576,"byteLength":192,"target":34962,"byteStride":8},{"buffer":0,"byteOffset":768,"byteLength":72,"target":34963},{"buffer":0,"byteOffset":840,"byteLength":288,"target":34962,"byteStride":12},{"buffer":0,"byteOffset":1128,"byteLength":288,"target":34962,"byteStride":12},{"buffer":0,"byteOffset":1416,"byteLength":192,"target":34962,"byteStride":8},{"buffer":0,"byteOffset":1608,"byteLength":72,"target":34963},{"buffer":0,"byteOffset":1680,"byteLength":600,"target":34962,"byteStride":12},{"buffer":0,"byteOffset":2280,"byteLength":600,"target":34962,"byteStride":12},{"buffer":0,"byteOffset":2880,"byteLength":400,"target":34962,"byteStride":8},{"buffer":0,"byteOffset":3280,"byteLength":144,"target":34963},{"buffer":0,"byteOffset":3424,"byteLength":1176,"target":34962,"byteStride":12},{"buffer":0,"byteOffset":4600,"byteLength":1176,"target":34962,"byteStride":12},{"buffer":0,"byteOffset":5776,"byteLength":784,"target":34962,"byteStride":8},{"buffer":0,"byteOffset":6560,"byteLength":252,"target":34963},{"buffer":0,"byteOffset":6812,"byteLength":720,"target":34962,"byteStride":12},{"buffer":0,"byteOffset":7532,"byteLength":720,"target":34962,"byteStride":12},{"buffer":0,"byteOffset":8252,"byteLength":480,"target":34962,"byteStride":8},{"buffer":0,"byteOffset":8732,"byteLength":144,"target":34963},{"buffer":0,"byteOffset":8876,"byteLength":720,"target":34962,"byteStride":12},{"buffer":0,"byteOffset":9596,"byteLength":720,"target":34962,"byteStride":12},{"buffer":0,"byteOffset":10316,"byteLength":480,"target":34962,"byteStride":8},{"buffer":0,"byteOffset":10796,"byteLength":144,"target":34963},{"buffer":0,"byteOffset":10940,"byteLength":840,"target":34962,"byteStride":12},{"buffer":0,"byteOffset":11780,"byteLength":840,"target":34962,"byteStride":12},{"buffer":0,"byteOffset":12620,"byteLength":560,"target":34962,"byteStride":8},{"buffer":0,"byteOffset":13180,"byteLength":168,"target":34963}],"buffers":[{"byteLength":13348,"uri":"data:application/octet-stream;base64,"}],"accessors":[{"bufferView":0,"componentType":5126,"count":24,"max":[0.0625,0.0625,0.0625],"min":[-0.0625,-0.0625,-0.0625],"type":"VEC3"},{"bufferView":1,"componentType":5126,"count":24,"max":[1,1,1],"min":[-1,-1,-1],"type":"VEC3"},{"bufferView":2,"componentType":5126,"count":24,"max":[0.796875,0.8125],"min":[0.09375,0.640625],"type":"VEC2"},{"bufferView":3,"componentType":5123,"count":36,"max":[23],"min":[0],"type":"SCALAR"},{"bufferView":4,"componentType":5126,"count":24,"max":[0.125,0.125,0.12343750149011612],"min":[-0.125,0,-0.125],"type":"VEC3"},{"bufferView":5,"componentType":5126,"count":24,"max":[1,1,0.997199296951294],"min":[-1,-1,-0.9961937069892883],"type":"VEC3"},{"bufferView":6,"componentType":5126,"count":24,"max":[0.796679675579071,0.765625],"min":[0.09375,0.09375],"type":"VEC2"},{"bufferView":7,"componentType":5123,"count":36,"max":[23],"min":[0],"type":"SCALAR"},{"bufferView":8,"componentType":5126,"count":50,"max":[0.28125,0.375,0.15625],"min":[-0.26875001192092896,0,-0.15625],"type":"VEC3"},{"bufferView":9,"componentType":5126,"count":50,"max":[1,1,1],"min":[-0.7310552597045898,-1,-1],"type":"VEC3"},{"bufferView":10,"componentType":5126,"count":50,"max":[0.765625,0.701171875],"min":[0,0.03125],"type":"VEC2"},{"bufferView":11,"componentType":5123,"count":72,"max":[49],"min":[0],"type":"SCALAR"},{"bufferView":12,"componentType":5126,"count":98,"max":[0.058255624026060104,0.05000000074505806,0.05156249925494194],"min":[-0.058255624026060104,-0.05000000074505806,-0.058432500809431076],"type":"VEC3"},{"bufferView":13,"componentType":5126,"count":98,"max":[0.8891713619232178,0.9331250786781311,0.9180418252944946],"min":[-0.8891711235046387,-0.9331250786781311,-0.8312501907348633],"type":"VEC3"},{"bufferView":14,"componentType":5126,"count":98,"max":[0.513671875,0.833984375],"min":[0.00035468750866129994,0.140625],"type":"VEC2"},{"bufferView":15,"componentType":5123,"count":126,"max":[97],"min":[0],"type":"SCALAR"},{"bufferView":16,"componentType":5126,"count":60,"max":[0.2588406205177307,0.046875,0.21875],"min":[-0.2588406205177307,0.015625,-0.21875],"type":"VEC3"},{"bufferView":17,"componentType":5126,"count":60,"max":[0.8606530427932739,1,1],"min":[-0.8606530427932739,-1,-1],"type":"VEC3"},{"bufferView":18,"componentType":5126,"count":60,"max":[0.859375,0.796875],"min":[0.0007195312646217644,0.453125],"type":"VEC2"},{"bufferView":19,"componentType":5123,"count":72,"max":[59],"min":[0],"type":"SCALAR"},{"bufferView":20,"componentType":5126,"count":60,"max":[0.2432156205177307,0.046875,0.21875],"min":[-0.2432156205177307,0.015625,-0.21875],"type":"VEC3"},{"bufferView":21,"componentType":5126,"count":60,"max":[0.8740220069885254,1,1],"min":[-0.8740220069885254,-1,-1],"type":"VEC3"},{"bufferView":22,"componentType":5126,"count":60,"max":[0.84375,0.796875],"min":[0.20384453237056732,0],"type":"VEC2"},{"bufferView":23,"componentType":5123,"count":72,"max":[59],"min":[0],"type":"SCALAR"},{"bufferView":24,"componentType":5126,"count":70,"max":[0.4235107898712158,0.05624999850988388,0.26766687631607056],"min":[-0.32674187421798706,0.0062500000931322575,-0.2931974232196808],"type":"VEC3"},{"bufferView":25,"componentType":5126,"count":70,"max":[0.9753998517990112,1,0.9986293315887451],"min":[-0.9754005670547485,-1,-0.9560033679008484],"type":"VEC3"},{"bufferView":26,"componentType":5126,"count":70,"max":[0.8125,0.625],"min":[0,0.0007671713829040527],"type":"VEC2"},{"bufferView":27,"componentType":5123,"count":84,"max":[69],"min":[0],"type":"SCALAR"}],"materials":[{"pbrMetallicRoughness":{"metallicFactor":0,"roughnessFactor":1,"baseColorTexture":{"index":0}},"alphaMode":"MASK","alphaCutoff":0.05,"doubleSided":true}],"textures":[{"sampler":0,"source":0,"name":"StandardTorso.png"}],"samplers":[{"magFilter":9728,"minFilter":9728,"wrapS":33071,"wrapT":33071}],"images":[{"mimeType":"image/png","uri":"data:image/png;base64,"}],"meshes":[{"primitives":[{"mode":4,"attributes":{"POSITION":0,"NORMAL":1,"TEXCOORD_0":2},"indices":3,"material":0}]},{"primitives":[{"mode":4,"attributes":{"POSITION":4,"NORMAL":5,"TEXCOORD_0":6},"indices":7,"material":0}]},{"primitives":[{"mode":4,"attributes":{"POSITION":8,"NORMAL":9,"TEXCOORD_0":10},"indices":11,"material":0}]},{"primitives":[{"mode":4,"attributes":{"POSITION":12,"NORMAL":13,"TEXCOORD_0":14},"indices":15,"material":0}]},{"primitives":[{"mode":4,"attributes":{"POSITION":16,"NORMAL":17,"TEXCOORD_0":18},"indices":19,"material":0}]},{"primitives":[{"mode":4,"attributes":{"POSITION":20,"NORMAL":21,"TEXCOORD_0":22},"indices":23,"material":0}]},{"primitives":[{"mode":4,"attributes":{"POSITION":24,"NORMAL":25,"TEXCOORD_0":26},"indices":27,"material":0}]}]}