{"asset":{"version":"2.0","generator":"Blockbench 4.12.5 glTF exporter"},"scenes":[{"nodes":[30],"name":"blockbench_export"}],"scene":0,"nodes":[{"rotation":[-0.7071067811865475,0,0,0.7071067811865476],"translation":[0,0,0.22671875],"name":"cylinder","mesh":0},{"name":"Shoulder","mesh":1},{"translation":[-0.0035637499999999975,-0.05244000000000004,0.024578125000000006],"name":"sphere","mesh":2},{"translation":[-0.0019299999999999977,0.19375750000000003,0.02478999999999998],"name":"beveled_cuboid","mesh":3},{"translation":[-0.0035637499999999975,0.06631000000000009,0.026271875],"name":"beveled_cuboid","mesh":4},{"translation":[-0.041015625,-0.22789749999999986,-0.0012187499999999907],"name":"ForeArm","mesh":5},{"translation":[-0.041015625,-0.22789749999999986,-0.0012187499999999907],"name":"ForeArm","mesh":6},{"rotation":[0.0025702398672458287,-0.6992408483399515,0.7148791473593328,-0.0018532540687741215],"translation":[-0.026848750000000005,-0.17812499999999987,-0.125],"name":"FrontGuard","mesh":7},{"translation":[0.007741249999999998,0.09755250000000004,-0.09539312500000002],"name":"HandGuard","mesh":8},{"rotation":[0,0.7071067811865475,0,0.7071067811865476],"name":"Hand","mesh":9},{"translation":[-0.0234375,-0.6138349999999999,0.04721875000000003],"name":"Hand","children":[8,9]},{"rotation":[0,0,-0.40274668985873724,0.9153114791194471],"translation":[0.03869500000000001,0.06540499999999994,0.02600874999999997],"name":"ForeArm","children":[5,6,7,10]},{"translation":[0.0035637499999999975,-0.5038100000000001,0.016071875000000013],"name":"Bicep","children":[2,3,4,11]},{"translation":[0,0,-0.08210937499999998],"name":"Shoulder","children":[0,1,12]},{"rotation":[0.10886687485196457,0,0,0.9940563382223196],"translation":[0.02336625,1.70849,-0.30719],"name":"RangedArm","children":[13]},{"rotation":[0.7071067811865475,0,0,0.7071067811865476],"translation":[0,0,-0.22671875],"name":"cylinder","mesh":10},{"name":"Shoulder","mesh":11},{"translation":[-0.0035637499999999975,-0.05244000000000004,-0.024578125000000006],"name":"sphere","mesh":12},{"translation":[-0.0019299999999999977,0.19375750000000003,-0.02478999999999998],"name":"beveled_cuboid","mesh":13},{"translation":[-0.0035637499999999975,0.06631000000000009,-0.026271875],"name":"beveled_cuboid","mesh":14},{"translation":[-0.041015625,-0.22789749999999986,0.0012187499999999907],"name":"ForeArm","mesh":15},{"translation":[-0.041015625,-0.22789749999999986,0.0012187499999999907],"name":"ForeArm","mesh":16},{"rotation":[-0.0025702398672458287,0.6992408483399515,0.7148791473593328,-0.0018532540687741215],"translation":[-0.026848750000000005,-0.17812499999999987,0.125],"name":"BackGuard","mesh":17},{"translation":[0.007741249999999998,0.09755250000000004,0.09539312500000002],"name":"HandGuard","mesh":18},{"rotation":[0,-0.7071067811865475,0,0.7071067811865476],"name":"Hand","mesh":19},{"translation":[-0.0234375,-0.6138349999999999,-0.04721875000000003],"name":"Hand2","children":[23,24]},{"rotation":[0,0,-0.40274668985873724,0.9153114791194471],"translation":[0.03869500000000001,0.06540499999999994,-0.02600874999999997],"name":"ForeArm2","children":[20,21,22,25]},{"translation":[0.0035637499999999975,-0.5038100000000001,-0.016071875000000013],"name":"Bicep2","children":[17,18,19,26]},{"translation":[0,0,0.08210937499999998],"name":"Shoulder2","children":[15,16,27]},{"rotation":[-0.10886687485196457,0,0,0.9940563382223196],"translation":[0.02336625,1.70849,0.30719],"name":"RangedArm2","children":[28]},{"children":[14,29]}],"bufferViews":[{"buffer":0,"byteOffset":0,"byteLength":720,"target":34962,"byteStride":12},{"buffer":0,"byteOffset":720,"byteLength":720,"target":34962,"byteStride":12},{"buffer":0,"byteOffset":1440,"byteLength":480,"target":34962,"byteStride":8},{"buffer":0,"byteOffset":1920,"byteLength":144,"target":34963},{"buffer":0,"byteOffset":2064,"byteLength":1152,"target":34962,"byteStride":12},{"buffer":0,"byteOffset":3216,"byteLength":1152,"target":34962,"byteStride":12},{"buffer":0,"byteOffset":4368,"byteLength":768,"target":34962,"byteStride":8},{"buffer":0,"byteOffset":5136,"byteLength":264,"target":34963},{"buffer":0,"byteOffset":5400,"byteLength":1176,"target":34962,"byteStride":12},{"buffer":0,"byteOffset":6576,"byteLength":1176,"target":34962,"byteStride":12},{"buffer":0,"byteOffset":7752,"byteLength":784,"target":34962,"byteStride":8},{"buffer":0,"byteOffset":8536,"byteLength":252,"target":34963},{"buffer":0,"byteOffset":8788,"byteLength":1152,"target":34962,"byteStride":12},{"buffer":0,"byteOffset":9940,"byteLength":1152,"target":34962,"byteStride":12},{"buffer":0,"byteOffset":11092,"byteLength":768,"target":34962,"byteStride":8},{"buffer":0,"byteOffset":11860,"byteLength":264,"target":34963},{"buffer":0,"byteOffset":12124,"byteLength":1152,"target":34962,"byteStride":12},{"buffer":0,"byteOffset":13276,"byteLength":1152,"target":34962,"byteStride":12},{"buffer":0,"byteOffset":14428,"byteLength":768,"target":34962,"byteStride":8},{"buffer":0,"byteOffset":15196,"byteLength":264,"target":34963},{"buffer":0,"byteOffset":15460,"byteLength":1152,"target":34962,"byteStride":12},{"buffer":0,"byteOffset":16612,"byteLength":1152,"target":34962,"byteStride":12},{"buffer":0,"byteOffset":17764,"byteLength":768,"target":34962,"byteStride":8},{"buffer":0,"byteOffset":18532,"byteLength":264,"target":34963},{"buffer":0,"byteOffset":18796,"byteLength":1152,"target":34962,"byteStride":12},{"buffer":0,"byteOffset":19948,"byteLength":1152,"target":34962,"byteStride":12},{"buffer":0,"byteOffset":21100,"byteLength":768,"target":34962,"byteStride":8},{"buffer":0,"byteOffset":21868,"byteLength":264,"target":34963},{"buffer":0,"byteOffset":22132,"byteLength":816,"target":34962,"byteStride":12},{"buffer":0,"byteOffset":22948,"byteLength":816,"target":34962,"byteStride":12},{"buffer":0,"byteOffset":23764,"byteLength":544,"target":34962,"byteStride":8},{"buffer":0,"byteOffset":24308,"byteLength":180,"target":34963},{"buffer":0,"byteOffset":24488,"byteLength":288,"target":34962,"byteStride":12},{"buffer":0,"byteOffset":24776,"byteLength":288,"target":34962,"byteStride":12},{"buffer":0,"byteOffset":25064,"byteLength":192,"target":34962,"byteStride":8},{"buffer":0,"byteOffset":25256,"byteLength":72,"target":34963},{"buffer":0,"byteOffset":25328,"byteLength":480,"target":34962,"byteStride":12},{"buffer":0,"byteOffset":25808,"byteLength":480,"target":34962,"byteStride":12},{"buffer":0,"byteOffset":26288,"byteLength":320,"target":34962,"byteStride":8},{"buffer":0,"byteOffset":26608,"byteLength":120,"target":34963},{"buffer":0,"byteOffset":26728,"byteLength":720,"target":34962,"byteStride":12},{"buffer":0,"byteOffset":27448,"byteLength":720,"target":34962,"byteStride":12},{"buffer":0,"byteOffset":28168,"byteLength":480,"target":34962,"byteStride":8},{"buffer":0,"byteOffset":28648,"byteLength":144,"target":34963},{"buffer":0,"byteOffset":28792,"byteLength":1152,"target":34962,"byteStride":12},{"buffer":0,"byteOffset":29944,"byteLength":1152,"target":34962,"byteStride":12},{"buffer":0,"byteOffset":31096,"byteLength":768,"target":34962,"byteStride":8},{"buffer":0,"byteOffset":31864,"byteLength":264,"target":34963},{"buffer":0,"byteOffset":32128,"byteLength":1176,"target":34962,"byteStride":12},{"buffer":0,"byteOffset":33304,"byteLength":1176,"target":34962,"byteStride":12},{"buffer":0,"byteOffset":34480,"byteLength":784,"target":34962,"byteStride":8},{"buffer":0,"byteOffset":35264,"byteLength":252,"target":34963},{"buffer":0,"byteOffset":35516,"byteLength":1152,"target":34962,"byteStride":12},{"buffer":0,"byteOffset":36668,"byteLength":1152,"target":34962,"byteStride":12},{"buffer":0,"byteOffset":37820,"byteLength":768,"target":34962,"byteStride":8},{"buffer":0,"byteOffset":38588,"byteLength":264,"target":34963},{"buffer":0,"byteOffset":38852,"byteLength":1152,"target":34962,"byteStride":12},{"buffer":0,"byteOffset":40004,"byteLength":1152,"target":34962,"byteStride":12},{"buffer":0,"byteOffset":41156,"byteLength":768,"target":34962,"byteStride":8},{"buffer":0,"byteOffset":41924,"byteLength":264,"target":34963},{"buffer":0,"byteOffset":42188,"byteLength":1152,"target":34962,"byteStride":12},{"buffer":0,"byteOffset":43340,"byteLength":1152,"target":34962,"byteStride":12},{"buffer":0,"byteOffset":44492,"byteLength":768,"target":34962,"byteStride":8},{"buffer":0,"byteOffset":45260,"byteLength":264,"target":34963},{"buffer":0,"byteOffset":45524,"byteLength":1152,"target":34962,"byteStride":12},{"buffer":0,"byteOffset":46676,"byteLength":1152,"target":34962,"byteStride":12},{"buffer":0,"byteOffset":47828,"byteLength":768,"target":34962,"byteStride":8},{"buffer":0,"byteOffset":48596,"byteLength":264,"target":34963},{"buffer":0,"byteOffset":48860,"byteLength":816,"target":34962,"byteStride":12},{"buffer":0,"byteOffset":49676,"byteLength":816,"target":34962,"byteStride":12},{"buffer":0,"byteOffset":50492,"byteLength":544,"target":34962,"byteStride":8},{"buffer":0,"byteOffset":51036,"byteLength":180,"target":34963},{"buffer":0,"byteOffset":51216,"byteLength":288,"target":34962,"byteStride":12},{"buffer":0,"byteOffset":51504,"byteLength":288,"target":34962,"byteStride":12},{"buffer":0,"byteOffset":51792,"byteLength":192,"target":34962,"byteStride":8},{"buffer":0,"byteOffset":51984,"byteLength":72,"target":34963},{"buffer":0,"byteOffset":52056,"byteLength":480,"target":34962,"byteStride":12},{"buffer":0,"byteOffset":52536,"byteLength":480,"target":34962,"byteStride":12},{"buffer":0,"byteOffset":53016,"byteLength":320,"target":34962,"byteStride":8},{"buffer":0,"byteOffset":53336,"byteLength":120,"target":34963}],"buffers":[{"byteLength":53456,"uri":"data:application/octet-stream;base64,"}],"accessors":[{"bufferView":0,"componentType":5126,"count":60,"max":[0.07431875169277191,0.12968750298023224,0.0625],"min":[-0.07431875169277191,-0.004687500186264515,-0.0625],"type":"VEC3"},{"bufferView":1,"componentType":5126,"count":60,"max":[0.8595527410507202,1,1],"min":[-0.8595527410507202,-1,-1],"type":"VEC3"},{"bufferView":2,"componentType":5126,"count":60,"max":[0.515625,0.53125],"min":[0.25,0.046875],"type":"VEC2"},{"bufferView":3,"componentType":5123,"count":72,"max":[59],"min":[0],"type":"SCALAR"},{"bufferView":4,"componentType":5126,"count":96,"max":[0.125,0.125,0.16734375059604645],"min":[-0.125,-0.125,-0.2045312523841858],"type":"VEC3"},{"bufferView":5,"componentType":5126,"count":96,"max":[1,1,1],"min":[-1,-1,-0.9131981730461121],"type":"VEC3"},{"bufferView":6,"componentType":5126,"count":96,"max":[0.5192111134529114,0.375],"min":[0.046875,0],"type":"VEC2"},{"bufferView":7,"componentType":5123,"count":132,"max":[95],"min":[0],"type":"SCALAR"},{"bufferView":8,"componentType":5126,"count":98,"max":[0.0784512534737587,0.07343749701976776,0.06888125091791153],"min":[-0.0784512534737587,-0.07343749701976776,-0.07954374700784683],"type":"VEC3"},{"bufferView":9,"componentType":5126,"count":98,"max":[0.9012085795402527,0.9219115376472473,0.9295031428337097],"min":[-0.9012065529823303,-0.9219115376472473,-0.8414731621742249],"type":"VEC3"},{"bufferView":10,"componentType":5126,"count":98,"max":[0.591796875,0.576171875],"min":[0.0625,0],"type":"VEC2"},{"bufferView":11,"componentType":5123,"count":126,"max":[97],"min":[0],"type":"SCALAR"},{"bufferView":12,"componentType":5126,"count":96,"max":[0.08124999701976776,0.17499999701976776,0.08437500149011612],"min":[-0.08124999701976776,-0.17499999701976776,-0.08437500149011612],"type":"VEC3"},{"bufferView":13,"componentType":5126,"count":96,"max":[1,1,0.9996047019958496],"min":[-1,-1,-0.9996047019958496],"type":"VEC3"},{"bufferView":14,"componentType":5126,"count":96,"max":[0.5625,0.5625],"min":[0.046875,0.04719221591949463],"type":"VEC2"},{"bufferView":15,"componentType":5123,"count":132,"max":[95],"min":[0],"type":"SCALAR"},{"bufferView":16,"componentType":5126,"count":96,"max":[0.04531250149011612,0.4375,0.04374999925494194],"min":[-0.04531250149011612,0.0625,-0.04374999925494194],"type":"VEC3"},{"bufferView":17,"componentType":5126,"count":96,"max":[1,1,1],"min":[-1,-1,-1],"type":"VEC3"},{"bufferView":18,"componentType":5126,"count":96,"max":[0.5625,0.6097031235694885],"min":[0.0002921874984167516,0.203125],"type":"VEC2"},{"bufferView":19,"componentType":5123,"count":132,"max":[95],"min":[0],"type":"SCALAR"},{"bufferView":20,"componentType":5126,"count":96,"max":[0.11289062350988388,0.19687500596046448,0.12031249701976776],"min":[-0.11210937798023224,-0.19687500596046448,-0.12031249701976776],"type":"VEC3"},{"bufferView":21,"componentType":5126,"count":96,"max":[0.9912599325180054,1,0.9922177791595459],"min":[-0.9862496256828308,-1,-0.9894943237304688],"type":"VEC3"},{"bufferView":22,"componentType":5126,"count":96,"max":[0.578125,0.53125],"min":[0.0475759357213974,0],"type":"VEC2"},{"bufferView":23,"componentType":5123,"count":132,"max":[95],"min":[0],"type":"SCALAR"},{"bufferView":24,"componentType":5126,"count":96,"max":[0.11289062350988388,0.19687500596046448,0.12031249701976776],"min":[-0.11210937798023224,-0.19687500596046448,-0.12031249701976776],"type":"VEC3"},{"bufferView":25,"componentType":5126,"count":96,"max":[0.9912599325180054,1,0.9922177791595459],"min":[-0.9862496256828308,-1,-0.9894943237304688],"type":"VEC3"},{"bufferView":26,"componentType":5126,"count":96,"max":[0.578125,0.53125],"min":[0.0475759357213974,0],"type":"VEC2"},{"bufferView":27,"componentType":5123,"count":132,"max":[95],"min":[0],"type":"SCALAR"},{"bufferView":28,"componentType":5126,"count":68,"max":[0.159768745303154,0.11557500064373016,0.24361437559127808],"min":[-0.1621062457561493,-0.07853687554597855,-0.18531562387943268],"type":"VEC3"},{"bufferView":29,"componentType":5126,"count":68,"max":[0.9722000956535339,0.9082221388816833,0.9810081720352173],"min":[-0.9721872806549072,-0.9782506823539734,-0.9986675381660461],"type":"VEC3"},{"bufferView":30,"componentType":5126,"count":68,"max":[0.5929046869277954,0.578959047794342],"min":[0,0.0017109513282775879],"type":"VEC2"},{"bufferView":31,"componentType":5123,"count":90,"max":[67],"min":[0],"type":"SCALAR"},{"bufferView":32,"componentType":5126,"count":24,"max":[0.09687499701976776,0.09687499701976776,0.01875000074505806],"min":[-0.09687499701976776,-0.09687499701976776,-0.01875000074505806],"type":"VEC3"},{"bufferView":33,"componentType":5126,"count":24,"max":[1,1,1],"min":[-1,-1,-1],"type":"VEC3"},{"bufferView":34,"componentType":5126,"count":24,"max":[0.546875,0.53125],"min":[0.078125,0.046875],"type":"VEC2"},{"bufferView":35,"componentType":5123,"count":36,"max":[23],"min":[0],"type":"SCALAR"},{"bufferView":36,"componentType":5126,"count":40,"max":[0.07500000298023224,0.1875,0.07968749850988388],"min":[-0.03750000149011612,0,-0.07968749850988388],"type":"VEC3"},{"bufferView":37,"componentType":5126,"count":40,"max":[1,1,1],"min":[-0.999687671661377,-1,-1],"type":"VEC3"},{"bufferView":38,"componentType":5126,"count":40,"max":[0.4505859315395355,0.546875],"min":[0.03125,0.046875],"type":"VEC2"},{"bufferView":39,"componentType":5123,"count":60,"max":[39],"min":[0],"type":"SCALAR"},{"bufferView":40,"componentType":5126,"count":60,"max":[0.07431875169277191,0.12968750298023224,0.0625],"min":[-0.07431875169277191,-0.004687500186264515,-0.0625],"type":"VEC3"},{"bufferView":41,"componentType":5126,"count":60,"max":[0.8595527410507202,1,1],"min":[-0.8595527410507202,-1,-1],"type":"VEC3"},{"bufferView":42,"componentType":5126,"count":60,"max":[0.515625,0.53125],"min":[0.25,0.046875],"type":"VEC2"},{"bufferView":43,"componentType":5123,"count":72,"max":[59],"min":[0],"type":"SCALAR"},{"bufferView":44,"componentType":5126,"count":96,"max":[0.125,0.125,0.2045312523841858],"min":[-0.125,-0.125,-0.16734375059604645],"type":"VEC3"},{"bufferView":45,"componentType":5126,"count":96,"max":[1,1,0.9131981730461121],"min":[-1,-1,-1],"type":"VEC3"},{"bufferView":46,"componentType":5126,"count":96,"max":[0.5192111134529114,0.375],"min":[0.046875,0],"type":"VEC2"},{"bufferView":47,"componentType":5123,"count":132,"max":[95],"min":[0],"type":"SCALAR"},{"bufferView":48,"componentType":5126,"count":98,"max":[0.0784512534737587,0.07343749701976776,0.07954374700784683],"min":[-0.0784512534737587,-0.07343749701976776,-0.06888125091791153],"type":"VEC3"},{"bufferView":49,"componentType":5126,"count":98,"max":[0.9012085795402527,0.9219115376472473,0.8414731621742249],"min":[-0.9012065529823303,-0.9219115376472473,-0.9295031428337097],"type":"VEC3"},{"bufferView":50,"componentType":5126,"count":98,"max":[0.591796875,0.576171875],"min":[0.0625,0],"type":"VEC2"},{"bufferView":51,"componentType":5123,"count":126,"max":[97],"min":[0],"type":"SCALAR"},{"bufferView":52,"componentType":5126,"count":96,"max":[0.08124999701976776,0.17499999701976776,0.08437500149011612],"min":[-0.08124999701976776,-0.17499999701976776,-0.08437500149011612],"type":"VEC3"},{"bufferView":53,"componentType":5126,"count":96,"max":[1,1,0.9996047019958496],"min":[-1,-1,-0.9996047019958496],"type":"VEC3"},{"bufferView":54,"componentType":5126,"count":96,"max":[0.5625,0.5625],"min":[0.046875,0.04719221591949463],"type":"VEC2"},{"bufferView":55,"componentType":5123,"count":132,"max":[95],"min":[0],"type":"SCALAR"},{"bufferView":56,"componentType":5126,"count":96,"max":[0.04531250149011612,0.4375,0.04374999925494194],"min":[-0.04531250149011612,0.0625,-0.04374999925494194],"type":"VEC3"},{"bufferView":57,"componentType":5126,"count":96,"max":[1,1,1],"min":[-1,-1,-1],"type":"VEC3"},{"bufferView":58,"componentType":5126,"count":96,"max":[0.5625,0.6097031235694885],"min":[0.0002921874984167516,0.203125],"type":"VEC2"},{"bufferView":59,"componentType":5123,"count":132,"max":[95],"min":[0],"type":"SCALAR"},{"bufferView":60,"componentType":5126,"count":96,"max":[0.11289062350988388,0.19687500596046448,0.12031249701976776],"min":[-0.11210937798023224,-0.19687500596046448,-0.12031249701976776],"type":"VEC3"},{"bufferView":61,"componentType":5126,"count":96,"max":[0.9912599325180054,1,0.9894943237304688],"min":[-0.9862496256828308,-1,-0.9922177791595459],"type":"VEC3"},{"bufferView":62,"componentType":5126,"count":96,"max":[0.578125,0.53125],"min":[0.0475759357213974,0],"type":"VEC2"},{"bufferView":63,"componentType":5123,"count":132,"max":[95],"min":[0],"type":"SCALAR"},{"bufferView":64,"componentType":5126,"count":96,"max":[0.11289062350988388,0.19687500596046448,0.12031249701976776],"min":[-0.11210937798023224,-0.19687500596046448,-0.12031249701976776],"type":"VEC3"},{"bufferView":65,"componentType":5126,"count":96,"max":[0.9912599325180054,1,0.9894943237304688],"min":[-0.9862496256828308,-1,-0.9922177791595459],"type":"VEC3"},{"bufferView":66,"componentType":5126,"count":96,"max":[0.578125,0.53125],"min":[0.0475759357213974,0],"type":"VEC2"},{"bufferView":67,"componentType":5123,"count":132,"max":[95],"min":[0],"type":"SCALAR"},{"bufferView":68,"componentType":5126,"count":68,"max":[0.159768745303154,0.11557500064373016,0.18531562387943268],"min":[-0.1621062457561493,-0.07853687554597855,-0.24361437559127808],"type":"VEC3"},{"bufferView":69,"componentType":5126,"count":68,"max":[0.9722000956535339,0.9082221388816833,0.9986675381660461],"min":[-0.9721872806549072,-0.9782506823539734,-0.9810081720352173],"type":"VEC3"},{"bufferView":70,"componentType":5126,"count":68,"max":[0.5929046869277954,0.578959047794342],"min":[0,0.0017109513282775879],"type":"VEC2"},{"bufferView":71,"componentType":5123,"count":90,"max":[67],"min":[0],"type":"SCALAR"},{"bufferView":72,"componentType":5126,"count":24,"max":[0.09687499701976776,0.09687499701976776,0.01875000074505806],"min":[-0.09687499701976776,-0.09687499701976776,-0.01875000074505806],"type":"VEC3"},{"bufferView":73,"componentType":5126,"count":24,"max":[1,1,1],"min":[-1,-1,-1],"type":"VEC3"},{"bufferView":74,"componentType":5126,"count":24,"max":[0.546875,0.53125],"min":[0.078125,0.046875],"type":"VEC2"},{"bufferView":75,"componentType":5123,"count":36,"max":[23],"min":[0],"type":"SCALAR"},{"bufferView":76,"componentType":5126,"count":40,"max":[0.07500000298023224,0.1875,0.07968749850988388],"min":[-0.03750000149011612,0,-0.07968749850988388],"type":"VEC3"},{"bufferView":77,"componentType":5126,"count":40,"max":[1,1,1],"min":[-0.999687671661377,-1,-1],"type":"VEC3"},{"bufferView":78,"componentType":5126,"count":40,"max":[0.4505859315395355,0.546875],"min":[0.03125,0.046875],"type":"VEC2"},{"bufferView":79,"componentType":5123,"count":60,"max":[39],"min":[0],"type":"SCALAR"}],"materials":[{"pbrMetallicRoughness":{"metallicFactor":0,"roughnessFactor":1,"baseColorTexture":{"index":0}},"alphaMode":"MASK","alphaCutoff":0.05,"doubleSided":true}],"textures":[{"sampler":0,"source":0,"name":"RangedArm.png"}],"samplers":[{"magFilter":9728,"minFilter":9728,"wrapS":33071,"wrapT":33071}],"images":[{"mimeType":"image/png","uri":"data:image/png;base64,"}],"meshes":[{"primitives":[{"mode":4,"attributes":{"POSITION":0,"NORMAL":1,"TEXCOORD_0":2},"indices":3,"material":0}]},{"primitives":[{"mode":4,"attributes":{"POSITION":4,"NORMAL":5,"TEXCOORD_0":6},"indices":7,"material":0}]},{"primitives":[{"mode":4,"attributes":{"POSITION":8,"NORMAL":9,"TEXCOORD_0":10},"indices":11,"material":0}]},{"primitives":[{"mode":4,"attributes":{"POSITION":12,"NORMAL":13,"TEXCOORD_0":14},"indices":15,"material":0}]},{"primitives":[{"mode":4,"attributes":{"POSITION":16,"NORMAL":17,"TEXCOORD_0":18},"indices":19,"material":0}]},{"primitives":[{"mode":4,"attributes":{"POSITION":20,"NORMAL":21,"TEXCOORD_0":22},"indices":23,"material":0}]},{"primitives":[{"mode":4,"attributes":{"POSITION":24,"NORMAL":25,"TEXCOORD_0":26},"indices":27,"material":0}]},{"primitives":[{"mode":4,"attributes":{"POSITION":28,"NORMAL":29,"TEXCOORD_0":30},"indices":31,"material":0}]},{"primitives":[{"mode":4,"attributes":{"POSITION":32,"NORMAL":33,"TEXCOORD_0":34},"indices":35,"material":0}]},{"primitives":[{"mode":4,"attributes":{"POSITION":36,"NORMAL":37,"TEXCOORD_0":38},"indices":39,"material":0}]},{"primitives":[{"mode":4,"attributes":{"POSITION":40,"NORMAL":41,"TEXCOORD_0":42},"indices":43,"material":0}]},{"primitives":[{"mode":4,"attributes":{"POSITION":44,"NORMAL":45,"TEXCOORD_0":46},"indices":47,"material":0}]},{"primitives":[{"mode":4,"attributes":{"POSITION":48,"NORMAL":49,"TEXCOORD_0":50},"indices":51,"material":0}]},{"primitives":[{"mode":4,"attributes":{"POSITION":52,"NORMAL":53,"TEXCOORD_0":54},"indices":55,"material":0}]},{"primitives":[{"mode":4,"attributes":{"POSITION":56,"NORMAL":57,"TEXCOORD_0":58},"indices":59,"material":0}]},{"primitives":[{"mode":4,"attributes":{"POSITION":60,"NORMAL":61,"TEXCOORD_0":62},"indices":63,"material":0}]},{"primitives":[{"mode":4,"attributes":{"POSITION":64,"NORMAL":65,"TEXCOORD_0":66},"indices":67,"material":0}]},{"primitives":[{"mode":4,"attributes":{"POSITION":68,"NORMAL":69,"TEXCOORD_0":70},"indices":71,"material":0}]},{"primitives":[{"mode":4,"attributes":{"POSITION":72,"NORMAL":73,"TEXCOORD_0":74},"indices":75,"material":0}]},{"primitives":[{"mode":4,"attributes":{"POSITION":76,"NORMAL":77,"TEXCOORD_0":78},"indices":79,"material":0}]}]}