# Made in Blockbench 4.12.5
mtllib MeleeHead.mtl

o Head
v 0.0714925 2.059129375 0.059679375
v 0.0714925 2.059129375 -0.071570625
v -0.0535075 2.059129375 0.059679375
v -0.0535075 2.059129375 -0.071570625
v 0.0714925 1.746629375 0.059679375
v 0.0714925 1.746629375 -0.071570625
v -0.0535075 1.746629375 0.059679375
v -0.0535075 1.746629375 -0.071570625
v -0.1160075 1.758348125 0.059679375
v -0.1160075 1.981004375 0.059679375
v -0.1160075 1.758348125 -0.071570625
v -0.1160075 1.981004375 -0.071570625
v 0.13399250000000001 1.824754375 0.059679375
v 0.13399250000000001 1.981004375 0.059679375
v 0.13399250000000001 1.824754375 -0.071570625
v 0.13399250000000001 1.981004375 -0.071570625
v 0.0714925 1.746629375 -0.13719562500000002
v 0.0714925 1.981004375 -0.13719562500000002
v -0.0535075 1.746629375 -0.13719562500000002
v -0.0535075 1.981004375 -0.13719562500000002
v 0.0714925 1.746629375 0.125304375
v 0.0714925 1.981004375 0.125304375
v -0.0535075 1.746629375 0.125304375
v -0.0535075 1.981004375 0.125304375
vt 0.0875 0.95231875
vt 0.0296875 0.95231875
vt 0.0296875 0.87419375
vt 0.0875 0.87419375
vt 0.214453125 0.684740625
vt 0.214453125 0.79606875
vt 0.156640625 0.79606875
vt 0.156640625 0.684740625
vt 0.15625 0.5625
vt 0.15625 0.625
vt 0.09375 0.625
vt 0.09375 0.5625
vt 0.18585625 0.91171875
vt 0.24054375 0.91171875
vt 0.24054375 0.96953125
vt 0.18585625 0.96953125
vt 0.0625 0.65625
vt 0.0625 0.78125
vt 0 0.78125
vt 0 0.65625
vt 0.3125 0.84375
vt 0.25 0.84375
vt 0.25 0.71875
vt 0.3125 0.71875
vt 0.0875 1
vt 0.0296875 1
vt 0.0296875 0.95231875
vt 0.0875 0.95231875
vt 0.214453125 0.79606875
vt 0.214453125 0.84375
vt 0.156640625 0.84375
vt 0.156640625 0.79606875
vt 0.5 0.9375
vt 0.5 1
vt 0.4375 1
vt 0.4375 0.9375
vt 0.5 0.90625
vt 0.4375 0.90625
vt 0.4375 0.84375
vt 0.5 0.84375
vt 0.0296875 0.87419375
vt 0.0296875 0.8265125
vt 0.0875 0.8265125
vt 0.0875 0.87419375
vt 0.18585625 0.91171875
vt 0.18585625 0.96953125
vt 0.15789375 0.96953125
vt 0.15789375 0.91171875
vt 0.18585625 0.96953125
vt 0.24054375 0.96953125
vt 0.24054375 0.9984375
vt 0.18585625 0.9984375
vt 0.24054375 0.8828125
vt 0.24054375 0.91171875
vt 0.18585625 0.91171875
vt 0.18585625 0.8828125
vt 0.25 0.565553125
vt 0.289790625 0.526490625
vt 0.289790625 0.643678125
vt 0.25 0.643678125
vt 0.346928125 0.956178125
vt 0.346928125 0.838990625
vt 0.38671875 0.878053125
vt 0.38671875 0.956178125
vt 0.346928125 0.737428125
vt 0.346928125 0.620240625
vt 0.38671875 0.6261
vt 0.38671875 0.737428125
vt 0 0.46985
vt 0.039790625 0.463990625
vt 0.039790625 0.581178125
vt 0 0.581178125
vt 0.0296875 0.8265125
vt 0.0296875 0.87419375
vt 0.00078125 0.8265125
vt 0.18585625 0.96953125
vt 0.18585625 0.9984375
vt 0.15789375 0.96953125
vt 0.0875 0.8265125
vt 0.11640625 0.8265125
vt 0.0875 0.87419375
vt 0.18585625 0.91171875
vt 0.15789375 0.91171875
vt 0.18585625 0.8828125
vt 0.367928125 1
vt 0.346928125 0.956178125
vt 0.38671875 0.956178125
vt 0.018790625 0.625
vt 0 0.581178125
vt 0.039790625 0.581178125
vt 0.268790625 0.6875
vt 0.25 0.643678125
vt 0.289790625 0.643678125
vt 0.367928125 0.78125
vt 0.346928125 0.737428125
vt 0.38671875 0.737428125
vn 1 0 0
vn -1 0 0
vn 0 1 0
vn 0 -1 0
vn 0 0 1
vn 0 0 -1
vn 0.7808688094430305 0.6246950475544244 0
vn -0.7808688094430305 0.6246950475544244 0
vn 0 0.6431920864232733 0.7657048647896111
vn 0 0.6431920864232733 -0.7657048647896111
vn 0.7808688094430305 -0.6246950475544244 0
vn -0.18428853505018536 -0.9828721869343219 0
vn 0 -1 0
vn 0 -1 0
vn 0.7241379310344828 0 -0.6896551724137931
vn 0.7241379310344828 0 0.6896551724137931
vn -0.7241379310344828 0 -0.6896551724137931
vn -0.7241379310344828 0 0.6896551724137931
vn 0.7808688094430305 -0.6246950475544244 0
vn -0.18428853505018536 -0.9828721869343219 0
vn 0.7808688094430305 -0.6246950475544244 0
vn -0.18428853505018536 -0.9828721869343219 0
vn 0.626589357665929 0.5012714861327433 0.5967517692056468
vn -0.626589357665929 0.5012714861327433 0.5967517692056468
vn 0.626589357665929 0.5012714861327433 -0.5967517692056468
vn -0.626589357665929 0.5012714861327433 -0.5967517692056468
usemtl m_f4d2e14a-ef7a-2c8a-2625-1a43d9f55611
f 16/1/1 14/2/1 13/3/1 15/4/1
f 9/5/2 10/6/2 12/7/2 11/8/2
f 1/9/3 2/10/3 4/11/3 3/12/3
f 8/13/4 6/14/4 5/15/4 7/16/4
f 21/17/5 22/18/5 24/19/5 23/20/5
f 20/21/6 18/22/6 17/23/6 19/24/6
f 2/25/7 1/26/7 14/27/7 16/28/7
f 10/29/8 3/30/8 4/31/8 12/32/8
f 22/33/9 1/34/9 3/35/9 24/36/9
f 4/37/10 2/38/10 18/39/10 20/40/10
f 13/41/11 5/42/11 6/43/11 15/44/11
f 8/45/12 7/46/12 9/47/12 11/48/12
f 7/49/13 5/50/13 21/51/13 23/52/13
f 17/53/14 6/54/14 8/55/14 19/56/14
f 15/57/15 17/58/15 18/59/15 16/60/15
f 22/61/16 21/62/16 13/63/16 14/64/16
f 20/65/17 19/66/17 11/67/17 12/68/17
f 9/69/18 23/70/18 24/71/18 10/72/18
f 5/73/19 13/74/19 21/75/19
f 7/76/20 23/77/20 9/78/20
f 6/79/21 17/80/21 15/81/21
f 8/82/22 11/83/22 19/84/22
f 1/85/23 22/86/23 14/87/23
f 3/88/24 10/89/24 24/90/24
f 2/91/25 16/92/25 18/93/25
f 4/94/26 20/95/26 12/96/26