{"asset":{"version":"2.0","generator":"Blockbench 4.12.5 glTF exporter"},"scenes":[{"nodes":[11],"name":"blockbench_export"}],"scene":0,"nodes":[{"translation":[0.0622775,-0.2228643749999999,0.000631875],"name":"LowerTorso","mesh":0},{"translation":[0.035715,-0.15880187499999998,0.000631875],"name":"Torso","mesh":1},{"rotation":[0,-0.08715574274765817,0,0.9961946980917455],"translation":[-0.2752225,0.013073125000000019,0.006881875],"name":"core","mesh":2},{"rotation":[0.0196336924606283,0,0,0.9998072404820648],"translation":[-0.150465625,-0.03193500000000005,-0.030281875],"name":"cube","mesh":3},{"translation":[0.010471874999999999,-0.017872499999999958,-0.255281875],"name":"Loop2","mesh":4},{"rotation":[0.7223639620597555,0,0,0.6915130557822694],"translation":[0.019846875,-0.2553725,-0.031844374999999994],"name":"Loop3","mesh":5},{"rotation":[-0.3826834323650898,0,0,0.9238795325112867],"translation":[-0.031006875000000003,0.06038187500000003,0.00018874999999999995],"name":"core","children":[3,4,5]},{"rotation":[0,-0.0762839745039523,0,0.9970861323044666],"translation":[0.0466525,-0.022864374999995052,-0.011868125],"name":"MidPart","mesh":6},{"rotation":[0.6675077247298473,0,0,0.7446028722923262],"translation":[0.03884,0.049010624999999974,-0.20561812499999998],"name":"Armor1","mesh":7},{"rotation":[-0.6675077247298473,0,0,0.7446028722923262],"translation":[0.03883999999999999,0.05526062499999962,0.205319375],"name":"Armor2","mesh":8},{"rotation":[0,0.08715574274765817,0,0.9961946980917455],"translation":[-0.035715,1.600989375,-0.000631875],"name":"Torso","children":[0,1,2,6,7,8,9]},{"children":[10]}],"bufferViews":[{"buffer":0,"byteOffset":0,"byteLength":288,"target":34962,"byteStride":12},{"buffer":0,"byteOffset":288,"byteLength":288,"target":34962,"byteStride":12},{"buffer":0,"byteOffset":576,"byteLength":192,"target":34962,"byteStride":8},{"buffer":0,"byteOffset":768,"byteLength":72,"target":34963},{"buffer":0,"byteOffset":840,"byteLength":600,"target":34962,"byteStride":12},{"buffer":0,"byteOffset":1440,"byteLength":600,"target":34962,"byteStride":12},{"buffer":0,"byteOffset":2040,"byteLength":400,"target":34962,"byteStride":8},{"buffer":0,"byteOffset":2440,"byteLength":144,"target":34963},{"buffer":0,"byteOffset":2584,"byteLength":1176,"target":34962,"byteStride":12},{"buffer":0,"byteOffset":3760,"byteLength":1176,"target":34962,"byteStride":12},{"buffer":0,"byteOffset":4936,"byteLength":784,"target":34962,"byteStride":8},{"buffer":0,"byteOffset":5720,"byteLength":252,"target":34963},{"buffer":0,"byteOffset":5972,"byteLength":288,"target":34962,"byteStride":12},{"buffer":0,"byteOffset":6260,"byteLength":288,"target":34962,"byteStride":12},{"buffer":0,"byteOffset":6548,"byteLength":192,"target":34962,"byteStride":8},{"buffer":0,"byteOffset":6740,"byteLength":72,"target":34963},{"buffer":0,"byteOffset":6812,"byteLength":744,"target":34962,"byteStride":12},{"buffer":0,"byteOffset":7556,"byteLength":744,"target":34962,"byteStride":12},{"buffer":0,"byteOffset":8300,"byteLength":496,"target":34962,"byteStride":8},{"buffer":0,"byteOffset":8796,"byteLength":168,"target":34963},{"buffer":0,"byteOffset":8964,"byteLength":744,"target":34962,"byteStride":12},{"buffer":0,"byteOffset":9708,"byteLength":744,"target":34962,"byteStride":12},{"buffer":0,"byteOffset":10452,"byteLength":496,"target":34962,"byteStride":8},{"buffer":0,"byteOffset":10948,"byteLength":168,"target":34963},{"buffer":0,"byteOffset":11116,"byteLength":840,"target":34962,"byteStride":12},{"buffer":0,"byteOffset":11956,"byteLength":840,"target":34962,"byteStride":12},{"buffer":0,"byteOffset":12796,"byteLength":560,"target":34962,"byteStride":8},{"buffer":0,"byteOffset":13356,"byteLength":168,"target":34963},{"buffer":0,"byteOffset":13524,"byteLength":720,"target":34962,"byteStride":12},{"buffer":0,"byteOffset":14244,"byteLength":720,"target":34962,"byteStride":12},{"buffer":0,"byteOffset":14964,"byteLength":480,"target":34962,"byteStride":8},{"buffer":0,"byteOffset":15444,"byteLength":144,"target":34963},{"buffer":0,"byteOffset":15588,"byteLength":720,"target":34962,"byteStride":12},{"buffer":0,"byteOffset":16308,"byteLength":720,"target":34962,"byteStride":12},{"buffer":0,"byteOffset":17028,"byteLength":480,"target":34962,"byteStride":8},{"buffer":0,"byteOffset":17508,"byteLength":144,"target":34963}],"buffers":[{"byteLength":17652,"uri":"data:application/octet-stream;base64,"}],"accessors":[{"bufferView":0,"componentType":5126,"count":24,"max":[0.125,0.125,0.12343750149011612],"min":[-0.125,0,-0.125],"type":"VEC3"},{"bufferView":1,"componentType":5126,"count":24,"max":[1,1,0.997199296951294],"min":[-1,-1,-0.9961937069892883],"type":"VEC3"},{"bufferView":2,"componentType":5126,"count":24,"max":[0.796679675579071,0.765625],"min":[0.09375,0.09375],"type":"VEC2"},{"bufferView":3,"componentType":5123,"count":36,"max":[23],"min":[0],"type":"SCALAR"},{"bufferView":4,"componentType":5126,"count":50,"max":[0.28125,0.375,0.15625],"min":[-0.26875001192092896,0,-0.15625],"type":"VEC3"},{"bufferView":5,"componentType":5126,"count":50,"max":[1,1,1],"min":[-0.7310552597045898,-1,-1],"type":"VEC3"},{"bufferView":6,"componentType":5126,"count":50,"max":[0.765625,0.701171875],"min":[0,0.03125],"type":"VEC2"},{"bufferView":7,"componentType":5123,"count":72,"max":[49],"min":[0],"type":"SCALAR"},{"bufferView":8,"componentType":5126,"count":98,"max":[0.058255624026060104,0.05000000074505806,0.05156249925494194],"min":[-0.058255624026060104,-0.05000000074505806,-0.058432500809431076],"type":"VEC3"},{"bufferView":9,"componentType":5126,"count":98,"max":[0.8891713619232178,0.9331250786781311,0.9180418252944946],"min":[-0.8891711235046387,-0.9331250786781311,-0.8312501907348633],"type":"VEC3"},{"bufferView":10,"componentType":5126,"count":98,"max":[0.513671875,0.833984375],"min":[0.00035468750866129994,0.140625],"type":"VEC2"},{"bufferView":11,"componentType":5123,"count":126,"max":[97],"min":[0],"type":"SCALAR"},{"bufferView":12,"componentType":5126,"count":24,"max":[0.0625,0.0625,0.0625],"min":[-0.0625,-0.0625,-0.0625],"type":"VEC3"},{"bufferView":13,"componentType":5126,"count":24,"max":[1,1,1],"min":[-1,-1,-1],"type":"VEC3"},{"bufferView":14,"componentType":5126,"count":24,"max":[0.796875,0.8125],"min":[0.09375,0.640625],"type":"VEC2"},{"bufferView":15,"componentType":5123,"count":36,"max":[23],"min":[0],"type":"SCALAR"},{"bufferView":16,"componentType":5126,"count":62,"max":[0.3292999863624573,0.02500000037252903,0.1438818722963333],"min":[-0.2902374863624573,-0.024036874994635582,-0.07500000298023224],"type":"VEC3"},{"bufferView":17,"componentType":5126,"count":62,"max":[1,1,1],"min":[-1,-1,-1],"type":"VEC3"},{"bufferView":18,"componentType":5126,"count":62,"max":[0.8430671691894531,0.788761556148529],"min":[0.00016328124911524355,0.046875],"type":"VEC2"},{"bufferView":19,"componentType":5123,"count":84,"max":[61],"min":[0],"type":"SCALAR"},{"bufferView":20,"componentType":5126,"count":62,"max":[0.3292999863624573,0.02500000037252903,0.07500000298023224],"min":[-0.2902374863624573,-0.024036874994635582,-0.1438818722963333],"type":"VEC3"},{"bufferView":21,"componentType":5126,"count":62,"max":[1,1,1],"min":[-1,-1,-1],"type":"VEC3"},{"bufferView":22,"componentType":5126,"count":62,"max":[0.8430671691894531,0.796875],"min":[0.359375,0.20500624179840088],"type":"VEC2"},{"bufferView":23,"componentType":5123,"count":84,"max":[61],"min":[0],"type":"SCALAR"},{"bufferView":24,"componentType":5126,"count":70,"max":[0.31148749589920044,0.05624999850988388,0.26766687631607056],"min":[-0.32674187421798706,0.0062500000931322575,-0.29176437854766846],"type":"VEC3"},{"bufferView":25,"componentType":5126,"count":70,"max":[0.9754000306129456,1,0.9978521466255188],"min":[-0.9754005074501038,-1,-0.9243768453598022],"type":"VEC3"},{"bufferView":26,"componentType":5126,"count":70,"max":[0.8125,0.625],"min":[0,0.0007671713829040527],"type":"VEC2"},{"bufferView":27,"componentType":5123,"count":84,"max":[69],"min":[0],"type":"SCALAR"},{"bufferView":28,"componentType":5126,"count":60,"max":[0.2432156205177307,0.0625,0.21875],"min":[-0.2432156205177307,0,-0.21875],"type":"VEC3"},{"bufferView":29,"componentType":5126,"count":60,"max":[0.8740218877792358,1,1],"min":[-0.8740218877792358,-1,-1],"type":"VEC3"},{"bufferView":30,"componentType":5126,"count":60,"max":[0.84375,0.796875],"min":[0.20384453237056732,0],"type":"VEC2"},{"bufferView":31,"componentType":5123,"count":72,"max":[59],"min":[0],"type":"SCALAR"},{"bufferView":32,"componentType":5126,"count":60,"max":[0.2588406205177307,0.0625,0.21875],"min":[-0.2588406205177307,0,-0.21875],"type":"VEC3"},{"bufferView":33,"componentType":5126,"count":60,"max":[0.8606529831886292,1,1],"min":[-0.8606529831886292,-1,-1],"type":"VEC3"},{"bufferView":34,"componentType":5126,"count":60,"max":[0.859375,0.796875],"min":[0.0007195312646217644,0.453125],"type":"VEC2"},{"bufferView":35,"componentType":5123,"count":72,"max":[59],"min":[0],"type":"SCALAR"}],"materials":[{"pbrMetallicRoughness":{"metallicFactor":0,"roughnessFactor":1,"baseColorTexture":{"index":0}},"alphaMode":"MASK","alphaCutoff":0.05,"doubleSided":true}],"textures":[{"sampler":0,"source":0,"name":"HeavyTorso.png"}],"samplers":[{"magFilter":9728,"minFilter":9728,"wrapS":33071,"wrapT":33071}],"images":[{"mimeType":"image/png","uri":"data:image/png;base64,"}],"meshes":[{"primitives":[{"mode":4,"attributes":{"POSITION":0,"NORMAL":1,"TEXCOORD_0":2},"indices":3,"material":0}]},{"primitives":[{"mode":4,"attributes":{"POSITION":4,"NORMAL":5,"TEXCOORD_0":6},"indices":7,"material":0}]},{"primitives":[{"mode":4,"attributes":{"POSITION":8,"NORMAL":9,"TEXCOORD_0":10},"indices":11,"material":0}]},{"primitives":[{"mode":4,"attributes":{"POSITION":12,"NORMAL":13,"TEXCOORD_0":14},"indices":15,"material":0}]},{"primitives":[{"mode":4,"attributes":{"POSITION":16,"NORMAL":17,"TEXCOORD_0":18},"indices":19,"material":0}]},{"primitives":[{"mode":4,"attributes":{"POSITION":20,"NORMAL":21,"TEXCOORD_0":22},"indices":23,"material":0}]},{"primitives":[{"mode":4,"attributes":{"POSITION":24,"NORMAL":25,"TEXCOORD_0":26},"indices":27,"material":0}]},{"primitives":[{"mode":4,"attributes":{"POSITION":28,"NORMAL":29,"TEXCOORD_0":30},"indices":31,"material":0}]},{"primitives":[{"mode":4,"attributes":{"POSITION":32,"NORMAL":33,"TEXCOORD_0":34},"indices":35,"material":0}]}]}