{
	"asset":{
		"generator":"Khronos glTF Blender I/O v4.4.56",
		"version":"2.0"
	},
	"scene":0,
	"scenes":[
		{
			"name":"Scene",
			"nodes":[
				47
			]
		}
	],
	"nodes":[
		{
			"name":"Base",
			"rotation":[
				0.009011931717395782,
				-0.020783813670277596,
				-0.0008069493342190981,
				0.9997430443763733
			],
			"scale":[
				1.5001113414764404,
				1.5001111030578613,
				1.50011146068573
			],
			"translation":[
				0.002669205190613866,
				0.25824615359306335,
				-0.05183805152773857
			]
		},
		{
			"name":"canon",
			"rotation":[
				0.7065046429634094,
				1.2248925429503288e-07,
				0.029171766713261604,
				0.70710688829422
			],
			"scale":[
				1.0000001192092896,
				1,
				1
			],
			"translation":[
				-0.020161950960755348,
				0.7613363265991211,
				0.48829975724220276
			]
		},
		{
			"children":[
				1
			],
			"name":"head",
			"rotation":[
				-0.14967361092567444,
				6.684721483907197e-06,
				-0.007185277994722128,
				0.9887093901634216
			],
			"scale":[
				1,
				0.9999998211860657,
				1.0000001192092896
			],
			"translation":[
				2.3283064365386963e-09,
				1,
				7.210473995655775e-09
			]
		},
		{
			"name":"lowerfrontleg.l",
			"rotation":[
				0.8671510815620422,
				-0.07064898312091827,
				0.15143994987010956,
				0.4691733717918396
			],
			"scale":[
				1,
				0.9999997615814209,
				0.9999997615814209
			],
			"translation":[
				5.494803190231323e-08,
				0.8886210918426514,
				-4.6566128730773926e-09
			]
		},
		{
			"children":[
				3
			],
			"name":"upperfrontleg.l",
			"rotation":[
				-0.5590946078300476,
				0.24094291031360626,
				0.7416553497314453,
				0.2816152572631836
			],
			"scale":[
				0.9999995827674866,
				0.9999998211860657,
				0.9999999403953552
			],
			"translation":[
				-0.46237826347351074,
				0.8956706523895264,
				0.328302264213562
			]
		},
		{
			"name":"lowerfrontleg.r",
			"rotation":[
				0.8665904402732849,
				0.060126785188913345,
				-0.15461625158786774,
				0.4706375002861023
			],
			"scale":[
				1.0000001192092896,
				1,
				1.000000238418579
			],
			"translation":[
				3.632158041000366e-08,
				0.8886210918426514,
				4.0978193283081055e-08
			]
		},
		{
			"children":[
				5
			],
			"name":"upperfrontleg.r",
			"rotation":[
				-0.5248412489891052,
				-0.24935194849967957,
				-0.7653636336326599,
				0.2767377197742462
			],
			"scale":[
				0.9999998807907104,
				1,
				1
			],
			"translation":[
				0.4542698562145233,
				0.898758590221405,
				0.35554006695747375
			]
		},
		{
			"name":"backleglowewr",
			"rotation":[
				-0.8762324452400208,
				0.002459125593304634,
				-0.09193694591522217,
				0.4730309545993805
			],
			"scale":[
				0.9999999403953552,
				0.9999999403953552,
				0.9999998807907104
			],
			"translation":[
				-3.725290298461914e-09,
				0.8980261087417603,
				-1.1175870895385742e-08
			]
		},
		{
			"children":[
				7
			],
			"name":"backlegupper",
			"rotation":[
				-0.027823835611343384,
				-0.5643084645271301,
				0.8244519829750061,
				0.03256910666823387
			],
			"scale":[
				1.0000001192092896,
				1,
				0.9999999403953552
			],
			"translation":[
				0.041256874799728394,
				1.1775201559066772,
				-0.3258117437362671
			]
		},
		{
			"children":[
				4,
				6,
				8
			],
			"name":"body",
			"rotation":[
				-0.024300776422023773,
				-0.03436591848731041,
				0.9991137385368347,
				0.00040001218440011144
			],
			"scale":[
				0.9999999403953552,
				1.000000238418579,
				1.0000001192092896
			],
			"translation":[
				2.3283064365386963e-09,
				1,
				7.210473995655775e-09
			]
		},
		{
			"mesh":0,
			"name":"Base.001",
			"skin":0
		},
		{
			"name":"Canon",
			"rotation":[
				-0.14317728579044342,
				-0.0204191692173481,
				-0.00395926320925355,
				0.989478588104248
			],
			"scale":[
				1.5001113414764404,
				1.5001109838485718,
				1.5001113414764404
			],
			"translation":[
				-0.005129110999405384,
				0.6368399858474731,
				0.15383724868297577
			]
		},
		{
			"mesh":1,
			"name":"Cover",
			"skin":0
		},
		{
			"mesh":2,
			"name":"Cover.001",
			"skin":0
		},
		{
			"mesh":3,
			"name":"Cover.002",
			"skin":0
		},
		{
			"mesh":4,
			"name":"cylinder",
			"skin":0
		},
		{
			"mesh":5,
			"name":"Foot",
			"skin":0
		},
		{
			"mesh":6,
			"name":"Foot.001",
			"skin":0
		},
		{
			"mesh":7,
			"name":"Foot.002",
			"skin":0
		},
		{
			"mesh":8,
			"name":"Inner",
			"skin":0
		},
		{
			"mesh":9,
			"name":"Joint",
			"skin":0
		},
		{
			"mesh":10,
			"name":"Joint.001",
			"skin":0
		},
		{
			"mesh":11,
			"name":"Joint.002",
			"skin":0
		},
		{
			"name":"Leg",
			"rotation":[
				-0.14064033329486847,
				-0.23409755527973175,
				0.02712382562458515,
				0.9616044759750366
			],
			"scale":[
				1.5001113414764404,
				1.5001109838485718,
				1.50011146068573
			],
			"translation":[
				0.8749836683273315,
				0.251692533493042,
				0.49914854764938354
			]
		},
		{
			"mesh":12,
			"name":"Leg.001",
			"skin":0
		},
		{
			"mesh":13,
			"name":"Leg.002",
			"skin":0
		},
		{
			"mesh":14,
			"name":"Leg.003",
			"skin":0
		},
		{
			"name":"Leg2",
			"rotation":[
				-0.1389264464378357,
				0.19422723352909088,
				-0.03485465422272682,
				0.9704434871673584
			],
			"scale":[
				1.5001112222671509,
				1.5001109838485718,
				1.50011146068573
			],
			"translation":[
				-0.9358115792274475,
				0.25529566407203674,
				0.423858642578125
			]
		},
		{
			"name":"Leg3",
			"rotation":[
				-0.10404122620820999,
				-0.7141056060791016,
				0.09844200313091278,
				0.6852283477783203
			],
			"scale":[
				1.5001112222671509,
				1.5001109838485718,
				1.5001112222671509
			],
			"translation":[
				0.010263945907354355,
				-0.15182635188102722,
				-0.9091206192970276
			]
		},
		{
			"mesh":15,
			"name":"LowerBase",
			"skin":0
		},
		{
			"name":"LowerBody",
			"rotation":[
				-0.14317728579044342,
				-0.0204191692173481,
				-0.00395926320925355,
				0.989478588104248
			],
			"scale":[
				1.5001113414764404,
				1.5001109838485718,
				1.5001113414764404
			],
			"translation":[
				0.004872594494372606,
				0.341511070728302,
				-0.10084687918424606
			]
		},
		{
			"mesh":16,
			"name":"Median",
			"skin":0
		},
		{
			"name":"Mover",
			"rotation":[
				-0.14064033329486847,
				-0.23409755527973175,
				0.02712382562458515,
				0.9616044759750366
			],
			"scale":[
				1.5001113414764404,
				1.5001109838485718,
				1.50011146068573
			],
			"translation":[
				0.46780332922935486,
				0.09971998631954193,
				0.32655876874923706
			]
		},
		{
			"mesh":17,
			"name":"Mover.001",
			"skin":0
		},
		{
			"mesh":18,
			"name":"Mover.002",
			"skin":0
		},
		{
			"mesh":19,
			"name":"Mover.003",
			"skin":0
		},
		{
			"name":"Mover2",
			"rotation":[
				-0.10404122620820999,
				-0.7141056060791016,
				0.09844200313091278,
				0.6852283477783203
			],
			"scale":[
				1.5001112222671509,
				1.5001109838485718,
				1.5001112222671509
			],
			"translation":[
				-0.008008738048374653,
				-0.11171210557222366,
				-0.47747644782066345
			]
		},
		{
			"name":"Mover3",
			"rotation":[
				-0.1389264464378357,
				0.19422723352909088,
				-0.03485465422272682,
				0.9704434871673584
			],
			"scale":[
				1.5001112222671509,
				1.5001109838485718,
				1.50011146068573
			],
			"translation":[
				-0.5442782044410706,
				0.12306300550699234,
				0.29166242480278015
			]
		},
		{
			"name":"Neck",
			"rotation":[
				-0.14317728579044342,
				-0.0204191692173481,
				-0.00395926320925355,
				0.989478588104248
			],
			"scale":[
				1.5001113414764404,
				1.5001109838485718,
				1.5001113414764404
			],
			"translation":[
				0.005121809896081686,
				0.7859767079353333,
				-0.08557000756263733
			]
		},
		{
			"mesh":20,
			"name":"Oink",
			"skin":0
		},
		{
			"mesh":21,
			"name":"Oink.001",
			"skin":0
		},
		{
			"mesh":22,
			"name":"Oink.002",
			"skin":0
		},
		{
			"mesh":23,
			"name":"Outter",
			"skin":0
		},
		{
			"mesh":24,
			"name":"Pipe.001",
			"skin":0
		},
		{
			"mesh":25,
			"name":"sphere",
			"skin":0
		},
		{
			"name":"TurretEnemy",
			"rotation":[
				-0.14317728579044342,
				-0.0204191692173481,
				-0.00395926320925355,
				0.989478588104248
			],
			"scale":[
				1.5001113414764404,
				1.5001109838485718,
				1.5001113414764404
			],
			"translation":[
				-0.003846294479444623,
				0.7267500162124634,
				0.1272871345281601
			]
		},
		{
			"name":"UpperBody",
			"rotation":[
				-0.14317728579044342,
				-0.0204191692173481,
				-0.00395926320925355,
				0.989478588104248
			],
			"scale":[
				1.5001113414764404,
				1.5001109838485718,
				1.5001113414764404
			],
			"translation":[
				-0.003846294479444623,
				0.7267500162124634,
				0.1272871345281601
			]
		},
		{
			"children":[
				0,
				10,
				11,
				12,
				13,
				14,
				15,
				16,
				17,
				18,
				19,
				20,
				21,
				22,
				23,
				24,
				25,
				26,
				27,
				28,
				29,
				30,
				31,
				32,
				33,
				34,
				35,
				36,
				37,
				38,
				39,
				40,
				41,
				42,
				43,
				44,
				45,
				46,
				2,
				9
			],
			"name":"bot",
			"rotation":[
				0.14317727088928223,
				0.020419171079993248,
				0.003959262277930975,
				0.989478588104248
			],
			"scale":[
				0.6666172742843628,
				0.6666172742843628,
				0.6666172742843628
			],
			"translation":[
				0,
				0.5282271504402161,
				0
			]
		}
	],
	"animations":[
		{
			"channels":[
				{
					"sampler":0,
					"target":{
						"node":2,
						"path":"translation"
					}
				},
				{
					"sampler":1,
					"target":{
						"node":2,
						"path":"rotation"
					}
				},
				{
					"sampler":2,
					"target":{
						"node":2,
						"path":"scale"
					}
				},
				{
					"sampler":3,
					"target":{
						"node":1,
						"path":"translation"
					}
				},
				{
					"sampler":4,
					"target":{
						"node":1,
						"path":"rotation"
					}
				},
				{
					"sampler":5,
					"target":{
						"node":1,
						"path":"scale"
					}
				},
				{
					"sampler":6,
					"target":{
						"node":9,
						"path":"translation"
					}
				},
				{
					"sampler":7,
					"target":{
						"node":9,
						"path":"rotation"
					}
				},
				{
					"sampler":8,
					"target":{
						"node":9,
						"path":"scale"
					}
				},
				{
					"sampler":9,
					"target":{
						"node":4,
						"path":"translation"
					}
				},
				{
					"sampler":10,
					"target":{
						"node":4,
						"path":"rotation"
					}
				},
				{
					"sampler":11,
					"target":{
						"node":4,
						"path":"scale"
					}
				},
				{
					"sampler":12,
					"target":{
						"node":3,
						"path":"translation"
					}
				},
				{
					"sampler":13,
					"target":{
						"node":3,
						"path":"rotation"
					}
				},
				{
					"sampler":14,
					"target":{
						"node":3,
						"path":"scale"
					}
				},
				{
					"sampler":15,
					"target":{
						"node":6,
						"path":"translation"
					}
				},
				{
					"sampler":16,
					"target":{
						"node":6,
						"path":"rotation"
					}
				},
				{
					"sampler":17,
					"target":{
						"node":6,
						"path":"scale"
					}
				},
				{
					"sampler":18,
					"target":{
						"node":5,
						"path":"translation"
					}
				},
				{
					"sampler":19,
					"target":{
						"node":5,
						"path":"rotation"
					}
				},
				{
					"sampler":20,
					"target":{
						"node":5,
						"path":"scale"
					}
				},
				{
					"sampler":21,
					"target":{
						"node":8,
						"path":"translation"
					}
				},
				{
					"sampler":22,
					"target":{
						"node":8,
						"path":"rotation"
					}
				},
				{
					"sampler":23,
					"target":{
						"node":8,
						"path":"scale"
					}
				},
				{
					"sampler":24,
					"target":{
						"node":7,
						"path":"translation"
					}
				},
				{
					"sampler":25,
					"target":{
						"node":7,
						"path":"rotation"
					}
				},
				{
					"sampler":26,
					"target":{
						"node":7,
						"path":"scale"
					}
				},
				{
					"sampler":27,
					"target":{
						"node":47,
						"path":"rotation"
					}
				},
				{
					"sampler":28,
					"target":{
						"node":47,
						"path":"translation"
					}
				},
				{
					"sampler":29,
					"target":{
						"node":47,
						"path":"scale"
					}
				}
			],
			"name":"death",
			"samplers":[
				{
					"input":145,
					"interpolation":"LINEAR",
					"output":146
				},
				{
					"input":145,
					"interpolation":"LINEAR",
					"output":147
				},
				{
					"input":148,
					"interpolation":"LINEAR",
					"output":149
				},
				{
					"input":148,
					"interpolation":"LINEAR",
					"output":150
				},
				{
					"input":145,
					"interpolation":"LINEAR",
					"output":151
				},
				{
					"input":148,
					"interpolation":"STEP",
					"output":152
				},
				{
					"input":145,
					"interpolation":"LINEAR",
					"output":153
				},
				{
					"input":145,
					"interpolation":"LINEAR",
					"output":154
				},
				{
					"input":148,
					"interpolation":"STEP",
					"output":155
				},
				{
					"input":145,
					"interpolation":"LINEAR",
					"output":156
				},
				{
					"input":145,
					"interpolation":"LINEAR",
					"output":157
				},
				{
					"input":148,
					"interpolation":"LINEAR",
					"output":158
				},
				{
					"input":148,
					"interpolation":"LINEAR",
					"output":159
				},
				{
					"input":145,
					"interpolation":"LINEAR",
					"output":160
				},
				{
					"input":148,
					"interpolation":"LINEAR",
					"output":161
				},
				{
					"input":145,
					"interpolation":"LINEAR",
					"output":162
				},
				{
					"input":145,
					"interpolation":"LINEAR",
					"output":163
				},
				{
					"input":148,
					"interpolation":"LINEAR",
					"output":164
				},
				{
					"input":148,
					"interpolation":"LINEAR",
					"output":165
				},
				{
					"input":145,
					"interpolation":"LINEAR",
					"output":166
				},
				{
					"input":148,
					"interpolation":"STEP",
					"output":167
				},
				{
					"input":148,
					"interpolation":"LINEAR",
					"output":168
				},
				{
					"input":145,
					"interpolation":"LINEAR",
					"output":169
				},
				{
					"input":148,
					"interpolation":"LINEAR",
					"output":170
				},
				{
					"input":148,
					"interpolation":"LINEAR",
					"output":171
				},
				{
					"input":145,
					"interpolation":"LINEAR",
					"output":172
				},
				{
					"input":148,
					"interpolation":"STEP",
					"output":173
				},
				{
					"input":148,
					"interpolation":"STEP",
					"output":174
				},
				{
					"input":148,
					"interpolation":"STEP",
					"output":175
				},
				{
					"input":148,
					"interpolation":"STEP",
					"output":176
				}
			]
		},
		{
			"channels":[
				{
					"sampler":0,
					"target":{
						"node":2,
						"path":"translation"
					}
				},
				{
					"sampler":1,
					"target":{
						"node":2,
						"path":"rotation"
					}
				},
				{
					"sampler":2,
					"target":{
						"node":2,
						"path":"scale"
					}
				},
				{
					"sampler":3,
					"target":{
						"node":1,
						"path":"translation"
					}
				},
				{
					"sampler":4,
					"target":{
						"node":1,
						"path":"rotation"
					}
				},
				{
					"sampler":5,
					"target":{
						"node":1,
						"path":"scale"
					}
				},
				{
					"sampler":6,
					"target":{
						"node":9,
						"path":"translation"
					}
				},
				{
					"sampler":7,
					"target":{
						"node":9,
						"path":"rotation"
					}
				},
				{
					"sampler":8,
					"target":{
						"node":9,
						"path":"scale"
					}
				},
				{
					"sampler":9,
					"target":{
						"node":4,
						"path":"translation"
					}
				},
				{
					"sampler":10,
					"target":{
						"node":4,
						"path":"rotation"
					}
				},
				{
					"sampler":11,
					"target":{
						"node":4,
						"path":"scale"
					}
				},
				{
					"sampler":12,
					"target":{
						"node":3,
						"path":"translation"
					}
				},
				{
					"sampler":13,
					"target":{
						"node":3,
						"path":"rotation"
					}
				},
				{
					"sampler":14,
					"target":{
						"node":3,
						"path":"scale"
					}
				},
				{
					"sampler":15,
					"target":{
						"node":6,
						"path":"translation"
					}
				},
				{
					"sampler":16,
					"target":{
						"node":6,
						"path":"rotation"
					}
				},
				{
					"sampler":17,
					"target":{
						"node":6,
						"path":"scale"
					}
				},
				{
					"sampler":18,
					"target":{
						"node":5,
						"path":"translation"
					}
				},
				{
					"sampler":19,
					"target":{
						"node":5,
						"path":"rotation"
					}
				},
				{
					"sampler":20,
					"target":{
						"node":5,
						"path":"scale"
					}
				},
				{
					"sampler":21,
					"target":{
						"node":8,
						"path":"translation"
					}
				},
				{
					"sampler":22,
					"target":{
						"node":8,
						"path":"rotation"
					}
				},
				{
					"sampler":23,
					"target":{
						"node":8,
						"path":"scale"
					}
				},
				{
					"sampler":24,
					"target":{
						"node":7,
						"path":"translation"
					}
				},
				{
					"sampler":25,
					"target":{
						"node":7,
						"path":"rotation"
					}
				},
				{
					"sampler":26,
					"target":{
						"node":7,
						"path":"scale"
					}
				},
				{
					"sampler":27,
					"target":{
						"node":47,
						"path":"translation"
					}
				},
				{
					"sampler":28,
					"target":{
						"node":47,
						"path":"rotation"
					}
				},
				{
					"sampler":29,
					"target":{
						"node":47,
						"path":"scale"
					}
				}
			],
			"name":"hurt",
			"samplers":[
				{
					"input":145,
					"interpolation":"LINEAR",
					"output":177
				},
				{
					"input":145,
					"interpolation":"LINEAR",
					"output":178
				},
				{
					"input":148,
					"interpolation":"STEP",
					"output":179
				},
				{
					"input":148,
					"interpolation":"LINEAR",
					"output":180
				},
				{
					"input":145,
					"interpolation":"LINEAR",
					"output":181
				},
				{
					"input":148,
					"interpolation":"LINEAR",
					"output":182
				},
				{
					"input":148,
					"interpolation":"STEP",
					"output":183
				},
				{
					"input":145,
					"interpolation":"LINEAR",
					"output":184
				},
				{
					"input":148,
					"interpolation":"STEP",
					"output":185
				},
				{
					"input":145,
					"interpolation":"LINEAR",
					"output":186
				},
				{
					"input":145,
					"interpolation":"LINEAR",
					"output":187
				},
				{
					"input":148,
					"interpolation":"STEP",
					"output":188
				},
				{
					"input":148,
					"interpolation":"STEP",
					"output":189
				},
				{
					"input":145,
					"interpolation":"LINEAR",
					"output":190
				},
				{
					"input":148,
					"interpolation":"STEP",
					"output":191
				},
				{
					"input":148,
					"interpolation":"STEP",
					"output":192
				},
				{
					"input":145,
					"interpolation":"LINEAR",
					"output":193
				},
				{
					"input":148,
					"interpolation":"STEP",
					"output":194
				},
				{
					"input":148,
					"interpolation":"STEP",
					"output":195
				},
				{
					"input":145,
					"interpolation":"LINEAR",
					"output":196
				},
				{
					"input":148,
					"interpolation":"STEP",
					"output":197
				},
				{
					"input":145,
					"interpolation":"LINEAR",
					"output":198
				},
				{
					"input":145,
					"interpolation":"LINEAR",
					"output":199
				},
				{
					"input":148,
					"interpolation":"STEP",
					"output":200
				},
				{
					"input":148,
					"interpolation":"STEP",
					"output":201
				},
				{
					"input":145,
					"interpolation":"LINEAR",
					"output":202
				},
				{
					"input":148,
					"interpolation":"STEP",
					"output":203
				},
				{
					"input":148,
					"interpolation":"STEP",
					"output":204
				},
				{
					"input":148,
					"interpolation":"STEP",
					"output":205
				},
				{
					"input":148,
					"interpolation":"STEP",
					"output":206
				}
			]
		},
		{
			"channels":[
				{
					"sampler":0,
					"target":{
						"node":2,
						"path":"translation"
					}
				},
				{
					"sampler":1,
					"target":{
						"node":2,
						"path":"rotation"
					}
				},
				{
					"sampler":2,
					"target":{
						"node":2,
						"path":"scale"
					}
				},
				{
					"sampler":3,
					"target":{
						"node":1,
						"path":"translation"
					}
				},
				{
					"sampler":4,
					"target":{
						"node":1,
						"path":"rotation"
					}
				},
				{
					"sampler":5,
					"target":{
						"node":1,
						"path":"scale"
					}
				},
				{
					"sampler":6,
					"target":{
						"node":9,
						"path":"translation"
					}
				},
				{
					"sampler":7,
					"target":{
						"node":9,
						"path":"rotation"
					}
				},
				{
					"sampler":8,
					"target":{
						"node":9,
						"path":"scale"
					}
				},
				{
					"sampler":9,
					"target":{
						"node":4,
						"path":"translation"
					}
				},
				{
					"sampler":10,
					"target":{
						"node":4,
						"path":"rotation"
					}
				},
				{
					"sampler":11,
					"target":{
						"node":4,
						"path":"scale"
					}
				},
				{
					"sampler":12,
					"target":{
						"node":3,
						"path":"translation"
					}
				},
				{
					"sampler":13,
					"target":{
						"node":3,
						"path":"rotation"
					}
				},
				{
					"sampler":14,
					"target":{
						"node":3,
						"path":"scale"
					}
				},
				{
					"sampler":15,
					"target":{
						"node":6,
						"path":"translation"
					}
				},
				{
					"sampler":16,
					"target":{
						"node":6,
						"path":"rotation"
					}
				},
				{
					"sampler":17,
					"target":{
						"node":6,
						"path":"scale"
					}
				},
				{
					"sampler":18,
					"target":{
						"node":5,
						"path":"translation"
					}
				},
				{
					"sampler":19,
					"target":{
						"node":5,
						"path":"rotation"
					}
				},
				{
					"sampler":20,
					"target":{
						"node":5,
						"path":"scale"
					}
				},
				{
					"sampler":21,
					"target":{
						"node":8,
						"path":"translation"
					}
				},
				{
					"sampler":22,
					"target":{
						"node":8,
						"path":"rotation"
					}
				},
				{
					"sampler":23,
					"target":{
						"node":8,
						"path":"scale"
					}
				},
				{
					"sampler":24,
					"target":{
						"node":7,
						"path":"translation"
					}
				},
				{
					"sampler":25,
					"target":{
						"node":7,
						"path":"rotation"
					}
				},
				{
					"sampler":26,
					"target":{
						"node":7,
						"path":"scale"
					}
				},
				{
					"sampler":27,
					"target":{
						"node":47,
						"path":"translation"
					}
				},
				{
					"sampler":28,
					"target":{
						"node":47,
						"path":"rotation"
					}
				},
				{
					"sampler":29,
					"target":{
						"node":47,
						"path":"scale"
					}
				}
			],
			"name":"idle",
			"samplers":[
				{
					"input":207,
					"interpolation":"LINEAR",
					"output":208
				},
				{
					"input":207,
					"interpolation":"LINEAR",
					"output":209
				},
				{
					"input":210,
					"interpolation":"STEP",
					"output":211
				},
				{
					"input":210,
					"interpolation":"STEP",
					"output":212
				},
				{
					"input":207,
					"interpolation":"LINEAR",
					"output":213
				},
				{
					"input":210,
					"interpolation":"STEP",
					"output":214
				},
				{
					"input":207,
					"interpolation":"LINEAR",
					"output":215
				},
				{
					"input":210,
					"interpolation":"STEP",
					"output":216
				},
				{
					"input":210,
					"interpolation":"STEP",
					"output":217
				},
				{
					"input":207,
					"interpolation":"LINEAR",
					"output":218
				},
				{
					"input":207,
					"interpolation":"LINEAR",
					"output":219
				},
				{
					"input":210,
					"interpolation":"STEP",
					"output":220
				},
				{
					"input":210,
					"interpolation":"STEP",
					"output":221
				},
				{
					"input":207,
					"interpolation":"LINEAR",
					"output":222
				},
				{
					"input":210,
					"interpolation":"STEP",
					"output":223
				},
				{
					"input":207,
					"interpolation":"LINEAR",
					"output":224
				},
				{
					"input":207,
					"interpolation":"LINEAR",
					"output":225
				},
				{
					"input":210,
					"interpolation":"STEP",
					"output":226
				},
				{
					"input":210,
					"interpolation":"STEP",
					"output":227
				},
				{
					"input":207,
					"interpolation":"LINEAR",
					"output":228
				},
				{
					"input":210,
					"interpolation":"STEP",
					"output":229
				},
				{
					"input":207,
					"interpolation":"LINEAR",
					"output":230
				},
				{
					"input":207,
					"interpolation":"LINEAR",
					"output":231
				},
				{
					"input":210,
					"interpolation":"STEP",
					"output":232
				},
				{
					"input":210,
					"interpolation":"STEP",
					"output":233
				},
				{
					"input":207,
					"interpolation":"LINEAR",
					"output":234
				},
				{
					"input":210,
					"interpolation":"STEP",
					"output":235
				},
				{
					"input":210,
					"interpolation":"STEP",
					"output":236
				},
				{
					"input":210,
					"interpolation":"STEP",
					"output":237
				},
				{
					"input":210,
					"interpolation":"STEP",
					"output":238
				}
			]
		},
		{
			"channels":[
				{
					"sampler":0,
					"target":{
						"node":2,
						"path":"translation"
					}
				},
				{
					"sampler":1,
					"target":{
						"node":2,
						"path":"rotation"
					}
				},
				{
					"sampler":2,
					"target":{
						"node":2,
						"path":"scale"
					}
				},
				{
					"sampler":3,
					"target":{
						"node":1,
						"path":"translation"
					}
				},
				{
					"sampler":4,
					"target":{
						"node":1,
						"path":"rotation"
					}
				},
				{
					"sampler":5,
					"target":{
						"node":1,
						"path":"scale"
					}
				},
				{
					"sampler":6,
					"target":{
						"node":9,
						"path":"translation"
					}
				},
				{
					"sampler":7,
					"target":{
						"node":9,
						"path":"rotation"
					}
				},
				{
					"sampler":8,
					"target":{
						"node":9,
						"path":"scale"
					}
				},
				{
					"sampler":9,
					"target":{
						"node":4,
						"path":"translation"
					}
				},
				{
					"sampler":10,
					"target":{
						"node":4,
						"path":"rotation"
					}
				},
				{
					"sampler":11,
					"target":{
						"node":4,
						"path":"scale"
					}
				},
				{
					"sampler":12,
					"target":{
						"node":3,
						"path":"translation"
					}
				},
				{
					"sampler":13,
					"target":{
						"node":3,
						"path":"rotation"
					}
				},
				{
					"sampler":14,
					"target":{
						"node":3,
						"path":"scale"
					}
				},
				{
					"sampler":15,
					"target":{
						"node":6,
						"path":"translation"
					}
				},
				{
					"sampler":16,
					"target":{
						"node":6,
						"path":"rotation"
					}
				},
				{
					"sampler":17,
					"target":{
						"node":6,
						"path":"scale"
					}
				},
				{
					"sampler":18,
					"target":{
						"node":5,
						"path":"translation"
					}
				},
				{
					"sampler":19,
					"target":{
						"node":5,
						"path":"rotation"
					}
				},
				{
					"sampler":20,
					"target":{
						"node":5,
						"path":"scale"
					}
				},
				{
					"sampler":21,
					"target":{
						"node":8,
						"path":"translation"
					}
				},
				{
					"sampler":22,
					"target":{
						"node":8,
						"path":"rotation"
					}
				},
				{
					"sampler":23,
					"target":{
						"node":8,
						"path":"scale"
					}
				},
				{
					"sampler":24,
					"target":{
						"node":7,
						"path":"translation"
					}
				},
				{
					"sampler":25,
					"target":{
						"node":7,
						"path":"rotation"
					}
				},
				{
					"sampler":26,
					"target":{
						"node":7,
						"path":"scale"
					}
				},
				{
					"sampler":27,
					"target":{
						"node":47,
						"path":"translation"
					}
				},
				{
					"sampler":28,
					"target":{
						"node":47,
						"path":"rotation"
					}
				},
				{
					"sampler":29,
					"target":{
						"node":47,
						"path":"scale"
					}
				}
			],
			"name":"shoot",
			"samplers":[
				{
					"input":239,
					"interpolation":"LINEAR",
					"output":240
				},
				{
					"input":239,
					"interpolation":"LINEAR",
					"output":241
				},
				{
					"input":242,
					"interpolation":"STEP",
					"output":243
				},
				{
					"input":239,
					"interpolation":"LINEAR",
					"output":244
				},
				{
					"input":239,
					"interpolation":"LINEAR",
					"output":245
				},
				{
					"input":242,
					"interpolation":"STEP",
					"output":246
				},
				{
					"input":239,
					"interpolation":"LINEAR",
					"output":247
				},
				{
					"input":239,
					"interpolation":"LINEAR",
					"output":248
				},
				{
					"input":242,
					"interpolation":"STEP",
					"output":249
				},
				{
					"input":239,
					"interpolation":"LINEAR",
					"output":250
				},
				{
					"input":239,
					"interpolation":"LINEAR",
					"output":251
				},
				{
					"input":242,
					"interpolation":"STEP",
					"output":252
				},
				{
					"input":242,
					"interpolation":"STEP",
					"output":253
				},
				{
					"input":239,
					"interpolation":"LINEAR",
					"output":254
				},
				{
					"input":242,
					"interpolation":"STEP",
					"output":255
				},
				{
					"input":239,
					"interpolation":"LINEAR",
					"output":256
				},
				{
					"input":239,
					"interpolation":"LINEAR",
					"output":257
				},
				{
					"input":242,
					"interpolation":"STEP",
					"output":258
				},
				{
					"input":242,
					"interpolation":"STEP",
					"output":259
				},
				{
					"input":239,
					"interpolation":"LINEAR",
					"output":260
				},
				{
					"input":242,
					"interpolation":"STEP",
					"output":261
				},
				{
					"input":239,
					"interpolation":"LINEAR",
					"output":262
				},
				{
					"input":239,
					"interpolation":"LINEAR",
					"output":263
				},
				{
					"input":242,
					"interpolation":"STEP",
					"output":264
				},
				{
					"input":242,
					"interpolation":"STEP",
					"output":265
				},
				{
					"input":239,
					"interpolation":"LINEAR",
					"output":266
				},
				{
					"input":242,
					"interpolation":"STEP",
					"output":267
				},
				{
					"input":242,
					"interpolation":"STEP",
					"output":268
				},
				{
					"input":242,
					"interpolation":"STEP",
					"output":269
				},
				{
					"input":242,
					"interpolation":"STEP",
					"output":270
				}
			]
		},
		{
			"channels":[
				{
					"sampler":0,
					"target":{
						"node":19,
						"path":"weights"
					}
				}
			],
			"name":"Mesh_21Action",
			"samplers":[
				{
					"input":271,
					"interpolation":"LINEAR",
					"output":272
				}
			]
		},
		{
			"channels":[
				{
					"sampler":0,
					"target":{
						"node":42,
						"path":"weights"
					}
				}
			],
			"name":"Mesh_22Action",
			"samplers":[
				{
					"input":271,
					"interpolation":"LINEAR",
					"output":273
				}
			]
		}
	],
	"materials":[
		{
			"alphaCutoff":0.05000000074505806,
			"alphaMode":"MASK",
			"doubleSided":true,
			"name":"Material_0",
			"pbrMetallicRoughness":{
				"baseColorTexture":{
					"index":0
				},
				"metallicFactor":0
			}
		}
	],
	"meshes":[
		{
			"name":"Mesh_23",
			"primitives":[
				{
					"attributes":{
						"POSITION":0,
						"NORMAL":1,
						"TEXCOORD_0":2,
						"JOINTS_0":3,
						"WEIGHTS_0":4
					},
					"indices":5,
					"material":0
				}
			]
		},
		{
			"name":"Mesh_3",
			"primitives":[
				{
					"attributes":{
						"POSITION":7,
						"NORMAL":8,
						"TEXCOORD_0":9,
						"JOINTS_0":10,
						"WEIGHTS_0":11
					},
					"indices":12,
					"material":0
				}
			]
		},
		{
			"name":"Mesh_11",
			"primitives":[
				{
					"attributes":{
						"POSITION":13,
						"NORMAL":14,
						"TEXCOORD_0":15,
						"JOINTS_0":16,
						"WEIGHTS_0":17
					},
					"indices":12,
					"material":0
				}
			]
		},
		{
			"name":"Mesh_16",
			"primitives":[
				{
					"attributes":{
						"POSITION":18,
						"NORMAL":19,
						"TEXCOORD_0":20,
						"JOINTS_0":21,
						"WEIGHTS_0":22
					},
					"indices":12,
					"material":0
				}
			]
		},
		{
			"name":"Mesh_26",
			"primitives":[
				{
					"attributes":{
						"POSITION":23,
						"NORMAL":24,
						"TEXCOORD_0":25,
						"JOINTS_0":26,
						"WEIGHTS_0":27
					},
					"indices":12,
					"material":0
				}
			]
		},
		{
			"name":"Mesh_1",
			"primitives":[
				{
					"attributes":{
						"POSITION":28,
						"NORMAL":29,
						"TEXCOORD_0":30,
						"JOINTS_0":31,
						"WEIGHTS_0":32
					},
					"indices":33,
					"material":0
				}
			]
		},
		{
			"name":"Mesh_7",
			"primitives":[
				{
					"attributes":{
						"POSITION":34,
						"NORMAL":35,
						"TEXCOORD_0":36,
						"JOINTS_0":37,
						"WEIGHTS_0":38
					},
					"indices":33,
					"material":0
				}
			]
		},
		{
			"name":"Mesh_13",
			"primitives":[
				{
					"attributes":{
						"POSITION":39,
						"NORMAL":40,
						"TEXCOORD_0":41,
						"JOINTS_0":42,
						"WEIGHTS_0":43
					},
					"indices":33,
					"material":0
				}
			]
		},
		{
			"extras":{
				"targetNames":[
					"Key 1"
				]
			},
			"name":"Mesh_21",
			"primitives":[
				{
					"attributes":{
						"POSITION":44,
						"NORMAL":45,
						"TEXCOORD_0":46,
						"JOINTS_0":47,
						"WEIGHTS_0":48
					},
					"indices":49,
					"material":0,
					"targets":[
						{
							"POSITION":50,
							"NORMAL":51
						}
					]
				}
			],
			"weights":[
				0
			]
		},
		{
			"name":"Mesh_5",
			"primitives":[
				{
					"attributes":{
						"POSITION":52,
						"NORMAL":53,
						"TEXCOORD_0":54,
						"JOINTS_0":55,
						"WEIGHTS_0":56
					},
					"indices":57,
					"material":0
				}
			]
		},
		{
			"name":"Mesh_10",
			"primitives":[
				{
					"attributes":{
						"POSITION":58,
						"NORMAL":59,
						"TEXCOORD_0":60,
						"JOINTS_0":61,
						"WEIGHTS_0":62
					},
					"indices":57,
					"material":0
				}
			]
		},
		{
			"name":"Mesh_17",
			"primitives":[
				{
					"attributes":{
						"POSITION":63,
						"NORMAL":64,
						"TEXCOORD_0":65,
						"JOINTS_0":66,
						"WEIGHTS_0":67
					},
					"indices":57,
					"material":0
				}
			]
		},
		{
			"name":"Mesh_0",
			"primitives":[
				{
					"attributes":{
						"POSITION":68,
						"NORMAL":69,
						"TEXCOORD_0":70,
						"JOINTS_0":71,
						"WEIGHTS_0":72
					},
					"indices":73,
					"material":0
				}
			]
		},
		{
			"name":"Mesh_6",
			"primitives":[
				{
					"attributes":{
						"POSITION":74,
						"NORMAL":75,
						"TEXCOORD_0":76,
						"JOINTS_0":77,
						"WEIGHTS_0":78
					},
					"indices":79,
					"material":0
				}
			]
		},
		{
			"name":"Mesh_12",
			"primitives":[
				{
					"attributes":{
						"POSITION":80,
						"NORMAL":81,
						"TEXCOORD_0":82,
						"JOINTS_0":83,
						"WEIGHTS_0":84
					},
					"indices":85,
					"material":0
				}
			]
		},
		{
			"name":"Mesh_19",
			"primitives":[
				{
					"attributes":{
						"POSITION":86,
						"NORMAL":87,
						"TEXCOORD_0":88,
						"JOINTS_0":89,
						"WEIGHTS_0":90
					},
					"indices":91,
					"material":0
				}
			]
		},
		{
			"name":"Mesh_18",
			"primitives":[
				{
					"attributes":{
						"POSITION":92,
						"NORMAL":93,
						"TEXCOORD_0":94,
						"JOINTS_0":95,
						"WEIGHTS_0":96
					},
					"indices":12,
					"material":0
				}
			]
		},
		{
			"name":"Mesh_4",
			"primitives":[
				{
					"attributes":{
						"POSITION":97,
						"NORMAL":98,
						"TEXCOORD_0":99,
						"JOINTS_0":100,
						"WEIGHTS_0":101
					},
					"indices":5,
					"material":0
				}
			]
		},
		{
			"name":"Mesh_9",
			"primitives":[
				{
					"attributes":{
						"POSITION":102,
						"NORMAL":103,
						"TEXCOORD_0":104,
						"JOINTS_0":105,
						"WEIGHTS_0":106
					},
					"indices":5,
					"material":0
				}
			]
		},
		{
			"name":"Mesh_15",
			"primitives":[
				{
					"attributes":{
						"POSITION":107,
						"NORMAL":108,
						"TEXCOORD_0":109,
						"JOINTS_0":110,
						"WEIGHTS_0":111
					},
					"indices":5,
					"material":0
				}
			]
		},
		{
			"name":"Mesh_2",
			"primitives":[
				{
					"attributes":{
						"POSITION":112,
						"NORMAL":113,
						"TEXCOORD_0":114,
						"JOINTS_0":115,
						"WEIGHTS_0":116
					},
					"indices":57,
					"material":0
				}
			]
		},
		{
			"name":"Mesh_8",
			"primitives":[
				{
					"attributes":{
						"POSITION":117,
						"NORMAL":118,
						"TEXCOORD_0":119,
						"JOINTS_0":120,
						"WEIGHTS_0":121
					},
					"indices":57,
					"material":0
				}
			]
		},
		{
			"name":"Mesh_14",
			"primitives":[
				{
					"attributes":{
						"POSITION":122,
						"NORMAL":123,
						"TEXCOORD_0":124,
						"JOINTS_0":125,
						"WEIGHTS_0":126
					},
					"indices":57,
					"material":0
				}
			]
		},
		{
			"extras":{
				"targetNames":[
					"Key 1"
				]
			},
			"name":"Mesh_22",
			"primitives":[
				{
					"attributes":{
						"POSITION":127,
						"NORMAL":128,
						"TEXCOORD_0":129,
						"JOINTS_0":130,
						"WEIGHTS_0":131
					},
					"indices":49,
					"material":0,
					"targets":[
						{
							"POSITION":132,
							"NORMAL":133
						}
					]
				}
			],
			"weights":[
				0
			]
		},
		{
			"name":"Mesh_25",
			"primitives":[
				{
					"attributes":{
						"POSITION":134,
						"NORMAL":135,
						"TEXCOORD_0":136,
						"JOINTS_0":137,
						"WEIGHTS_0":138
					},
					"indices":139,
					"material":0
				}
			]
		},
		{
			"name":"Mesh_20",
			"primitives":[
				{
					"attributes":{
						"POSITION":140,
						"NORMAL":141,
						"TEXCOORD_0":142,
						"JOINTS_0":143,
						"WEIGHTS_0":144
					},
					"indices":57,
					"material":0
				}
			]
		}
	],
	"textures":[
		{
			"sampler":0,
			"source":0
		}
	],
	"images":[
		{
			"mimeType":"image/png",
			"name":"Image_0",
			"uri":"Image_0.png"
		}
	],
	"skins":[
		{
			"inverseBindMatrices":6,
			"joints":[
				2,
				1,
				9,
				4,
				3,
				6,
				5,
				8,
				7
			],
			"name":"bot"
		}
	],
	"accessors":[
		{
			"bufferView":0,
			"componentType":5126,
			"count":96,
			"max":[
				0.4687500596046448,
				2.093749761581421,
				0.5781251788139343
			],
			"min":[
				-0.4687500596046448,
				1.2187498807907104,
				-0.3593749403953552
			],
			"type":"VEC3"
		},
		{
			"bufferView":1,
			"componentType":5126,
			"count":96,
			"type":"VEC3"
		},
		{
			"bufferView":2,
			"componentType":5126,
			"count":96,
			"type":"VEC2"
		},
		{
			"bufferView":3,
			"componentType":5121,
			"count":96,
			"type":"VEC4"
		},
		{
			"bufferView":4,
			"componentType":5126,
			"count":96,
			"type":"VEC4"
		},
		{
			"bufferView":5,
			"componentType":5123,
			"count":132,
			"type":"SCALAR"
		},
		{
			"bufferView":6,
			"componentType":5126,
			"count":9,
			"type":"MAT4"
		},
		{
			"bufferView":7,
			"componentType":5126,
			"count":80,
			"max":[
				0.688966691493988,
				0.9149428606033325,
				0.4479084014892578
			],
			"min":[
				0.3757692873477936,
				0.605583667755127,
				0.18005745112895966
			],
			"type":"VEC3"
		},
		{
			"bufferView":8,
			"componentType":5126,
			"count":80,
			"type":"VEC3"
		},
		{
			"bufferView":9,
			"componentType":5126,
			"count":80,
			"type":"VEC2"
		},
		{
			"bufferView":10,
			"componentType":5121,
			"count":80,
			"type":"VEC4"
		},
		{
			"bufferView":11,
			"componentType":5126,
			"count":80,
			"type":"VEC4"
		},
		{
			"bufferView":12,
			"componentType":5123,
			"count":96,
			"type":"SCALAR"
		},
		{
			"bufferView":13,
			"componentType":5126,
			"count":80,
			"max":[
				-0.3913942873477936,
				0.9149428606033325,
				0.4479084014892578
			],
			"min":[
				-0.704591691493988,
				0.605583667755127,
				0.18005745112895966
			],
			"type":"VEC3"
		},
		{
			"bufferView":14,
			"componentType":5126,
			"count":80,
			"type":"VEC3"
		},
		{
			"bufferView":15,
			"componentType":5126,
			"count":80,
			"type":"VEC2"
		},
		{
			"bufferView":16,
			"componentType":5121,
			"count":80,
			"type":"VEC4"
		},
		{
			"bufferView":17,
			"componentType":5126,
			"count":80,
			"type":"VEC4"
		},
		{
			"bufferView":18,
			"componentType":5126,
			"count":80,
			"max":[
				0.07534126192331314,
				0.9149428606033325,
				-0.3845900297164917
			],
			"min":[
				-0.11215878278017044,
				0.605583667755127,
				-0.693949282169342
			],
			"type":"VEC3"
		},
		{
			"bufferView":19,
			"componentType":5126,
			"count":80,
			"type":"VEC3"
		},
		{
			"bufferView":20,
			"componentType":5126,
			"count":80,
			"type":"VEC2"
		},
		{
			"bufferView":21,
			"componentType":5121,
			"count":80,
			"type":"VEC4"
		},
		{
			"bufferView":22,
			"componentType":5126,
			"count":80,
			"type":"VEC4"
		},
		{
			"bufferView":23,
			"componentType":5126,
			"count":80,
			"max":[
				0.2500000298023224,
				1.0925744771957397,
				0.3894496560096741
			],
			"min":[
				-0.2500000298023224,
				0.7398099303245544,
				-0.1809374839067459
			],
			"type":"VEC3"
		},
		{
			"bufferView":24,
			"componentType":5126,
			"count":80,
			"type":"VEC3"
		},
		{
			"bufferView":25,
			"componentType":5126,
			"count":80,
			"type":"VEC2"
		},
		{
			"bufferView":26,
			"componentType":5121,
			"count":80,
			"type":"VEC4"
		},
		{
			"bufferView":27,
			"componentType":5126,
			"count":80,
			"type":"VEC4"
		},
		{
			"bufferView":28,
			"componentType":5126,
			"count":76,
			"max":[
				1.1859091520309448,
				0.2343749850988388,
				0.7995814085006714
			],
			"min":[
				0.3416992425918579,
				0.046874988824129105,
				0.044225338846445084
			],
			"type":"VEC3"
		},
		{
			"bufferView":29,
			"componentType":5126,
			"count":76,
			"type":"VEC3"
		},
		{
			"bufferView":30,
			"componentType":5126,
			"count":76,
			"type":"VEC2"
		},
		{
			"bufferView":31,
			"componentType":5121,
			"count":76,
			"type":"VEC4"
		},
		{
			"bufferView":32,
			"componentType":5126,
			"count":76,
			"type":"VEC4"
		},
		{
			"bufferView":33,
			"componentType":5123,
			"count":108,
			"type":"SCALAR"
		},
		{
			"bufferView":34,
			"componentType":5126,
			"count":76,
			"max":[
				-0.36485713720321655,
				0.2343749850988388,
				0.7907809615135193
			],
			"min":[
				-1.194001317024231,
				0.046874988824129105,
				0.05302576720714569
			],
			"type":"VEC3"
		},
		{
			"bufferView":35,
			"componentType":5126,
			"count":76,
			"type":"VEC3"
		},
		{
			"bufferView":36,
			"componentType":5126,
			"count":76,
			"type":"VEC2"
		},
		{
			"bufferView":37,
			"componentType":5121,
			"count":76,
			"type":"VEC4"
		},
		{
			"bufferView":38,
			"componentType":5126,
			"count":76,
			"type":"VEC4"
		},
		{
			"bufferView":39,
			"componentType":5126,
			"count":76,
			"max":[
				0.3253413140773773,
				0.2343749850988388,
				-0.37275633215904236
			],
			"min":[
				-0.36215874552726746,
				0.046874988824129105,
				-1.2165063619613647
			],
			"type":"VEC3"
		},
		{
			"bufferView":40,
			"componentType":5126,
			"count":76,
			"type":"VEC3"
		},
		{
			"bufferView":41,
			"componentType":5126,
			"count":76,
			"type":"VEC2"
		},
		{
			"bufferView":42,
			"componentType":5121,
			"count":76,
			"type":"VEC4"
		},
		{
			"bufferView":43,
			"componentType":5126,
			"count":76,
			"type":"VEC4"
		},
		{
			"bufferView":44,
			"componentType":5126,
			"count":60,
			"max":[
				0.2730500400066376,
				1.9218746423721313,
				1.1393213272094727
			],
			"min":[
				-0.2730500400066376,
				1.4531246423721313,
				0.9518212080001831
			],
			"type":"VEC3"
		},
		{
			"bufferView":45,
			"componentType":5126,
			"count":60,
			"type":"VEC3"
		},
		{
			"bufferView":46,
			"componentType":5126,
			"count":60,
			"type":"VEC2"
		},
		{
			"bufferView":47,
			"componentType":5121,
			"count":60,
			"type":"VEC4"
		},
		{
			"bufferView":48,
			"componentType":5126,
			"count":60,
			"type":"VEC4"
		},
		{
			"bufferView":49,
			"componentType":5123,
			"count":72,
			"type":"SCALAR"
		},
		{
			"bufferView":50,
			"componentType":5126,
			"count":60,
			"max":[
				0,
				0,
				-0.19880717992782593
			],
			"min":[
				0,
				0,
				-0.19880729913711548
			],
			"type":"VEC3"
		},
		{
			"componentType":5126,
			"count":60,
			"sparse":{
				"count":16,
				"indices":{
					"bufferView":51,
					"componentType":5121
				},
				"values":{
					"bufferView":52
				}
			},
			"type":"VEC3"
		},
		{
			"bufferView":53,
			"componentType":5126,
			"count":112,
			"max":[
				0.4599817097187042,
				0.6718749403953552,
				0.35236799716949463
			],
			"min":[
				0.18964102864265442,
				0.4218749403953552,
				0.08202732354402542
			],
			"type":"VEC3"
		},
		{
			"bufferView":54,
			"componentType":5126,
			"count":112,
			"type":"VEC3"
		},
		{
			"bufferView":55,
			"componentType":5126,
			"count":112,
			"type":"VEC2"
		},
		{
			"bufferView":56,
			"componentType":5121,
			"count":112,
			"type":"VEC4"
		},
		{
			"bufferView":57,
			"componentType":5126,
			"count":112,
			"type":"VEC4"
		},
		{
			"bufferView":58,
			"componentType":5123,
			"count":144,
			"type":"SCALAR"
		},
		{
			"bufferView":59,
			"componentType":5126,
			"count":112,
			"max":[
				-0.20526602864265442,
				0.6718749403953552,
				0.35236799716949463
			],
			"min":[
				-0.4756067097187042,
				0.4218749403953552,
				0.08202733844518661
			],
			"type":"VEC3"
		},
		{
			"bufferView":60,
			"componentType":5126,
			"count":112,
			"type":"VEC3"
		},
		{
			"bufferView":61,
			"componentType":5126,
			"count":112,
			"type":"VEC2"
		},
		{
			"bufferView":62,
			"componentType":5121,
			"count":112,
			"type":"VEC4"
		},
		{
			"bufferView":63,
			"componentType":5126,
			"count":112,
			"type":"VEC4"
		},
		{
			"bufferView":64,
			"componentType":5126,
			"count":112,
			"max":[
				0.10659120231866837,
				0.6718749403953552,
				-0.1852562427520752
			],
			"min":[
				-0.14340879023075104,
				0.4218749403953552,
				-0.4352562427520752
			],
			"type":"VEC3"
		},
		{
			"bufferView":65,
			"componentType":5126,
			"count":112,
			"type":"VEC3"
		},
		{
			"bufferView":66,
			"componentType":5126,
			"count":112,
			"type":"VEC2"
		},
		{
			"bufferView":67,
			"componentType":5121,
			"count":112,
			"type":"VEC4"
		},
		{
			"bufferView":68,
			"componentType":5126,
			"count":112,
			"type":"VEC4"
		},
		{
			"bufferView":69,
			"componentType":5126,
			"count":94,
			"max":[
				0.9695521593093872,
				1.1406248807907104,
				0.6125361323356628
			],
			"min":[
				0.6147004961967468,
				0.2343749701976776,
				0.2576844096183777
			],
			"type":"VEC3"
		},
		{
			"bufferView":70,
			"componentType":5126,
			"count":94,
			"type":"VEC3"
		},
		{
			"bufferView":71,
			"componentType":5126,
			"count":94,
			"type":"VEC2"
		},
		{
			"bufferView":72,
			"componentType":5121,
			"count":94,
			"type":"VEC4"
		},
		{
			"bufferView":73,
			"componentType":5126,
			"count":94,
			"type":"VEC4"
		},
		{
			"bufferView":74,
			"componentType":5123,
			"count":120,
			"type":"SCALAR"
		},
		{
			"bufferView":75,
			"componentType":5126,
			"count":93,
			"max":[
				-0.6303254961967468,
				1.1406248807907104,
				0.6231817603111267
			],
			"min":[
				-0.985177218914032,
				0.2343749701976776,
				0.2576843500137329
			],
			"type":"VEC3"
		},
		{
			"bufferView":76,
			"componentType":5126,
			"count":93,
			"type":"VEC3"
		},
		{
			"bufferView":77,
			"componentType":5126,
			"count":93,
			"type":"VEC2"
		},
		{
			"bufferView":78,
			"componentType":5121,
			"count":93,
			"type":"VEC4"
		},
		{
			"bufferView":79,
			"componentType":5126,
			"count":93,
			"type":"VEC4"
		},
		{
			"bufferView":80,
			"componentType":5123,
			"count":120,
			"type":"SCALAR"
		},
		{
			"bufferView":81,
			"componentType":5126,
			"count":95,
			"max":[
				0.18213322758674622,
				1.1406248807907104,
				-0.6376724243164062
			],
			"min":[
				-0.2176738679409027,
				0.2343749701976776,
				-1.0078167915344238
			],
			"type":"VEC3"
		},
		{
			"bufferView":82,
			"componentType":5126,
			"count":95,
			"type":"VEC3"
		},
		{
			"bufferView":83,
			"componentType":5126,
			"count":95,
			"type":"VEC2"
		},
		{
			"bufferView":84,
			"componentType":5121,
			"count":95,
			"type":"VEC4"
		},
		{
			"bufferView":85,
			"componentType":5126,
			"count":95,
			"type":"VEC4"
		},
		{
			"bufferView":86,
			"componentType":5123,
			"count":120,
			"type":"SCALAR"
		},
		{
			"bufferView":87,
			"componentType":5126,
			"count":114,
			"max":[
				0.3578362762928009,
				0.7979938983917236,
				0.33178794384002686
			],
			"min":[
				-0.3578362762928009,
				0.40908369421958923,
				-0.3633566200733185
			],
			"type":"VEC3"
		},
		{
			"bufferView":88,
			"componentType":5126,
			"count":114,
			"type":"VEC3"
		},
		{
			"bufferView":89,
			"componentType":5126,
			"count":114,
			"type":"VEC2"
		},
		{
			"bufferView":90,
			"componentType":5121,
			"count":114,
			"type":"VEC4"
		},
		{
			"bufferView":91,
			"componentType":5126,
			"count":114,
			"type":"VEC4"
		},
		{
			"bufferView":92,
			"componentType":5123,
			"count":156,
			"type":"SCALAR"
		},
		{
			"bufferView":93,
			"componentType":5126,
			"count":80,
			"max":[
				0.4062500596046448,
				0.9491997957229614,
				0.4257590174674988
			],
			"min":[
				-0.4062500596046448,
				0.5558580756187439,
				-0.3961213529109955
			],
			"type":"VEC3"
		},
		{
			"bufferView":94,
			"componentType":5126,
			"count":80,
			"type":"VEC3"
		},
		{
			"bufferView":95,
			"componentType":5126,
			"count":80,
			"type":"VEC2"
		},
		{
			"bufferView":96,
			"componentType":5121,
			"count":80,
			"type":"VEC4"
		},
		{
			"bufferView":97,
			"componentType":5126,
			"count":80,
			"type":"VEC4"
		},
		{
			"bufferView":98,
			"componentType":5126,
			"count":96,
			"max":[
				0.6296378374099731,
				0.8505696654319763,
				0.3980851173400879
			],
			"min":[
				0.23791339993476868,
				0.4686225950717926,
				0.1379319429397583
			],
			"type":"VEC3"
		},
		{
			"bufferView":99,
			"componentType":5126,
			"count":96,
			"type":"VEC3"
		},
		{
			"bufferView":100,
			"componentType":5126,
			"count":96,
			"type":"VEC2"
		},
		{
			"bufferView":101,
			"componentType":5121,
			"count":96,
			"type":"VEC4"
		},
		{
			"bufferView":102,
			"componentType":5126,
			"count":96,
			"type":"VEC4"
		},
		{
			"bufferView":103,
			"componentType":5126,
			"count":96,
			"max":[
				-0.2535383999347687,
				0.8505697846412659,
				0.3980851173400879
			],
			"min":[
				-0.6452628374099731,
				0.46862271428108215,
				0.1379319429397583
			],
			"type":"VEC3"
		},
		{
			"bufferView":104,
			"componentType":5126,
			"count":96,
			"type":"VEC3"
		},
		{
			"bufferView":105,
			"componentType":5126,
			"count":96,
			"type":"VEC2"
		},
		{
			"bufferView":106,
			"componentType":5121,
			"count":96,
			"type":"VEC4"
		},
		{
			"bufferView":107,
			"componentType":5126,
			"count":96,
			"type":"VEC4"
		},
		{
			"bufferView":108,
			"componentType":5126,
			"count":96,
			"max":[
				0.04409124702215195,
				0.8505698442459106,
				-0.2240896224975586
			],
			"min":[
				-0.08090880513191223,
				0.46862268447875977,
				-0.6368803977966309
			],
			"type":"VEC3"
		},
		{
			"bufferView":109,
			"componentType":5126,
			"count":96,
			"type":"VEC3"
		},
		{
			"bufferView":110,
			"componentType":5126,
			"count":96,
			"type":"VEC2"
		},
		{
			"bufferView":111,
			"componentType":5121,
			"count":96,
			"type":"VEC4"
		},
		{
			"bufferView":112,
			"componentType":5126,
			"count":96,
			"type":"VEC4"
		},
		{
			"bufferView":113,
			"componentType":5126,
			"count":112,
			"max":[
				0.842330276966095,
				1.0156248807907104,
				0.530660092830658
			],
			"min":[
				0.5719895958900452,
				0.7656249403953552,
				0.26031941175460815
			],
			"type":"VEC3"
		},
		{
			"bufferView":114,
			"componentType":5126,
			"count":112,
			"type":"VEC3"
		},
		{
			"bufferView":115,
			"componentType":5126,
			"count":112,
			"type":"VEC2"
		},
		{
			"bufferView":116,
			"componentType":5121,
			"count":112,
			"type":"VEC4"
		},
		{
			"bufferView":117,
			"componentType":5126,
			"count":112,
			"type":"VEC4"
		},
		{
			"bufferView":118,
			"componentType":5126,
			"count":112,
			"max":[
				-0.5876145958900452,
				1.0156248807907104,
				0.530660092830658
			],
			"min":[
				-0.857955276966095,
				0.7656249403953552,
				0.26031941175460815
			],
			"type":"VEC3"
		},
		{
			"bufferView":119,
			"componentType":5126,
			"count":112,
			"type":"VEC3"
		},
		{
			"bufferView":120,
			"componentType":5126,
			"count":112,
			"type":"VEC2"
		},
		{
			"bufferView":121,
			"componentType":5121,
			"count":112,
			"type":"VEC4"
		},
		{
			"bufferView":122,
			"componentType":5126,
			"count":112,
			"type":"VEC4"
		},
		{
			"bufferView":123,
			"componentType":5126,
			"count":112,
			"max":[
				0.10659126937389374,
				1.0156248807907104,
				-0.60713130235672
			],
			"min":[
				-0.14340874552726746,
				0.7656249403953552,
				-0.85713130235672
			],
			"type":"VEC3"
		},
		{
			"bufferView":124,
			"componentType":5126,
			"count":112,
			"type":"VEC3"
		},
		{
			"bufferView":125,
			"componentType":5126,
			"count":112,
			"type":"VEC2"
		},
		{
			"bufferView":126,
			"componentType":5121,
			"count":112,
			"type":"VEC4"
		},
		{
			"bufferView":127,
			"componentType":5126,
			"count":112,
			"type":"VEC4"
		},
		{
			"bufferView":128,
			"componentType":5126,
			"count":60,
			"max":[
				0.38242506980895996,
				1.999999761581421,
				0.9843753576278687
			],
			"min":[
				-0.3824250400066376,
				1.374999761581421,
				0.5156251788139343
			],
			"type":"VEC3"
		},
		{
			"bufferView":129,
			"componentType":5126,
			"count":60,
			"type":"VEC3"
		},
		{
			"bufferView":130,
			"componentType":5126,
			"count":60,
			"type":"VEC2"
		},
		{
			"bufferView":131,
			"componentType":5121,
			"count":60,
			"type":"VEC4"
		},
		{
			"bufferView":132,
			"componentType":5126,
			"count":60,
			"type":"VEC4"
		},
		{
			"bufferView":133,
			"componentType":5126,
			"count":60,
			"max":[
				0,
				0,
				-0.14389783143997192
			],
			"min":[
				0,
				0,
				-0.1438978612422943
			],
			"type":"VEC3"
		},
		{
			"componentType":5126,
			"count":60,
			"sparse":{
				"count":16,
				"indices":{
					"bufferView":134,
					"componentType":5121
				},
				"values":{
					"bufferView":135
				}
			},
			"type":"VEC3"
		},
		{
			"bufferView":136,
			"componentType":5126,
			"count":288,
			"max":[
				0.3059169054031372,
				1.9691280126571655,
				-0.3593749403953552
			],
			"min":[
				-0.31893256306648254,
				1.3121217489242554,
				-0.6999912261962891
			],
			"type":"VEC3"
		},
		{
			"bufferView":137,
			"componentType":5126,
			"count":288,
			"type":"VEC3"
		},
		{
			"bufferView":138,
			"componentType":5126,
			"count":288,
			"type":"VEC2"
		},
		{
			"bufferView":139,
			"componentType":5121,
			"count":288,
			"type":"VEC4"
		},
		{
			"bufferView":140,
			"componentType":5126,
			"count":288,
			"type":"VEC4"
		},
		{
			"bufferView":141,
			"componentType":5123,
			"count":420,
			"type":"SCALAR"
		},
		{
			"bufferView":142,
			"componentType":5126,
			"count":112,
			"max":[
				0.1875000298023224,
				1.2812498807907104,
				0.34375014901161194
			],
			"min":[
				-0.1875000149011612,
				0.9062498807907104,
				-0.03124990314245224
			],
			"type":"VEC3"
		},
		{
			"bufferView":143,
			"componentType":5126,
			"count":112,
			"type":"VEC3"
		},
		{
			"bufferView":144,
			"componentType":5126,
			"count":112,
			"type":"VEC2"
		},
		{
			"bufferView":145,
			"componentType":5121,
			"count":112,
			"type":"VEC4"
		},
		{
			"bufferView":146,
			"componentType":5126,
			"count":112,
			"type":"VEC4"
		},
		{
			"bufferView":147,
			"componentType":5126,
			"count":20,
			"max":[
				0.8333333333333334
			],
			"min":[
				0.041666666666666664
			],
			"type":"SCALAR"
		},
		{
			"bufferView":148,
			"componentType":5126,
			"count":20,
			"type":"VEC3"
		},
		{
			"bufferView":149,
			"componentType":5126,
			"count":20,
			"type":"VEC4"
		},
		{
			"bufferView":150,
			"componentType":5126,
			"count":2,
			"max":[
				0.8333333333333334
			],
			"min":[
				0.041666666666666664
			],
			"type":"SCALAR"
		},
		{
			"bufferView":151,
			"componentType":5126,
			"count":2,
			"type":"VEC3"
		},
		{
			"bufferView":152,
			"componentType":5126,
			"count":2,
			"type":"VEC3"
		},
		{
			"bufferView":153,
			"componentType":5126,
			"count":20,
			"type":"VEC4"
		},
		{
			"bufferView":154,
			"componentType":5126,
			"count":2,
			"type":"VEC3"
		},
		{
			"bufferView":155,
			"componentType":5126,
			"count":20,
			"type":"VEC3"
		},
		{
			"bufferView":156,
			"componentType":5126,
			"count":20,
			"type":"VEC4"
		},
		{
			"bufferView":157,
			"componentType":5126,
			"count":2,
			"type":"VEC3"
		},
		{
			"bufferView":158,
			"componentType":5126,
			"count":20,
			"type":"VEC3"
		},
		{
			"bufferView":159,
			"componentType":5126,
			"count":20,
			"type":"VEC4"
		},
		{
			"bufferView":160,
			"componentType":5126,
			"count":2,
			"type":"VEC3"
		},
		{
			"bufferView":161,
			"componentType":5126,
			"count":2,
			"type":"VEC3"
		},
		{
			"bufferView":162,
			"componentType":5126,
			"count":20,
			"type":"VEC4"
		},
		{
			"bufferView":163,
			"componentType":5126,
			"count":2,
			"type":"VEC3"
		},
		{
			"bufferView":164,
			"componentType":5126,
			"count":20,
			"type":"VEC3"
		},
		{
			"bufferView":165,
			"componentType":5126,
			"count":20,
			"type":"VEC4"
		},
		{
			"bufferView":166,
			"componentType":5126,
			"count":2,
			"type":"VEC3"
		},
		{
			"bufferView":167,
			"componentType":5126,
			"count":2,
			"type":"VEC3"
		},
		{
			"bufferView":168,
			"componentType":5126,
			"count":20,
			"type":"VEC4"
		},
		{
			"bufferView":169,
			"componentType":5126,
			"count":2,
			"type":"VEC3"
		},
		{
			"bufferView":170,
			"componentType":5126,
			"count":2,
			"type":"VEC3"
		},
		{
			"bufferView":171,
			"componentType":5126,
			"count":20,
			"type":"VEC4"
		},
		{
			"bufferView":172,
			"componentType":5126,
			"count":2,
			"type":"VEC3"
		},
		{
			"bufferView":173,
			"componentType":5126,
			"count":2,
			"type":"VEC3"
		},
		{
			"bufferView":174,
			"componentType":5126,
			"count":20,
			"type":"VEC4"
		},
		{
			"bufferView":175,
			"componentType":5126,
			"count":2,
			"type":"VEC3"
		},
		{
			"bufferView":176,
			"componentType":5126,
			"count":2,
			"type":"VEC4"
		},
		{
			"bufferView":177,
			"componentType":5126,
			"count":2,
			"type":"VEC3"
		},
		{
			"bufferView":178,
			"componentType":5126,
			"count":2,
			"type":"VEC3"
		},
		{
			"bufferView":179,
			"componentType":5126,
			"count":20,
			"type":"VEC3"
		},
		{
			"bufferView":180,
			"componentType":5126,
			"count":20,
			"type":"VEC4"
		},
		{
			"bufferView":181,
			"componentType":5126,
			"count":2,
			"type":"VEC3"
		},
		{
			"bufferView":182,
			"componentType":5126,
			"count":2,
			"type":"VEC3"
		},
		{
			"bufferView":183,
			"componentType":5126,
			"count":20,
			"type":"VEC4"
		},
		{
			"bufferView":184,
			"componentType":5126,
			"count":2,
			"type":"VEC3"
		},
		{
			"bufferView":185,
			"componentType":5126,
			"count":2,
			"type":"VEC3"
		},
		{
			"bufferView":186,
			"componentType":5126,
			"count":20,
			"type":"VEC4"
		},
		{
			"bufferView":187,
			"componentType":5126,
			"count":2,
			"type":"VEC3"
		},
		{
			"bufferView":188,
			"componentType":5126,
			"count":20,
			"type":"VEC3"
		},
		{
			"bufferView":189,
			"componentType":5126,
			"count":20,
			"type":"VEC4"
		},
		{
			"bufferView":190,
			"componentType":5126,
			"count":2,
			"type":"VEC3"
		},
		{
			"bufferView":191,
			"componentType":5126,
			"count":2,
			"type":"VEC3"
		},
		{
			"bufferView":192,
			"componentType":5126,
			"count":20,
			"type":"VEC4"
		},
		{
			"bufferView":193,
			"componentType":5126,
			"count":2,
			"type":"VEC3"
		},
		{
			"bufferView":194,
			"componentType":5126,
			"count":2,
			"type":"VEC3"
		},
		{
			"bufferView":195,
			"componentType":5126,
			"count":20,
			"type":"VEC4"
		},
		{
			"bufferView":196,
			"componentType":5126,
			"count":2,
			"type":"VEC3"
		},
		{
			"bufferView":197,
			"componentType":5126,
			"count":2,
			"type":"VEC3"
		},
		{
			"bufferView":198,
			"componentType":5126,
			"count":20,
			"type":"VEC4"
		},
		{
			"bufferView":199,
			"componentType":5126,
			"count":2,
			"type":"VEC3"
		},
		{
			"bufferView":200,
			"componentType":5126,
			"count":20,
			"type":"VEC3"
		},
		{
			"bufferView":201,
			"componentType":5126,
			"count":20,
			"type":"VEC4"
		},
		{
			"bufferView":202,
			"componentType":5126,
			"count":2,
			"type":"VEC3"
		},
		{
			"bufferView":203,
			"componentType":5126,
			"count":2,
			"type":"VEC3"
		},
		{
			"bufferView":204,
			"componentType":5126,
			"count":20,
			"type":"VEC4"
		},
		{
			"bufferView":205,
			"componentType":5126,
			"count":2,
			"type":"VEC3"
		},
		{
			"bufferView":206,
			"componentType":5126,
			"count":2,
			"type":"VEC3"
		},
		{
			"bufferView":207,
			"componentType":5126,
			"count":2,
			"type":"VEC4"
		},
		{
			"bufferView":208,
			"componentType":5126,
			"count":2,
			"type":"VEC3"
		},
		{
			"bufferView":209,
			"componentType":5126,
			"count":35,
			"max":[
				1.4583333333333333
			],
			"min":[
				0.041666666666666664
			],
			"type":"SCALAR"
		},
		{
			"bufferView":210,
			"componentType":5126,
			"count":35,
			"type":"VEC3"
		},
		{
			"bufferView":211,
			"componentType":5126,
			"count":35,
			"type":"VEC4"
		},
		{
			"bufferView":212,
			"componentType":5126,
			"count":2,
			"max":[
				1.4583333333333333
			],
			"min":[
				0.041666666666666664
			],
			"type":"SCALAR"
		},
		{
			"bufferView":213,
			"componentType":5126,
			"count":2,
			"type":"VEC3"
		},
		{
			"bufferView":214,
			"componentType":5126,
			"count":2,
			"type":"VEC3"
		},
		{
			"bufferView":215,
			"componentType":5126,
			"count":35,
			"type":"VEC4"
		},
		{
			"bufferView":216,
			"componentType":5126,
			"count":2,
			"type":"VEC3"
		},
		{
			"bufferView":217,
			"componentType":5126,
			"count":35,
			"type":"VEC3"
		},
		{
			"bufferView":218,
			"componentType":5126,
			"count":2,
			"type":"VEC4"
		},
		{
			"bufferView":219,
			"componentType":5126,
			"count":2,
			"type":"VEC3"
		},
		{
			"bufferView":220,
			"componentType":5126,
			"count":35,
			"type":"VEC3"
		},
		{
			"bufferView":221,
			"componentType":5126,
			"count":35,
			"type":"VEC4"
		},
		{
			"bufferView":222,
			"componentType":5126,
			"count":2,
			"type":"VEC3"
		},
		{
			"bufferView":223,
			"componentType":5126,
			"count":2,
			"type":"VEC3"
		},
		{
			"bufferView":224,
			"componentType":5126,
			"count":35,
			"type":"VEC4"
		},
		{
			"bufferView":225,
			"componentType":5126,
			"count":2,
			"type":"VEC3"
		},
		{
			"bufferView":226,
			"componentType":5126,
			"count":35,
			"type":"VEC3"
		},
		{
			"bufferView":227,
			"componentType":5126,
			"count":35,
			"type":"VEC4"
		},
		{
			"bufferView":228,
			"componentType":5126,
			"count":2,
			"type":"VEC3"
		},
		{
			"bufferView":229,
			"componentType":5126,
			"count":2,
			"type":"VEC3"
		},
		{
			"bufferView":230,
			"componentType":5126,
			"count":35,
			"type":"VEC4"
		},
		{
			"bufferView":231,
			"componentType":5126,
			"count":2,
			"type":"VEC3"
		},
		{
			"bufferView":232,
			"componentType":5126,
			"count":35,
			"type":"VEC3"
		},
		{
			"bufferView":233,
			"componentType":5126,
			"count":35,
			"type":"VEC4"
		},
		{
			"bufferView":234,
			"componentType":5126,
			"count":2,
			"type":"VEC3"
		},
		{
			"bufferView":235,
			"componentType":5126,
			"count":2,
			"type":"VEC3"
		},
		{
			"bufferView":236,
			"componentType":5126,
			"count":35,
			"type":"VEC4"
		},
		{
			"bufferView":237,
			"componentType":5126,
			"count":2,
			"type":"VEC3"
		},
		{
			"bufferView":238,
			"componentType":5126,
			"count":2,
			"type":"VEC3"
		},
		{
			"bufferView":239,
			"componentType":5126,
			"count":2,
			"type":"VEC4"
		},
		{
			"bufferView":240,
			"componentType":5126,
			"count":2,
			"type":"VEC3"
		},
		{
			"bufferView":241,
			"componentType":5126,
			"count":44,
			"max":[
				1.8333333333333333
			],
			"min":[
				0.041666666666666664
			],
			"type":"SCALAR"
		},
		{
			"bufferView":242,
			"componentType":5126,
			"count":44,
			"type":"VEC3"
		},
		{
			"bufferView":243,
			"componentType":5126,
			"count":44,
			"type":"VEC4"
		},
		{
			"bufferView":244,
			"componentType":5126,
			"count":2,
			"max":[
				1.8333333333333333
			],
			"min":[
				0.041666666666666664
			],
			"type":"SCALAR"
		},
		{
			"bufferView":245,
			"componentType":5126,
			"count":2,
			"type":"VEC3"
		},
		{
			"bufferView":246,
			"componentType":5126,
			"count":44,
			"type":"VEC3"
		},
		{
			"bufferView":247,
			"componentType":5126,
			"count":44,
			"type":"VEC4"
		},
		{
			"bufferView":248,
			"componentType":5126,
			"count":2,
			"type":"VEC3"
		},
		{
			"bufferView":249,
			"componentType":5126,
			"count":44,
			"type":"VEC3"
		},
		{
			"bufferView":250,
			"componentType":5126,
			"count":44,
			"type":"VEC4"
		},
		{
			"bufferView":251,
			"componentType":5126,
			"count":2,
			"type":"VEC3"
		},
		{
			"bufferView":252,
			"componentType":5126,
			"count":44,
			"type":"VEC3"
		},
		{
			"bufferView":253,
			"componentType":5126,
			"count":44,
			"type":"VEC4"
		},
		{
			"bufferView":254,
			"componentType":5126,
			"count":2,
			"type":"VEC3"
		},
		{
			"bufferView":255,
			"componentType":5126,
			"count":2,
			"type":"VEC3"
		},
		{
			"bufferView":256,
			"componentType":5126,
			"count":44,
			"type":"VEC4"
		},
		{
			"bufferView":257,
			"componentType":5126,
			"count":2,
			"type":"VEC3"
		},
		{
			"bufferView":258,
			"componentType":5126,
			"count":44,
			"type":"VEC3"
		},
		{
			"bufferView":259,
			"componentType":5126,
			"count":44,
			"type":"VEC4"
		},
		{
			"bufferView":260,
			"componentType":5126,
			"count":2,
			"type":"VEC3"
		},
		{
			"bufferView":261,
			"componentType":5126,
			"count":2,
			"type":"VEC3"
		},
		{
			"bufferView":262,
			"componentType":5126,
			"count":44,
			"type":"VEC4"
		},
		{
			"bufferView":263,
			"componentType":5126,
			"count":2,
			"type":"VEC3"
		},
		{
			"bufferView":264,
			"componentType":5126,
			"count":44,
			"type":"VEC3"
		},
		{
			"bufferView":265,
			"componentType":5126,
			"count":44,
			"type":"VEC4"
		},
		{
			"bufferView":266,
			"componentType":5126,
			"count":2,
			"type":"VEC3"
		},
		{
			"bufferView":267,
			"componentType":5126,
			"count":2,
			"type":"VEC3"
		},
		{
			"bufferView":268,
			"componentType":5126,
			"count":44,
			"type":"VEC4"
		},
		{
			"bufferView":269,
			"componentType":5126,
			"count":2,
			"type":"VEC3"
		},
		{
			"bufferView":270,
			"componentType":5126,
			"count":2,
			"type":"VEC3"
		},
		{
			"bufferView":271,
			"componentType":5126,
			"count":2,
			"type":"VEC4"
		},
		{
			"bufferView":272,
			"componentType":5126,
			"count":2,
			"type":"VEC3"
		},
		{
			"bufferView":273,
			"componentType":5126,
			"count":1,
			"max":[
				0
			],
			"min":[
				0
			],
			"type":"SCALAR"
		},
		{
			"bufferView":274,
			"componentType":5126,
			"count":1,
			"type":"SCALAR"
		},
		{
			"bufferView":275,
			"componentType":5126,
			"count":1,
			"type":"SCALAR"
		}
	],
	"bufferViews":[
		{
			"buffer":0,
			"byteLength":1152,
			"byteOffset":0,
			"target":34962
		},
		{
			"buffer":0,
			"byteLength":1152,
			"byteOffset":1152,
			"target":34962
		},
		{
			"buffer":0,
			"byteLength":768,
			"byteOffset":2304,
			"target":34962
		},
		{
			"buffer":0,
			"byteLength":384,
			"byteOffset":3072,
			"target":34962
		},
		{
			"buffer":0,
			"byteLength":1536,
			"byteOffset":3456,
			"target":34962
		},
		{
			"buffer":0,
			"byteLength":264,
			"byteOffset":4992,
			"target":34963
		},
		{
			"buffer":0,
			"byteLength":576,
			"byteOffset":5256
		},
		{
			"buffer":0,
			"byteLength":960,
			"byteOffset":5832,
			"target":34962
		},
		{
			"buffer":0,
			"byteLength":960,
			"byteOffset":6792,
			"target":34962
		},
		{
			"buffer":0,
			"byteLength":640,
			"byteOffset":7752,
			"target":34962
		},
		{
			"buffer":0,
			"byteLength":320,
			"byteOffset":8392,
			"target":34962
		},
		{
			"buffer":0,
			"byteLength":1280,
			"byteOffset":8712,
			"target":34962
		},
		{
			"buffer":0,
			"byteLength":192,
			"byteOffset":9992,
			"target":34963
		},
		{
			"buffer":0,
			"byteLength":960,
			"byteOffset":10184,
			"target":34962
		},
		{
			"buffer":0,
			"byteLength":960,
			"byteOffset":11144,
			"target":34962
		},
		{
			"buffer":0,
			"byteLength":640,
			"byteOffset":12104,
			"target":34962
		},
		{
			"buffer":0,
			"byteLength":320,
			"byteOffset":12744,
			"target":34962
		},
		{
			"buffer":0,
			"byteLength":1280,
			"byteOffset":13064,
			"target":34962
		},
		{
			"buffer":0,
			"byteLength":960,
			"byteOffset":14344,
			"target":34962
		},
		{
			"buffer":0,
			"byteLength":960,
			"byteOffset":15304,
			"target":34962
		},
		{
			"buffer":0,
			"byteLength":640,
			"byteOffset":16264,
			"target":34962
		},
		{
			"buffer":0,
			"byteLength":320,
			"byteOffset":16904,
			"target":34962
		},
		{
			"buffer":0,
			"byteLength":1280,
			"byteOffset":17224,
			"target":34962
		},
		{
			"buffer":0,
			"byteLength":960,
			"byteOffset":18504,
			"target":34962
		},
		{
			"buffer":0,
			"byteLength":960,
			"byteOffset":19464,
			"target":34962
		},
		{
			"buffer":0,
			"byteLength":640,
			"byteOffset":20424,
			"target":34962
		},
		{
			"buffer":0,
			"byteLength":320,
			"byteOffset":21064,
			"target":34962
		},
		{
			"buffer":0,
			"byteLength":1280,
			"byteOffset":21384,
			"target":34962
		},
		{
			"buffer":0,
			"byteLength":912,
			"byteOffset":22664,
			"target":34962
		},
		{
			"buffer":0,
			"byteLength":912,
			"byteOffset":23576,
			"target":34962
		},
		{
			"buffer":0,
			"byteLength":608,
			"byteOffset":24488,
			"target":34962
		},
		{
			"buffer":0,
			"byteLength":304,
			"byteOffset":25096,
			"target":34962
		},
		{
			"buffer":0,
			"byteLength":1216,
			"byteOffset":25400,
			"target":34962
		},
		{
			"buffer":0,
			"byteLength":216,
			"byteOffset":26616,
			"target":34963
		},
		{
			"buffer":0,
			"byteLength":912,
			"byteOffset":26832,
			"target":34962
		},
		{
			"buffer":0,
			"byteLength":912,
			"byteOffset":27744,
			"target":34962
		},
		{
			"buffer":0,
			"byteLength":608,
			"byteOffset":28656,
			"target":34962
		},
		{
			"buffer":0,
			"byteLength":304,
			"byteOffset":29264,
			"target":34962
		},
		{
			"buffer":0,
			"byteLength":1216,
			"byteOffset":29568,
			"target":34962
		},
		{
			"buffer":0,
			"byteLength":912,
			"byteOffset":30784,
			"target":34962
		},
		{
			"buffer":0,
			"byteLength":912,
			"byteOffset":31696,
			"target":34962
		},
		{
			"buffer":0,
			"byteLength":608,
			"byteOffset":32608,
			"target":34962
		},
		{
			"buffer":0,
			"byteLength":304,
			"byteOffset":33216,
			"target":34962
		},
		{
			"buffer":0,
			"byteLength":1216,
			"byteOffset":33520,
			"target":34962
		},
		{
			"buffer":0,
			"byteLength":720,
			"byteOffset":34736,
			"target":34962
		},
		{
			"buffer":0,
			"byteLength":720,
			"byteOffset":35456,
			"target":34962
		},
		{
			"buffer":0,
			"byteLength":480,
			"byteOffset":36176,
			"target":34962
		},
		{
			"buffer":0,
			"byteLength":240,
			"byteOffset":36656,
			"target":34962
		},
		{
			"buffer":0,
			"byteLength":960,
			"byteOffset":36896,
			"target":34962
		},
		{
			"buffer":0,
			"byteLength":144,
			"byteOffset":37856,
			"target":34963
		},
		{
			"buffer":0,
			"byteLength":720,
			"byteOffset":38000,
			"target":34962
		},
		{
			"buffer":0,
			"byteLength":16,
			"byteOffset":38720
		},
		{
			"buffer":0,
			"byteLength":192,
			"byteOffset":38736
		},
		{
			"buffer":0,
			"byteLength":1344,
			"byteOffset":38928,
			"target":34962
		},
		{
			"buffer":0,
			"byteLength":1344,
			"byteOffset":40272,
			"target":34962
		},
		{
			"buffer":0,
			"byteLength":896,
			"byteOffset":41616,
			"target":34962
		},
		{
			"buffer":0,
			"byteLength":448,
			"byteOffset":42512,
			"target":34962
		},
		{
			"buffer":0,
			"byteLength":1792,
			"byteOffset":42960,
			"target":34962
		},
		{
			"buffer":0,
			"byteLength":288,
			"byteOffset":44752,
			"target":34963
		},
		{
			"buffer":0,
			"byteLength":1344,
			"byteOffset":45040,
			"target":34962
		},
		{
			"buffer":0,
			"byteLength":1344,
			"byteOffset":46384,
			"target":34962
		},
		{
			"buffer":0,
			"byteLength":896,
			"byteOffset":47728,
			"target":34962
		},
		{
			"buffer":0,
			"byteLength":448,
			"byteOffset":48624,
			"target":34962
		},
		{
			"buffer":0,
			"byteLength":1792,
			"byteOffset":49072,
			"target":34962
		},
		{
			"buffer":0,
			"byteLength":1344,
			"byteOffset":50864,
			"target":34962
		},
		{
			"buffer":0,
			"byteLength":1344,
			"byteOffset":52208,
			"target":34962
		},
		{
			"buffer":0,
			"byteLength":896,
			"byteOffset":53552,
			"target":34962
		},
		{
			"buffer":0,
			"byteLength":448,
			"byteOffset":54448,
			"target":34962
		},
		{
			"buffer":0,
			"byteLength":1792,
			"byteOffset":54896,
			"target":34962
		},
		{
			"buffer":0,
			"byteLength":1128,
			"byteOffset":56688,
			"target":34962
		},
		{
			"buffer":0,
			"byteLength":1128,
			"byteOffset":57816,
			"target":34962
		},
		{
			"buffer":0,
			"byteLength":752,
			"byteOffset":58944,
			"target":34962
		},
		{
			"buffer":0,
			"byteLength":376,
			"byteOffset":59696,
			"target":34962
		},
		{
			"buffer":0,
			"byteLength":1504,
			"byteOffset":60072,
			"target":34962
		},
		{
			"buffer":0,
			"byteLength":240,
			"byteOffset":61576,
			"target":34963
		},
		{
			"buffer":0,
			"byteLength":1116,
			"byteOffset":61816,
			"target":34962
		},
		{
			"buffer":0,
			"byteLength":1116,
			"byteOffset":62932,
			"target":34962
		},
		{
			"buffer":0,
			"byteLength":744,
			"byteOffset":64048,
			"target":34962
		},
		{
			"buffer":0,
			"byteLength":372,
			"byteOffset":64792,
			"target":34962
		},
		{
			"buffer":0,
			"byteLength":1488,
			"byteOffset":65164,
			"target":34962
		},
		{
			"buffer":0,
			"byteLength":240,
			"byteOffset":66652,
			"target":34963
		},
		{
			"buffer":0,
			"byteLength":1140,
			"byteOffset":66892,
			"target":34962
		},
		{
			"buffer":0,
			"byteLength":1140,
			"byteOffset":68032,
			"target":34962
		},
		{
			"buffer":0,
			"byteLength":760,
			"byteOffset":69172,
			"target":34962
		},
		{
			"buffer":0,
			"byteLength":380,
			"byteOffset":69932,
			"target":34962
		},
		{
			"buffer":0,
			"byteLength":1520,
			"byteOffset":70312,
			"target":34962
		},
		{
			"buffer":0,
			"byteLength":240,
			"byteOffset":71832,
			"target":34963
		},
		{
			"buffer":0,
			"byteLength":1368,
			"byteOffset":72072,
			"target":34962
		},
		{
			"buffer":0,
			"byteLength":1368,
			"byteOffset":73440,
			"target":34962
		},
		{
			"buffer":0,
			"byteLength":912,
			"byteOffset":74808,
			"target":34962
		},
		{
			"buffer":0,
			"byteLength":456,
			"byteOffset":75720,
			"target":34962
		},
		{
			"buffer":0,
			"byteLength":1824,
			"byteOffset":76176,
			"target":34962
		},
		{
			"buffer":0,
			"byteLength":312,
			"byteOffset":78000,
			"target":34963
		},
		{
			"buffer":0,
			"byteLength":960,
			"byteOffset":78312,
			"target":34962
		},
		{
			"buffer":0,
			"byteLength":960,
			"byteOffset":79272,
			"target":34962
		},
		{
			"buffer":0,
			"byteLength":640,
			"byteOffset":80232,
			"target":34962
		},
		{
			"buffer":0,
			"byteLength":320,
			"byteOffset":80872,
			"target":34962
		},
		{
			"buffer":0,
			"byteLength":1280,
			"byteOffset":81192,
			"target":34962
		},
		{
			"buffer":0,
			"byteLength":1152,
			"byteOffset":82472,
			"target":34962
		},
		{
			"buffer":0,
			"byteLength":1152,
			"byteOffset":83624,
			"target":34962
		},
		{
			"buffer":0,
			"byteLength":768,
			"byteOffset":84776,
			"target":34962
		},
		{
			"buffer":0,
			"byteLength":384,
			"byteOffset":85544,
			"target":34962
		},
		{
			"buffer":0,
			"byteLength":1536,
			"byteOffset":85928,
			"target":34962
		},
		{
			"buffer":0,
			"byteLength":1152,
			"byteOffset":87464,
			"target":34962
		},
		{
			"buffer":0,
			"byteLength":1152,
			"byteOffset":88616,
			"target":34962
		},
		{
			"buffer":0,
			"byteLength":768,
			"byteOffset":89768,
			"target":34962
		},
		{
			"buffer":0,
			"byteLength":384,
			"byteOffset":90536,
			"target":34962
		},
		{
			"buffer":0,
			"byteLength":1536,
			"byteOffset":90920,
			"target":34962
		},
		{
			"buffer":0,
			"byteLength":1152,
			"byteOffset":92456,
			"target":34962
		},
		{
			"buffer":0,
			"byteLength":1152,
			"byteOffset":93608,
			"target":34962
		},
		{
			"buffer":0,
			"byteLength":768,
			"byteOffset":94760,
			"target":34962
		},
		{
			"buffer":0,
			"byteLength":384,
			"byteOffset":95528,
			"target":34962
		},
		{
			"buffer":0,
			"byteLength":1536,
			"byteOffset":95912,
			"target":34962
		},
		{
			"buffer":0,
			"byteLength":1344,
			"byteOffset":97448,
			"target":34962
		},
		{
			"buffer":0,
			"byteLength":1344,
			"byteOffset":98792,
			"target":34962
		},
		{
			"buffer":0,
			"byteLength":896,
			"byteOffset":100136,
			"target":34962
		},
		{
			"buffer":0,
			"byteLength":448,
			"byteOffset":101032,
			"target":34962
		},
		{
			"buffer":0,
			"byteLength":1792,
			"byteOffset":101480,
			"target":34962
		},
		{
			"buffer":0,
			"byteLength":1344,
			"byteOffset":103272,
			"target":34962
		},
		{
			"buffer":0,
			"byteLength":1344,
			"byteOffset":104616,
			"target":34962
		},
		{
			"buffer":0,
			"byteLength":896,
			"byteOffset":105960,
			"target":34962
		},
		{
			"buffer":0,
			"byteLength":448,
			"byteOffset":106856,
			"target":34962
		},
		{
			"buffer":0,
			"byteLength":1792,
			"byteOffset":107304,
			"target":34962
		},
		{
			"buffer":0,
			"byteLength":1344,
			"byteOffset":109096,
			"target":34962
		},
		{
			"buffer":0,
			"byteLength":1344,
			"byteOffset":110440,
			"target":34962
		},
		{
			"buffer":0,
			"byteLength":896,
			"byteOffset":111784,
			"target":34962
		},
		{
			"buffer":0,
			"byteLength":448,
			"byteOffset":112680,
			"target":34962
		},
		{
			"buffer":0,
			"byteLength":1792,
			"byteOffset":113128,
			"target":34962
		},
		{
			"buffer":0,
			"byteLength":720,
			"byteOffset":114920,
			"target":34962
		},
		{
			"buffer":0,
			"byteLength":720,
			"byteOffset":115640,
			"target":34962
		},
		{
			"buffer":0,
			"byteLength":480,
			"byteOffset":116360,
			"target":34962
		},
		{
			"buffer":0,
			"byteLength":240,
			"byteOffset":116840,
			"target":34962
		},
		{
			"buffer":0,
			"byteLength":960,
			"byteOffset":117080,
			"target":34962
		},
		{
			"buffer":0,
			"byteLength":720,
			"byteOffset":118040,
			"target":34962
		},
		{
			"buffer":0,
			"byteLength":16,
			"byteOffset":118760
		},
		{
			"buffer":0,
			"byteLength":192,
			"byteOffset":118776
		},
		{
			"buffer":0,
			"byteLength":3456,
			"byteOffset":118968,
			"target":34962
		},
		{
			"buffer":0,
			"byteLength":3456,
			"byteOffset":122424,
			"target":34962
		},
		{
			"buffer":0,
			"byteLength":2304,
			"byteOffset":125880,
			"target":34962
		},
		{
			"buffer":0,
			"byteLength":1152,
			"byteOffset":128184,
			"target":34962
		},
		{
			"buffer":0,
			"byteLength":4608,
			"byteOffset":129336,
			"target":34962
		},
		{
			"buffer":0,
			"byteLength":840,
			"byteOffset":133944,
			"target":34963
		},
		{
			"buffer":0,
			"byteLength":1344,
			"byteOffset":134784,
			"target":34962
		},
		{
			"buffer":0,
			"byteLength":1344,
			"byteOffset":136128,
			"target":34962
		},
		{
			"buffer":0,
			"byteLength":896,
			"byteOffset":137472,
			"target":34962
		},
		{
			"buffer":0,
			"byteLength":448,
			"byteOffset":138368,
			"target":34962
		},
		{
			"buffer":0,
			"byteLength":1792,
			"byteOffset":138816,
			"target":34962
		},
		{
			"buffer":0,
			"byteLength":80,
			"byteOffset":140608
		},
		{
			"buffer":0,
			"byteLength":240,
			"byteOffset":140688
		},
		{
			"buffer":0,
			"byteLength":320,
			"byteOffset":140928
		},
		{
			"buffer":0,
			"byteLength":8,
			"byteOffset":141248
		},
		{
			"buffer":0,
			"byteLength":24,
			"byteOffset":141256
		},
		{
			"buffer":0,
			"byteLength":24,
			"byteOffset":141280
		},
		{
			"buffer":0,
			"byteLength":320,
			"byteOffset":141304
		},
		{
			"buffer":0,
			"byteLength":24,
			"byteOffset":141624
		},
		{
			"buffer":0,
			"byteLength":240,
			"byteOffset":141648
		},
		{
			"buffer":0,
			"byteLength":320,
			"byteOffset":141888
		},
		{
			"buffer":0,
			"byteLength":24,
			"byteOffset":142208
		},
		{
			"buffer":0,
			"byteLength":240,
			"byteOffset":142232
		},
		{
			"buffer":0,
			"byteLength":320,
			"byteOffset":142472
		},
		{
			"buffer":0,
			"byteLength":24,
			"byteOffset":142792
		},
		{
			"buffer":0,
			"byteLength":24,
			"byteOffset":142816
		},
		{
			"buffer":0,
			"byteLength":320,
			"byteOffset":142840
		},
		{
			"buffer":0,
			"byteLength":24,
			"byteOffset":143160
		},
		{
			"buffer":0,
			"byteLength":240,
			"byteOffset":143184
		},
		{
			"buffer":0,
			"byteLength":320,
			"byteOffset":143424
		},
		{
			"buffer":0,
			"byteLength":24,
			"byteOffset":143744
		},
		{
			"buffer":0,
			"byteLength":24,
			"byteOffset":143768
		},
		{
			"buffer":0,
			"byteLength":320,
			"byteOffset":143792
		},
		{
			"buffer":0,
			"byteLength":24,
			"byteOffset":144112
		},
		{
			"buffer":0,
			"byteLength":24,
			"byteOffset":144136
		},
		{
			"buffer":0,
			"byteLength":320,
			"byteOffset":144160
		},
		{
			"buffer":0,
			"byteLength":24,
			"byteOffset":144480
		},
		{
			"buffer":0,
			"byteLength":24,
			"byteOffset":144504
		},
		{
			"buffer":0,
			"byteLength":320,
			"byteOffset":144528
		},
		{
			"buffer":0,
			"byteLength":24,
			"byteOffset":144848
		},
		{
			"buffer":0,
			"byteLength":32,
			"byteOffset":144872
		},
		{
			"buffer":0,
			"byteLength":24,
			"byteOffset":144904
		},
		{
			"buffer":0,
			"byteLength":24,
			"byteOffset":144928
		},
		{
			"buffer":0,
			"byteLength":240,
			"byteOffset":144952
		},
		{
			"buffer":0,
			"byteLength":320,
			"byteOffset":145192
		},
		{
			"buffer":0,
			"byteLength":24,
			"byteOffset":145512
		},
		{
			"buffer":0,
			"byteLength":24,
			"byteOffset":145536
		},
		{
			"buffer":0,
			"byteLength":320,
			"byteOffset":145560
		},
		{
			"buffer":0,
			"byteLength":24,
			"byteOffset":145880
		},
		{
			"buffer":0,
			"byteLength":24,
			"byteOffset":145904
		},
		{
			"buffer":0,
			"byteLength":320,
			"byteOffset":145928
		},
		{
			"buffer":0,
			"byteLength":24,
			"byteOffset":146248
		},
		{
			"buffer":0,
			"byteLength":240,
			"byteOffset":146272
		},
		{
			"buffer":0,
			"byteLength":320,
			"byteOffset":146512
		},
		{
			"buffer":0,
			"byteLength":24,
			"byteOffset":146832
		},
		{
			"buffer":0,
			"byteLength":24,
			"byteOffset":146856
		},
		{
			"buffer":0,
			"byteLength":320,
			"byteOffset":146880
		},
		{
			"buffer":0,
			"byteLength":24,
			"byteOffset":147200
		},
		{
			"buffer":0,
			"byteLength":24,
			"byteOffset":147224
		},
		{
			"buffer":0,
			"byteLength":320,
			"byteOffset":147248
		},
		{
			"buffer":0,
			"byteLength":24,
			"byteOffset":147568
		},
		{
			"buffer":0,
			"byteLength":24,
			"byteOffset":147592
		},
		{
			"buffer":0,
			"byteLength":320,
			"byteOffset":147616
		},
		{
			"buffer":0,
			"byteLength":24,
			"byteOffset":147936
		},
		{
			"buffer":0,
			"byteLength":240,
			"byteOffset":147960
		},
		{
			"buffer":0,
			"byteLength":320,
			"byteOffset":148200
		},
		{
			"buffer":0,
			"byteLength":24,
			"byteOffset":148520
		},
		{
			"buffer":0,
			"byteLength":24,
			"byteOffset":148544
		},
		{
			"buffer":0,
			"byteLength":320,
			"byteOffset":148568
		},
		{
			"buffer":0,
			"byteLength":24,
			"byteOffset":148888
		},
		{
			"buffer":0,
			"byteLength":24,
			"byteOffset":148912
		},
		{
			"buffer":0,
			"byteLength":32,
			"byteOffset":148936
		},
		{
			"buffer":0,
			"byteLength":24,
			"byteOffset":148968
		},
		{
			"buffer":0,
			"byteLength":140,
			"byteOffset":148992
		},
		{
			"buffer":0,
			"byteLength":420,
			"byteOffset":149132
		},
		{
			"buffer":0,
			"byteLength":560,
			"byteOffset":149552
		},
		{
			"buffer":0,
			"byteLength":8,
			"byteOffset":150112
		},
		{
			"buffer":0,
			"byteLength":24,
			"byteOffset":150120
		},
		{
			"buffer":0,
			"byteLength":24,
			"byteOffset":150144
		},
		{
			"buffer":0,
			"byteLength":560,
			"byteOffset":150168
		},
		{
			"buffer":0,
			"byteLength":24,
			"byteOffset":150728
		},
		{
			"buffer":0,
			"byteLength":420,
			"byteOffset":150752
		},
		{
			"buffer":0,
			"byteLength":32,
			"byteOffset":151172
		},
		{
			"buffer":0,
			"byteLength":24,
			"byteOffset":151204
		},
		{
			"buffer":0,
			"byteLength":420,
			"byteOffset":151228
		},
		{
			"buffer":0,
			"byteLength":560,
			"byteOffset":151648
		},
		{
			"buffer":0,
			"byteLength":24,
			"byteOffset":152208
		},
		{
			"buffer":0,
			"byteLength":24,
			"byteOffset":152232
		},
		{
			"buffer":0,
			"byteLength":560,
			"byteOffset":152256
		},
		{
			"buffer":0,
			"byteLength":24,
			"byteOffset":152816
		},
		{
			"buffer":0,
			"byteLength":420,
			"byteOffset":152840
		},
		{
			"buffer":0,
			"byteLength":560,
			"byteOffset":153260
		},
		{
			"buffer":0,
			"byteLength":24,
			"byteOffset":153820
		},
		{
			"buffer":0,
			"byteLength":24,
			"byteOffset":153844
		},
		{
			"buffer":0,
			"byteLength":560,
			"byteOffset":153868
		},
		{
			"buffer":0,
			"byteLength":24,
			"byteOffset":154428
		},
		{
			"buffer":0,
			"byteLength":420,
			"byteOffset":154452
		},
		{
			"buffer":0,
			"byteLength":560,
			"byteOffset":154872
		},
		{
			"buffer":0,
			"byteLength":24,
			"byteOffset":155432
		},
		{
			"buffer":0,
			"byteLength":24,
			"byteOffset":155456
		},
		{
			"buffer":0,
			"byteLength":560,
			"byteOffset":155480
		},
		{
			"buffer":0,
			"byteLength":24,
			"byteOffset":156040
		},
		{
			"buffer":0,
			"byteLength":24,
			"byteOffset":156064
		},
		{
			"buffer":0,
			"byteLength":32,
			"byteOffset":156088
		},
		{
			"buffer":0,
			"byteLength":24,
			"byteOffset":156120
		},
		{
			"buffer":0,
			"byteLength":176,
			"byteOffset":156144
		},
		{
			"buffer":0,
			"byteLength":528,
			"byteOffset":156320
		},
		{
			"buffer":0,
			"byteLength":704,
			"byteOffset":156848
		},
		{
			"buffer":0,
			"byteLength":8,
			"byteOffset":157552
		},
		{
			"buffer":0,
			"byteLength":24,
			"byteOffset":157560
		},
		{
			"buffer":0,
			"byteLength":528,
			"byteOffset":157584
		},
		{
			"buffer":0,
			"byteLength":704,
			"byteOffset":158112
		},
		{
			"buffer":0,
			"byteLength":24,
			"byteOffset":158816
		},
		{
			"buffer":0,
			"byteLength":528,
			"byteOffset":158840
		},
		{
			"buffer":0,
			"byteLength":704,
			"byteOffset":159368
		},
		{
			"buffer":0,
			"byteLength":24,
			"byteOffset":160072
		},
		{
			"buffer":0,
			"byteLength":528,
			"byteOffset":160096
		},
		{
			"buffer":0,
			"byteLength":704,
			"byteOffset":160624
		},
		{
			"buffer":0,
			"byteLength":24,
			"byteOffset":161328
		},
		{
			"buffer":0,
			"byteLength":24,
			"byteOffset":161352
		},
		{
			"buffer":0,
			"byteLength":704,
			"byteOffset":161376
		},
		{
			"buffer":0,
			"byteLength":24,
			"byteOffset":162080
		},
		{
			"buffer":0,
			"byteLength":528,
			"byteOffset":162104
		},
		{
			"buffer":0,
			"byteLength":704,
			"byteOffset":162632
		},
		{
			"buffer":0,
			"byteLength":24,
			"byteOffset":163336
		},
		{
			"buffer":0,
			"byteLength":24,
			"byteOffset":163360
		},
		{
			"buffer":0,
			"byteLength":704,
			"byteOffset":163384
		},
		{
			"buffer":0,
			"byteLength":24,
			"byteOffset":164088
		},
		{
			"buffer":0,
			"byteLength":528,
			"byteOffset":164112
		},
		{
			"buffer":0,
			"byteLength":704,
			"byteOffset":164640
		},
		{
			"buffer":0,
			"byteLength":24,
			"byteOffset":165344
		},
		{
			"buffer":0,
			"byteLength":24,
			"byteOffset":165368
		},
		{
			"buffer":0,
			"byteLength":704,
			"byteOffset":165392
		},
		{
			"buffer":0,
			"byteLength":24,
			"byteOffset":166096
		},
		{
			"buffer":0,
			"byteLength":24,
			"byteOffset":166120
		},
		{
			"buffer":0,
			"byteLength":32,
			"byteOffset":166144
		},
		{
			"buffer":0,
			"byteLength":24,
			"byteOffset":166176
		},
		{
			"buffer":0,
			"byteLength":4,
			"byteOffset":166200
		},
		{
			"buffer":0,
			"byteLength":4,
			"byteOffset":166204
		},
		{
			"buffer":0,
			"byteLength":4,
			"byteOffset":166208
		}
	],
	"samplers":[
		{
			"magFilter":9728,
			"minFilter":9984,
			"wrapS":33071,
			"wrapT":33071
		}
	],
	"buffers":[
		{
			"byteLength":166212,
			"uri":"Turretanimated.bin"
		}
	]
}
